<svg viewBox="0 0 31 25" fill="none" xmlns="http://www.w3.org/2000/svg">
<path d="M2.10526 12C1.36842 12.4211 1 12.8421 1 14.1053C1 15.3684 2.10526 16.2105 2.10526 16.2105L16.8421 20L29 12" stroke="#333333"/>
<path d="M2.10526 16C1.36842 16.4211 1 16.8421 1 18.1053C1 19.3684 2.10526 20.2105 2.10526 20.2105L16.8421 24L29 16" stroke="#333333"/>
<path d="M2.8131 8.28814C2.8131 8.28814 1.35547 8.65254 1.35547 10.1102C1.35547 11.5678 2.44869 12.2966 2.44869 12.2966L9.60293 14M2.8131 8.28814L17.025 11.5678L29.0504 4.27966L15.5673 1L2.8131 8.28814ZM29.0504 8.65254L17.025 15.5763L14.333 14.9781" stroke="#333333"/>
<path d="M11 15.7919V12.3393V12L12.4576 12.3608V16.0932L11.6177 15.1133L11 15.7919Z" fill="#333333" stroke="#333333"/>
</svg>
