<svg viewBox="0 0 32 28" fill="none" xmlns="http://www.w3.org/2000/svg">
<path d="M22.5382 7V27.4238" stroke="#333333"/>
<path d="M19.4288 11.8804L22.5375 14.6005" stroke="#333333"/>
<path d="M24.8696 8.60596L22.5381 12.4918" stroke="#333333"/>
<path d="M25.6469 13.8232L22.5382 15.7662" stroke="#333333"/>
<path d="M21.3736 17.7091C20.596 18.0978 19.4302 17.3206 19.4302 17.3206C19.4302 17.3206 14.7681 18.0979 13.99 14.9891C13.4479 12.8233 14.415 11.2234 15.0516 10.452C15.3085 10.1408 15.3695 9.67919 15.2105 9.30826C14.9068 8.59933 14.5844 7.3724 15.1553 6.0516C16.0319 4.02338 18.6535 3.72009 18.6535 3.72009C18.6535 3.72009 19.0416 1 21.7617 1C24.4814 1 25.2594 2.94292 25.2594 2.94292C25.2594 2.94292 27.7574 2.94285 28.7562 5.27443C29.3297 6.61296 28.9887 7.82338 28.5943 8.61163C28.3511 9.0976 28.5112 9.78986 28.9505 10.1098C29.9841 10.8627 31.3399 12.4123 30.311 14.9891C29.0698 18.0978 24.8708 16.932 24.8708 16.932C24.8708 16.932 24.4818 17.7091 23.7046 17.7091" stroke="#333333"/>
<path d="M8.15981 27.4238C8.15981 27.4238 6.60547 27.0352 6.60547 25.0923C6.60547 23.1494 8.83435 22.9628 8.83435 22.9628C8.83435 22.9628 8.31145 21.3181 9.44779 20.5835C10.3679 19.9887 11.9015 20.8809 11.9015 20.8809C11.9015 20.8809 12.8217 19.394 14.3553 19.6914C15.8888 19.9889 15.8888 21.4757 15.8888 21.4757C15.8888 21.4757 16.9625 20.8718 17.7291 21.4757C18.4728 22.0617 18.3426 23.2602 18.3426 23.2602C18.3426 23.2602 19.9179 23.5033 20.1829 25.0445C20.2529 25.4522 20.1572 25.8106 19.9785 26.1173" stroke="#333333"/>
<path d="M3.10854 27.4237C3.10854 27.4237 1.554 26.8884 1.5542 25.2824C1.5544 23.6764 3.17799 23.4088 3.17799 23.4088C3.17799 23.4088 2.71661 21.9286 3.71926 21.2675C4.53116 20.7321 5.88432 21.5352 5.88432 21.5352C5.88432 21.5352 6.69621 20.1969 8.04938 20.4646" stroke="#333333"/>
<path d="M0 27.4238H29.5324" stroke="#333333"/>
<path d="M1.5542 7.21729C3.10854 7.21729 4.66288 8.77162 4.66288 8.77162C4.66288 8.77162 5.82863 7.21729 7.77155 7.21729" stroke="#333333"/>
<path d="M4.66272 11.1033C6.21706 11.1033 7.7714 12.6576 7.7714 12.6576C7.7714 12.6576 8.93715 11.1033 10.8801 11.1033" stroke="#333333"/>
</svg>
