<svg viewBox="0 0 32 28" fill="none" xmlns="http://www.w3.org/2000/svg">
<path d="M23.662 14.513C21.8121 10.8132 24.587 5.26342 26.8994 3.87598M22.7369 10.3507C21.3495 9.88822 20.887 6.65086 18.1121 6.65086C15.3373 6.65086 14.4123 9.88822 15.3373 12.2006C14.7206 10.9673 12.7474 8.31579 9.7875 7.57582C6.08765 6.65086 4.70021 7.11334 1.46285 5.7259C1.00037 7.2675 0.537889 10.9982 2.38781 13.5881C4.70021 16.8254 7.47514 19.1378 12.5624 18.6753C11.4833 19.1378 8.95508 20.0628 7.47514 20.0628C5.99521 20.0628 2.85031 20.0628 1.46285 20.0628L5.62522 27C6.70434 26.075 9.14007 24.1326 10.25 23.7626C11.6375 23.3001 13.9499 24.2251 16.7247 22.3752C19.4996 20.5253 20.8871 18.2129 20.8871 15.9005C20.8871 13.5881 20.4246 12.2006 22.7369 10.3507Z" stroke="#333333"/>
<path d="M1 8.50073C3.3124 10.8131 5.6248 11.2756 8.39969 11.2756" stroke="#333333"/>
<path d="M1.92529 12.6631C4.1452 14.513 8.40002 14.9755 10.2499 14.9755" stroke="#333333"/>
<path d="M28.4051 1.16699C29.4984 0.583362 31.2914 1.31166 31.2914 1.31166C31.2914 1.31166 30.8988 3.20669 29.8055 3.79032C28.7122 4.37395 26.9192 3.64565 26.9192 3.64565C26.9192 3.64565 27.3118 1.75062 28.4051 1.16699Z" stroke="#333333"/>
<path d="M24.0699 9.28352C24.9679 8.42941 26.8902 8.65305 26.8902 8.65305C26.8902 8.65305 27.0173 10.5841 26.1193 11.4383C25.2213 12.2924 23.299 12.0687 23.299 12.0687C23.299 12.0687 23.1719 10.1376 24.0699 9.28352Z" stroke="#333333"/>
<path d="M24.1156 4.31904C24.5856 5.46582 23.6795 7.17587 23.6795 7.17587C23.6795 7.17587 21.8339 6.59344 21.364 5.44666C20.894 4.29989 21.8001 2.58984 21.8001 2.58984C21.8001 2.58984 23.6457 3.17227 24.1156 4.31904Z" stroke="#333333"/>
<circle cx="18.2601" cy="10.0362" r="0.610393" fill="#333333"/>
</svg>
