<svg viewBox="0 0 41 22" fill="none" xmlns="http://www.w3.org/2000/svg">
<path d="M12.3416 20.9455H1V11.9505H12.3416M12.3416 20.9455V11.9505M12.3416 20.9455H15.0792M12.3416 11.9505V1H23.2921V5.69307M23.2921 20.9455V5.69307M23.2921 20.9455H28.3762M23.2921 20.9455H20.9455M23.2921 5.69307H31.896V9.99505" stroke="#333333"/>
<path d="M18.5985 15.8615V21.3367" stroke="#333333"/>
<circle cx="18.599" cy="15.8614" r="1.84653" stroke="#333333"/>
<path d="M38.1537 15.8615V21.3367" stroke="#333333"/>
<path d="M40 16.2525C40 17.5634 39.1037 18.4901 38.1534 18.4901C37.2031 18.4901 36.3069 17.5634 36.3069 16.2525C36.3069 14.9416 37.2031 14.0149 38.1534 14.0149C39.1037 14.0149 40 14.9416 40 16.2525Z" stroke="#333333"/>
<path d="M31.8571 15.431L31.896 21.3367" stroke="#333333"/>
<path d="M31.8571 11.8754L33.1628 13.1811C34.1893 14.2077 34.1893 15.8721 33.1628 16.8987L31.8571 18.2044L30.5514 16.8987C29.5248 15.8721 29.5248 14.2077 30.5514 13.1811L31.8571 11.8754Z" stroke="#333333"/>
<path d="M2.95544 18.9901H10.7772" stroke="#333333"/>
<path d="M2.95544 17.4258H10.7772" stroke="#333333"/>
<path d="M24.8564 11.1683H29.5495" stroke="#333333"/>
<path d="M24.8564 12.7327H27.9852" stroke="#333333"/>
<path d="M24.8564 14.2971H27.9852" stroke="#333333"/>
<path d="M24.8564 15.8615H27.9852" stroke="#333333"/>
<path d="M24.8564 17.4258H28.7673" stroke="#333333"/>
<path d="M24.8564 18.9901H30.3317" stroke="#333333"/>
<path d="M2.95544 15.8615H10.7772" stroke="#333333"/>
<path d="M24.8564 9.604H30.3317" stroke="#333333"/>
<path d="M14.6881 7.25745H17.0346" stroke="#333333"/>
<path d="M18.599 7.25745H20.9455" stroke="#333333"/>
<path d="M14.6881 10.3862H17.0346" stroke="#333333"/>
<path d="M18.599 10.3862H20.9455" stroke="#333333"/>
<path d="M2.95544 14.2971H10.7772" stroke="#333333"/>
<path d="M24.8564 8.03967H30.3317" stroke="#333333"/>
<path d="M14.6881 4.12878H17.0346" stroke="#333333"/>
<path d="M18.599 4.12878H20.9455" stroke="#333333"/>
</svg>
