<svg width="30" height="20" viewBox="0 0 30 20" fill="none" xmlns="http://www.w3.org/2000/svg">
<path d="M27.9813 19.9921H1.99867C1.46859 19.9921 0.960219 19.7815 0.585396 19.4067C0.210573 19.0319 0 18.5235 0 17.9934L0 9.5857H1.43987L1.76466 8.79955H2.49167L2.81562 9.58236H5.64873V8.98693L5.9019 9.58653H7.37259L7.62575 8.97693V9.58486H14.6652V8.29905H14.7985C14.8934 8.30238 14.9209 8.31071 14.9209 8.46894V9.58653H18.5626V9.28756C18.9349 9.4766 19.3738 9.58736 19.8393 9.58736L19.9184 9.58653H19.9142H21.4465L21.7747 8.80372H22.5017L22.8223 9.58653H25.7753V8.84202L26.2217 9.58653H28.5834V4.66981H26.2458V5.25025L25.9186 4.66981H23.5152V5.25025L23.2145 4.66981H19.9692C19.4775 4.64496 18.9876 4.74615 18.546 4.96378L18.5635 4.95628V4.66981H16.325V4.95628C16.054 4.74272 15.7118 4.64056 15.3681 4.67064H15.3731H7.19271L6.6439 5.94062L6.08011 4.67064H3.5035V5.25108L3.21952 4.67064H1.02099L0.00249833 7.00242V2.00575C0.00249833 1.47567 0.213072 0.967299 0.587895 0.592476C0.962717 0.217653 1.47109 0.00708008 2.00117 0.00708008H27.9838C28.5139 0.00708008 29.0223 0.217653 29.3971 0.592476C29.7719 0.967299 29.9825 1.47567 29.9825 2.00575V10.7333H28.4227C28.3977 10.7316 28.3678 10.7316 28.3386 10.7316C27.9772 10.7316 27.6416 10.8399 27.3618 11.0256L27.3684 11.0214V10.7333H25.0616C24.7012 10.7133 24.3447 10.8158 24.0498 11.0239L24.0548 11.0206V10.7324H19.9359V11.0206C19.5987 10.8304 19.2179 10.7311 18.8308 10.7324H18.7983H18.8H16.0826V11.0206C15.7276 10.7932 15.3063 10.692 14.8867 10.7333L14.8942 10.7324H11.8538L11.1576 11.4853L10.5063 10.7324H5.96436V15.6525H10.4214L11.1384 14.888L11.8138 15.6525H14.5611V14.5008H14.9442C15.3126 14.5152 15.6799 14.4536 16.0235 14.32L16.0052 14.3267V15.6542H18.2703V14.3725H18.3794C18.5177 14.3725 18.5318 14.3775 18.5318 14.5174V15.655H25.4156L25.4997 15.6566C25.8944 15.6566 26.2625 15.5384 26.569 15.336L26.5615 15.3402V15.655H28.745L28.8491 15.6566C29.258 15.6566 29.6469 15.5725 30 15.4201L29.9808 15.4276V17.9943C29.9808 18.5243 29.7703 19.0327 29.3955 19.4075C29.0206 19.7824 28.5123 19.9929 27.9822 19.9929L27.9813 19.9921ZM17.5758 14.9629H16.728V11.4361H18.6734C19.0247 11.4036 19.3785 11.4627 19.7002 11.6077L19.6869 11.6027C19.9475 11.7459 20.1216 12.0191 20.1216 12.3322L20.1199 12.388V12.3855L20.1208 12.4171C20.1208 12.8219 19.8768 13.17 19.527 13.3215L19.5203 13.324C19.6877 13.384 19.8276 13.4864 19.9317 13.6188L19.9334 13.6205C20.051 13.8151 20.1002 14.0434 20.0733 14.2692L20.0741 14.2642V14.9621H19.228V14.5207C19.2681 14.2804 19.2199 14.0337 19.0923 13.8262L19.0948 13.8304C19.0069 13.7636 18.9063 13.7154 18.7993 13.6887C18.6922 13.6619 18.5808 13.6571 18.4719 13.6746L18.4769 13.6738H17.5758V14.9621V14.9629ZM17.5758 12.1648V12.9568H18.6001C18.7447 12.9701 18.8903 12.9442 19.0215 12.8818L19.0165 12.8843C19.0701 12.8497 19.1142 12.8023 19.1447 12.7463C19.1752 12.6903 19.1913 12.6275 19.1914 12.5637L19.1905 12.5446V12.5454C19.1947 12.4817 19.1807 12.4182 19.1502 12.3622C19.1196 12.3062 19.0739 12.26 19.0182 12.2289L19.0165 12.2281C18.8901 12.1716 18.7513 12.1486 18.6134 12.1615H18.6168L17.5758 12.1648ZM10.06 14.9621H6.72302V11.4361H10.1124L11.1492 12.592L12.221 11.4361H14.9134C15.8694 11.4361 16.3341 11.8167 16.3341 12.5979C16.3341 13.3932 15.8536 13.7796 14.8684 13.7796H13.815V14.9613H12.1769L11.1392 13.7962L10.0608 14.9621H10.06ZM12.9755 11.8142L11.6814 13.2049L12.9755 14.6407V11.8142ZM7.56329 13.5256V14.2268H9.63524L10.5929 13.1925L9.67189 12.1648H7.56246V12.806H9.41289V13.5247L7.56329 13.5256ZM13.815 12.1656V13.0634H14.9034C15.2365 13.0634 15.428 12.8935 15.428 12.597C15.428 12.3139 15.2498 12.1648 14.9126 12.1648L13.815 12.1656ZM28.8366 14.9638H27.2094V14.2059H28.8299C28.9512 14.2227 29.0742 14.191 29.1722 14.1177L29.1714 14.1185C29.2027 14.0895 29.2276 14.0543 29.2447 14.0152C29.2617 13.9761 29.2705 13.9338 29.2705 13.8912V13.8778C29.2706 13.8357 29.2614 13.794 29.2437 13.7558C29.226 13.7175 29.2002 13.6836 29.1681 13.6563C29.0819 13.594 28.9756 13.5661 28.8699 13.578H28.8716L28.7159 13.573C27.9547 13.5531 27.0928 13.5297 27.0928 12.4863C27.0928 11.9783 27.4109 11.4361 28.3011 11.4361H29.9808V12.1873H28.4444C28.3257 12.174 28.2058 12.1979 28.1013 12.2556L28.1046 12.2539C28.0635 12.281 28.0304 12.3186 28.0089 12.3629C27.9873 12.4071 27.9781 12.4564 27.9822 12.5054V12.5046V12.5137C27.9822 12.5699 27.9999 12.6245 28.0328 12.67C28.0657 12.7155 28.1121 12.7494 28.1654 12.7669L28.1671 12.7677C28.2726 12.8003 28.3832 12.8138 28.4935 12.8077H28.491L28.9482 12.8194C29.2928 12.785 29.6371 12.8876 29.9067 13.105L29.9042 13.1033C29.9292 13.1233 29.9509 13.145 29.97 13.1691L29.9709 13.17L29.9808 14.5124C29.8408 14.6761 29.6626 14.8028 29.4621 14.8813C29.2615 14.9599 29.0447 14.9879 28.8308 14.9629L28.8366 14.9638ZM25.548 14.9638H23.9057V14.2059H25.5396C25.6619 14.222 25.7856 14.1903 25.8852 14.1177L25.8836 14.1185C25.9147 14.0894 25.9394 14.0542 25.9564 14.015C25.9733 13.9759 25.9819 13.9338 25.9818 13.8912V13.8828C25.9818 13.84 25.9727 13.7976 25.955 13.7586C25.9373 13.7195 25.9116 13.6847 25.8794 13.6563C25.7917 13.594 25.6841 13.5661 25.5771 13.578H25.5788L25.4239 13.573C24.6652 13.5531 23.8041 13.5297 23.8041 12.4863C23.8041 11.9783 24.1206 11.4361 25.0092 11.4361H26.698V12.1873H25.1524C25.0345 12.1741 24.9155 12.198 24.8118 12.2556L24.8151 12.2539C24.7714 12.284 24.7366 12.3254 24.7144 12.3736C24.6922 12.4219 24.6835 12.4752 24.6891 12.528C24.6947 12.5808 24.7145 12.6311 24.7464 12.6736C24.7782 12.7161 24.821 12.7492 24.8701 12.7694L24.8718 12.7702C24.9787 12.803 25.0907 12.8166 25.2024 12.8102H25.1999L25.6537 12.8219C26.0002 12.7885 26.346 12.8912 26.6181 13.1083L26.6156 13.1058C26.7071 13.2067 26.7767 13.3255 26.82 13.4547C26.8633 13.5838 26.8793 13.7205 26.8671 13.8562V13.852C26.8696 14.5874 26.4241 14.9621 25.5455 14.9621L25.548 14.9638ZM23.4011 14.9638H20.5863V11.4353H23.3986V12.164H21.4274V12.8052H23.3528V13.5239H21.4274V14.2251L23.4011 14.2284V14.9613V14.9638ZM25.0416 8.89615H23.3253L22.9972 8.11001H21.2467L20.9285 8.89615H19.9425C19.4997 8.9195 19.0637 8.77998 18.7167 8.50392L18.7209 8.50641C18.556 8.32446 18.4309 8.11016 18.3534 7.87716C18.276 7.64416 18.248 7.39758 18.2712 7.15315L18.2703 7.15981C18.2489 6.91088 18.2783 6.66019 18.3567 6.42297C18.4352 6.18575 18.561 5.96696 18.7267 5.7799L18.725 5.78156C18.8999 5.62865 19.1044 5.51337 19.3257 5.44288C19.5471 5.37239 19.7806 5.34821 20.0117 5.37184L20.005 5.371H20.8211V6.123H20.0217C19.9047 6.10793 19.7858 6.11885 19.6735 6.15498C19.5613 6.19111 19.4583 6.25157 19.3721 6.33203L19.3729 6.3312C19.1949 6.55922 19.1084 6.84554 19.1306 7.134V7.12983C19.104 7.42619 19.1873 7.72197 19.3646 7.96095L19.3621 7.95761C19.5276 8.09291 19.7396 8.15807 19.9525 8.13916H19.9492H20.3273L21.519 5.36601H22.7848L24.2114 8.69712V5.36601H25.4947L26.9754 7.82104V5.36601H27.8414V8.89033H26.6389L25.04 6.24376V8.89033L25.0416 8.89615ZM22.1277 5.96644L21.5473 7.37217H22.7107L22.1277 5.96644ZM13.9674 8.89449H13.1246V5.36851H15.0633C15.4172 5.33178 15.7744 5.39194 16.0968 5.54256L16.0843 5.53756C16.2139 5.60924 16.3219 5.71431 16.3972 5.84186C16.4725 5.96942 16.5122 6.1148 16.5123 6.26291L16.5107 6.3212V6.31871V6.34452C16.5107 6.53686 16.4553 6.72512 16.351 6.88672C16.2467 7.04833 16.098 7.1764 15.9227 7.25558L15.9161 7.25808C16.0834 7.32137 16.2242 7.42297 16.3316 7.55288L16.3333 7.55455C16.4521 7.7499 16.5011 7.97978 16.4724 8.20661L16.4732 8.20162V8.89366H15.6229L15.6196 8.44895V8.38233C15.6498 8.16489 15.6017 7.94378 15.4838 7.75858L15.4863 7.76274C15.3981 7.69795 15.298 7.65126 15.1916 7.62539C15.0853 7.59952 14.9749 7.59497 14.8668 7.61201L14.8718 7.61118H13.9682V8.89366L13.9674 8.89449ZM13.9674 6.10218V6.88499H14.99C15.1345 6.90067 15.2804 6.87466 15.4106 6.81005L15.4064 6.81171C15.4597 6.77928 15.5038 6.73368 15.5345 6.67928C15.5651 6.62488 15.5812 6.56351 15.5813 6.50108L15.5804 6.47777V6.4786C15.5847 6.41532 15.5703 6.35219 15.5391 6.29699C15.5079 6.24179 15.4611 6.19694 15.4047 6.16797L15.4031 6.16714C15.2763 6.11277 15.1383 6.08991 15.0008 6.10052H15.0033L13.9674 6.10218ZM5.0433 8.89449H3.33111L3.00716 8.10835H1.25167L0.925217 8.89449H0.00916056L1.51899 5.36851H2.77065L4.20386 8.70545V5.36851H5.57878L6.68138 7.75941L7.69487 5.36851H9.0981V8.89282H8.23201L8.23035 6.13466L7.00866 8.89366H6.26915L5.04414 6.1305V8.89366L5.0433 8.89449ZM2.12525 5.96644L1.55147 7.37217H2.70237L2.12525 5.96644ZM17.8548 8.89366H16.9953V5.36851H17.8556V8.89282L17.8548 8.89366ZM12.5366 8.89366H9.72685V5.36851H12.5416V6.10135H10.5696V6.73676H12.4942V7.46044H10.568V8.16498H12.54V8.89282L12.5366 8.89366Z" fill="#333333"/>
</svg>
