<svg width="105" height="185" viewBox="0 0 105 185" fill="none" xmlns="http://www.w3.org/2000/svg">
    <path d="M84.93 4.725C86.823 1.891 89.974 0 93.908 0c6.148 0 10.872 4.725 10.872 10.868 0 6.144-4.724 10.712-10.872 10.712-4.25 0-7.716-2.205-9.448-5.513-.948 1.573-2.05 4.096-2.84 6.144l-1.102-.788c.16-4.568.948-11.972 4.412-16.698zM3.406 151.549c4.493-8.869 12.097-8.869 16.013-5.068 6.221 5.878 3.225 16.244-7.603 18.433-4.606.921-11.518 2.762-11.405 7.254-1.265-8.06.576-15.778 2.995-20.619zM3.983 51.215c0-28.11 18.202-35.366 32.486-36.864-5.646 1.498-10.022 9.678-10.022 20.157v29.265c0 5.875-.116 19.58 4.494 23.266C17.807 83.353 3.983 75.636 3.983 51.215zM58.41 87.039c4.608-3.686 4.492-17.391 4.492-23.266V34.508c0-10.479-4.375-18.659-10.02-20.157 14.281 1.498 32.484 8.754 32.484 36.864 0 24.42-13.826 32.138-26.956 35.824zM81.975 159.728c-20.048-12.438-37.79-22.578-61.057-36.171-3.918-2.302-5.299-4.838-2.42-9.446l14.63-21.08c-2.074 3.34.343 7.488 7.142 11.404 13.133 7.602 20.849 11.75 39.513 22.12 21.079 11.749 26.609 35.362 18.43 57.94 1.269-8.523-7.715-19.469-16.238-24.767z" fill="#333"/>
</svg>
