<?xml version="1.0" encoding="UTF-8" standalone="no"?>
<svg
   xmlns:dc="http://purl.org/dc/elements/1.1/"
   xmlns:cc="http://creativecommons.org/ns#"
   xmlns:rdf="http://www.w3.org/1999/02/22-rdf-syntax-ns#"
   xmlns:svg="http://www.w3.org/2000/svg"
   xmlns="http://www.w3.org/2000/svg"
   xmlns:sodipodi="http://sodipodi.sourceforge.net/DTD/sodipodi-0.dtd"
   xmlns:inkscape="http://www.inkscape.org/namespaces/inkscape"
   version="1.1"
   id="svg2"
   xml:space="preserve"
   width="552"
   height="263.82666"
   viewBox="0 0 552 263.82666"
   sodipodi:docname="Gifts for Good logo PMS 426u.eps"><metadata
     id="metadata8"><rdf:RDF><cc:Work
         rdf:about=""><dc:format>image/svg+xml</dc:format><dc:type
           rdf:resource="http://purl.org/dc/dcmitype/StillImage" /></cc:Work></rdf:RDF></metadata><defs
     id="defs6" /><sodipodi:namedview
     pagecolor="#ffffff"
     bordercolor="#666666"
     borderopacity="1"
     objecttolerance="10"
     gridtolerance="10"
     guidetolerance="10"
     inkscape:pageopacity="0"
     inkscape:pageshadow="2"
     inkscape:window-width="640"
     inkscape:window-height="480"
     id="namedview4" /><g
     id="g10"
     inkscape:groupmode="layer"
     inkscape:label="ink_ext_XXXXXX"
     transform="matrix(1.3333333,0,0,-1.3333333,0,263.82667)"><g
       id="g12"
       transform="scale(0.1)"><path
         d="m 2380.87,1943.22 c 14.2,21.26 37.83,35.44 67.34,35.44 46.11,0 81.54,-35.44 81.54,-81.51 0,-46.08 -35.43,-80.34 -81.54,-80.34 -31.88,0 -57.87,16.54 -70.86,41.35 -7.11,-11.8 -15.37,-30.72 -21.3,-46.08 l -8.27,5.91 c 1.2,34.26 7.11,89.79 33.09,125.23"
         style="fill:#252122;fill-opacity:1;fill-rule:nonzero;stroke:none"
         id="path14" /><path
         d="m 1992.97,276.879 c 11.52,0 18.93,-3.078 22.17,-9.199 0,-11.731 -3.24,-17.578 -9.75,-17.578 -2.51,0 -4.91,1.328 -7.15,4.046 -2.25,2.704 -4.6,5.461 -7.03,8.25 -2.45,2.782 -5.11,4.204 -7.98,4.204 -5.78,0 -11.91,-5.93 -18.4,-17.731 -6.48,-11.793 -11.54,-28.25 -15.15,-49.359 v -0.532 c 0,-0.742 0.28,-1.07 0.82,-1.07 h 31.11 c 0.9,0 1.34,-1.101 1.34,-3.25 0,-2.879 -0.98,-5.941 -2.97,-9.199 h -31.65 c -0.89,0 -1.44,-0.742 -1.61,-2.16 l -14.88,-80.86 C 1927.51,77.3711 1919.9,58.2695 1909,45.0898 c -10.91,-13.1406 -22.78,-19.7304 -35.58,-19.7304 -6.3,0 -11.25,1.1289 -14.86,3.3789 -3.61,2.2422 -5.96,4.8203 -7.04,7.7031 -0.19,4.1484 0.82,7.8477 2.99,11.0899 2.16,3.25 4.87,4.8671 8.1,4.8671 1.61,0 3.15,-0.8476 4.6,-2.5703 1.45,-1.7187 2.71,-3.6093 3.77,-5.6562 1.1,-2.1016 2.67,-4 4.75,-5.7031 2.07,-1.6875 4.36,-2.5704 6.89,-2.5704 3.43,0 6.86,2.1329 10.28,6.3633 3.42,4.2383 6.36,9.5391 8.79,15.9766 2.44,6.3711 4.5,12.4609 6.22,18.2305 1.72,5.7812 2.93,10.9023 3.65,15.4101 l 16.22,91.6721 v 0.551 c 0,0.918 -0.27,1.359 -0.81,1.359 h -17.57 c -0.36,0 -0.55,0.277 -0.55,0.82 0,1.617 1.45,3.949 4.32,7.008 2.9,3.07 5.78,4.621 8.68,4.621 h 7.83 c 0.71,0 1.26,0.801 1.61,2.442 3.61,22.16 11.38,40.468 23.26,54.859 11.91,14.449 24.71,21.668 38.42,21.668"
         style="fill:#252122;fill-opacity:1;fill-rule:nonzero;stroke:none"
         id="path16" /><path
         d="m 2095.95,194.379 c -9.03,0 -17.23,-7.07 -24.62,-21.238 -7.39,-14.153 -11.09,-28.34 -11.09,-42.582 0,-10.438 1.66,-18.571 5.02,-24.34 3.32,-5.77 7.51,-8.6487 12.58,-8.6487 9,0 16.98,7.0777 23.93,21.2307 6.92,14.168 10.41,28.429 10.41,42.859 0,10.641 -1.45,18.75 -4.32,24.32 -2.9,5.59 -6.87,8.399 -11.91,8.399 z m 3.23,11.09 c 10.64,0 18.9,-3.699 24.76,-11.09 5.85,-7.391 8.79,-17.59 8.79,-30.559 0,-18.558 -6.55,-36.109 -19.6,-52.601 -13.09,-16.5081 -26.47,-24.7307 -40.16,-24.7307 -10.84,0 -19.08,3.5 -24.75,10.543 -5.69,7.0277 -8.52,17.0387 -8.52,30.0077 0,18.75 6.48,36.531 19.47,53.281 12.98,16.77 26.33,25.149 40.01,25.149"
         style="fill:#252122;fill-opacity:1;fill-rule:nonzero;stroke:none"
         id="path18" /><path
         d="m 2244.09,205.469 c 2.87,0 5.14,-1.297 6.76,-3.91 1.62,-2.629 2.43,-6.008 2.43,-10.161 0,-3.968 -0.55,-8.738 -1.61,-14.32 l -4.35,-22.719 c 4.52,10.629 11.23,21.801 20.16,33.539 8.92,11.711 16.46,17.571 22.58,17.571 6.13,0 11.08,-2.899 14.88,-8.66 0,-12.09 -3.36,-18.129 -10.01,-18.129 -1.44,0 -3.16,1.129 -5.14,3.398 -2,2.242 -4.06,3.383 -6.22,3.383 -5.22,0 -13.03,-7.84 -23.4,-23.531 -10.38,-15.68 -16.9,-30.93 -19.6,-45.719 l -5.13,-28.3829 c -3.09,-0.5468 -6.05,-0.7968 -8.95,-0.7968 -3.41,0 -6.75,0.25 -9.98,0.7968 l 16.21,83.2929 c 0.91,6.5 1.35,10.098 1.35,10.84 0,4.488 -0.9,6.758 -2.69,6.758 -0.73,0 -1.71,-0.43 -2.97,-1.219 -1.28,-0.82 -2.58,-1.852 -3.93,-3.109 -1.36,-1.282 -2.58,-2.43 -3.65,-3.52 -1.09,-1.109 -2.54,-2.711 -4.32,-4.883 -0.39,0 -1.06,0.832 -2.04,2.563 -0.98,1.719 -1.49,2.937 -1.49,3.66 2.17,3.598 6.72,8.391 13.67,14.34 6.92,5.929 12.73,8.918 17.44,8.918"
         style="fill:#252122;fill-opacity:1;fill-rule:nonzero;stroke:none"
         id="path20" /><path
         d="m 0,164.73 c 0,46.989 15.7227,87.282 47.1484,120.86 31.4219,33.57 69.9606,50.359 115.6216,50.359 23.492,0 62.699,-7.437 117.617,-22.34 1.316,-37.687 1.992,-58.218 1.992,-61.519 0,-4.969 -3.488,-7.449 -10.438,-7.449 -3.293,0 -5.453,0.839 -6.445,2.48 -8.914,45.34 -42.676,68 -101.238,68 -33.086,0 -60.711,-14.062 -82.8752,-42.18 -22.168,-28.14 -33.2461,-62.031 -33.2461,-101.73 0,-36.742 12.1641,-70.582 36.4766,-101.5118 24.3127,-30.9101 54.8357,-46.3984 91.5707,-46.3984 29.093,0 50.609,3.6484 64.504,10.9375 2.308,0.9805 3.484,3.4609 3.484,7.4531 l -0.5,40.6797 v 3.4883 c 0,21.4926 -1.328,35.7186 -3.969,42.6526 -1.324,3.316 -6.695,5.957 -16.144,7.949 -9.422,1.988 -16.797,2.961 -22.082,2.961 -1.325,0 -1.973,2.09 -1.973,6.207 0,4.141 0.648,6.883 1.973,8.199 42.363,-1.656 64.019,-2.469 65.011,-2.469 2.645,0 20.508,0.813 53.61,2.469 0.648,-1.976 0.988,-4.308 0.988,-6.93 0,-4.976 -0.672,-7.476 -1.992,-7.476 -1.977,0 -6.531,-1.043 -13.645,-3.211 -7.121,-2.16 -12.152,-4.051 -15.136,-5.699 -3.317,-2.34 -4.954,-13.403 -4.954,-33.262 0,-6.9414 0.25,-14.4609 0.735,-22.5586 0.504,-8.1328 0.754,-12.5117 0.754,-13.1601 0,-5.9532 1.156,-11.7422 3.465,-17.3594 2.308,-5.6328 3.48,-8.9531 3.48,-9.9336 0,-2.668 -4.152,-5.6485 -12.402,-8.9297 -0.672,-0.3203 -3.903,-1.5898 -9.676,-3.7305 -5.793,-2.1484 -9.531,-3.5586 -11.168,-4.2187 -1.66,-0.6485 -5.402,-1.9102 -11.168,-3.7188 -5.793,-1.832 -10.434,-3.0625 -13.895,-3.73044 C 231.996,9.23828 227.047,8.26953 220.602,6.92969 214.137,5.62109 208.004,4.69922 202.23,4.19922 196.438,3.71094 189.656,3.23047 181.891,2.73047 174.102,2.21875 165.914,1.96875 157.309,1.96875 113.648,1.96875 76.5156,18.0195 45.9063,50.1289 15.2969,82.1992 0,120.41 0,164.73"
         style="fill:#252122;fill-opacity:1;fill-rule:nonzero;stroke:none"
         id="path22" /><path
         d="m 492.191,264.488 c 0,20.524 -1.156,35.223 -3.464,44.184 -0.989,2.637 -5.715,5.027 -14.149,7.187 -8.433,2.172 -14.805,3.211 -19.098,3.211 -1.332,0 -2.003,2.168 -2.003,6.461 0,3.981 0.671,6.617 2.003,7.938 38.032,-1.66 57.887,-2.481 59.543,-2.481 5.293,0 24.481,0.821 57.567,2.481 0.672,-1.969 0.984,-4.449 0.984,-7.43 0,-4.66 -0.648,-6.969 -1.972,-6.969 -3.321,0 -9.282,-1.129 -17.864,-3.461 -8.609,-2.328 -13.246,-4.648 -13.898,-6.937 -2.981,-11.602 -4.473,-26.953 -4.473,-46.152 V 73.9297 c 0,-19.1914 1.492,-34.5703 4.473,-46.1406 0.652,-2.3282 5.289,-4.5782 13.898,-6.7188 8.582,-2.1406 14.543,-3.2305 17.864,-3.2305 1.324,0 1.972,-2.4804 1.972,-7.4296 0,-2.64848 -0.312,-4.94926 -0.984,-6.94926 -33.086,1.66015 -52.274,2.48828 -57.567,2.48828 -1.656,0 -21.511,-0.82813 -59.543,-2.48828 -1.332,1.32031 -2.003,3.80078 -2.003,7.46096 0,4.6094 0.671,6.9179 2.003,6.9179 4.293,0 10.665,1.0196 19.098,2.9805 8.434,2 13.16,4.3008 14.149,6.9688 2.308,8.9218 3.464,23.6406 3.464,44.1601 V 264.488"
         style="fill:#252122;fill-opacity:1;fill-rule:nonzero;stroke:none"
         id="path24" /><path
         d="m 774.945,330.488 c 14.903,0 40.707,0.672 77.418,1.992 36.735,1.34 64.36,2 82.875,2 1.325,-9.621 3.907,-22.25 7.707,-37.968 3.797,-15.723 6.02,-25.563 6.696,-29.543 -1.661,-1.641 -4.641,-2.481 -8.922,-2.481 -4.328,0 -6.633,1.16 -6.949,3.5 -4.977,18.172 -11.922,29.84 -20.844,34.961 -8.942,5.121 -21.184,7.711 -36.738,7.711 h -33.25 c -28.442,0 -43.004,-2.172 -43.665,-6.449 -1.656,-7.949 -2.476,-21.852 -2.476,-41.691 v -80.899 c 0,-1.973 6.953,-2.992 20.848,-2.992 h 26.3 c 22.149,0 35.727,1.582 40.684,4.73 4.949,3.121 9.258,12.161 12.91,27.063 0.313,1.969 0.652,3.457 0.984,4.449 0.332,2.32 2.817,3.488 7.454,3.488 3.968,0 6.757,-0.847 8.437,-2.48 V 119.59 c -1.344,-1.328 -3.984,-1.988 -7.953,-1.988 -4.309,0 -6.949,1.328 -7.938,3.976 -2.308,8.934 -4.3,15.621 -5.96,20.094 -1.661,4.469 -2.899,7.117 -3.715,7.969 -0.821,0.789 -2.227,1.871 -4.219,3.199 -4.301,2.648 -21.832,3.969 -52.602,3.969 -23.492,0 -35.23,-1.5 -35.23,-4.457 V 73.9297 c 0,-19.1914 1.496,-34.5703 4.453,-46.1406 0.676,-2.3282 5.293,-4.5782 13.895,-6.7188 8.605,-2.1406 14.566,-3.2305 17.867,-3.2305 1.32,0 1.992,-2.4804 1.992,-7.4296 0,-2.64848 -0.336,-4.94926 -0.984,-6.94926 -33.082,1.66015 -52.29,2.48828 -57.579,2.48828 -1.668,0 -21.5,-0.82813 -59.554,-2.48828 -1.324,1.32031 -1.977,3.80078 -1.977,7.46096 0,4.6094 0.653,6.9179 1.977,6.9179 4.301,0 10.679,1.0196 19.125,2.9805 8.429,2 13.136,4.3008 14.125,6.9688 2.304,8.9218 3.48,23.8125 3.48,44.6523 V 263.512 c 0,19.508 -1.176,33.718 -3.48,42.679 -0.989,2.637 -5.879,5.118 -14.633,7.418 -8.774,2.321 -15.305,3.493 -19.606,3.493 -1.324,0 -1.976,1.968 -1.976,5.949 0,4.289 0.652,7.097 1.976,8.449 17.211,-0.672 36.879,-1.012 59.047,-1.012"
         style="fill:#252122;fill-opacity:1;fill-rule:nonzero;stroke:none"
         id="path26" /><path
         d="m 1179.56,331.5 c 22.65,-0.672 41.27,-1.012 55.84,-1.012 14.55,0 33.25,0.34 56.06,1.012 22.85,0.648 40.54,0.98 53.12,0.98 8.25,0 19.66,1.829 34.23,5.469 l 9.43,-70.98 c -2.31,-2.309 -6.3,-3.457 -11.9,-3.457 -2.99,0 -4.64,0.808 -4.98,2.468 -4.64,18.54 -10.32,30.532 -17.11,35.981 -6.8,5.461 -19.6,8.187 -38.45,8.187 -35.08,0 -53.28,-2.476 -54.6,-7.449 -2.98,-10.578 -4.47,-27.121 -4.47,-49.629 V 73.9297 c 0,-19.1914 1.49,-34.5703 4.47,-46.1406 0.65,-2.3282 5.29,-4.5782 13.89,-6.7188 8.61,-2.1406 14.55,-3.2305 17.86,-3.2305 1.33,0 2,-2.4804 2,-7.4296 0,-2.64848 -0.33,-4.94926 -1,-6.94926 -33.09,1.66015 -52.28,2.48828 -57.56,2.48828 -1.66,0 -21.52,-0.82813 -59.56,-2.48828 -1.32,1.32031 -1.97,3.80078 -1.97,7.46096 0,4.6094 0.65,6.9179 1.97,6.9179 4.31,0 10.67,1.0196 19.1,2.9805 8.45,2 13.17,4.3008 14.15,6.9688 2.31,8.9218 3.46,23.6406 3.46,44.1601 V 251.609 c 0,28.762 -1.46,45.801 -4.44,51.09 -2.67,4.973 -20.53,7.449 -53.6,7.449 -18.87,0 -31.69,-2.726 -38.47,-8.187 -6.79,-5.449 -12.49,-17.441 -17.11,-35.981 -0.34,-1.66 -2,-2.468 -4.98,-2.468 -5.62,0 -9.59,1.148 -11.9,3.457 l 9.43,70.98 c 14.55,-3.64 25.96,-5.469 34.23,-5.469 12.58,0 30.19,-0.332 52.86,-0.98"
         style="fill:#252122;fill-opacity:1;fill-rule:nonzero;stroke:none"
         id="path28" /><path
         d="m 1533.04,248.121 c 0,25.488 9.76,46.391 29.28,62.77 19.53,16.371 42.18,24.578 67.99,24.578 7.27,0 14.13,-0.418 20.6,-1.231 6.44,-0.847 11.73,-1.758 15.87,-2.738 4.13,-1.012 10.1,-2.57 17.86,-4.719 7.79,-2.172 14.65,-3.89 20.59,-5.211 3.99,-17.531 5.97,-41.199 5.97,-70.98 0,-2.301 -1.66,-3.469 -4.96,-3.469 -7.95,0 -12.26,1.68 -12.91,4.969 -1.66,14.551 -8.69,28.699 -21.09,42.422 -12.41,13.726 -27.55,20.609 -45.41,20.609 -19.84,0 -33.82,-4.973 -41.92,-14.902 -8.12,-9.91 -12.18,-22.168 -12.18,-36.707 0,-6.293 1.16,-12.332 3.49,-18.121 2.31,-5.789 4.62,-10.582 6.95,-14.411 2.31,-3.789 6.53,-8.171 12.66,-13.128 6.1,-4.954 10.58,-8.442 13.39,-10.411 2.81,-1.992 8.44,-5.632 16.88,-10.921 8.44,-5.309 13.81,-8.598 16.12,-9.95 1.66,-0.968 7.45,-4.531 17.38,-10.648 9.91,-6.141 16.69,-10.422 20.34,-12.891 3.63,-2.492 9.34,-6.98 17.11,-13.39 7.79,-6.481 13.41,-12.18 16.88,-17.141 3.48,-4.949 6.77,-11.16 9.92,-18.621 3.15,-7.457 4.72,-15.1407 4.72,-23.0704 0,-26.4805 -10.34,-48.2383 -31.02,-65.2695 C 1676.88,8.5 1652.65,0 1624.86,0 c -7.96,0 -16.37,0.578125 -25.32,1.71875 -8.94,1.17969 -16.37,2.33203 -22.33,3.49219 -5.96,1.14844 -13.48,2.80859 -22.59,4.94926 -9.09,2.1406 -15.45,3.5703 -19.11,4.2187 -8.26,40.7109 -12.4,66.9922 -12.4,78.9024 0,1.9804 2.64,2.9882 7.95,2.9882 5.95,0 10.08,-1.4882 12.42,-4.4804 11.23,-47.6172 38.7,-71.4493 82.36,-71.4493 16.55,0 30.61,4.9688 42.18,14.879 11.58,9.9296 17.38,23.9804 17.38,42.2031 0,6.5898 -0.99,12.707 -2.98,18.3398 -2,5.6173 -4.06,10.2503 -6.21,13.9103 -2.15,3.637 -5.95,7.508 -11.41,11.668 -5.45,4.109 -9.67,7.172 -12.65,9.172 -2.98,1.988 -8.44,5.136 -16.37,9.418 -7.97,4.308 -13.42,7.281 -16.39,8.941 -9.6,5.629 -16.3,9.59 -20.1,11.91 -3.8,2.328 -10.1,6.36 -18.86,12.149 -8.77,5.789 -15.13,10.922 -19.1,15.41 -3.98,4.441 -8.6,9.898 -13.89,16.359 -5.31,6.461 -9.02,13.321 -11.17,20.582 -2.16,7.289 -3.23,14.899 -3.23,22.84"
         style="fill:#252122;fill-opacity:1;fill-rule:nonzero;stroke:none"
         id="path30" /><path
         d="m 2444.07,164.73 c 0,46.989 15.72,87.282 47.16,120.86 31.43,33.57 69.96,50.359 115.62,50.359 23.48,0 62.7,-7.437 117.61,-22.34 1.32,-37.687 2,-58.218 2,-61.519 0,-4.969 -3.48,-7.449 -10.43,-7.449 -3.31,0 -5.46,0.839 -6.45,2.48 -8.93,45.34 -42.68,68 -101.24,68 -33.09,0 -60.71,-14.062 -82.88,-42.18 -22.16,-28.14 -33.25,-62.031 -33.25,-101.73 0,-36.742 12.17,-70.582 36.49,-101.5118 24.31,-30.9101 54.83,-46.3984 91.56,-46.3984 29.1,0 50.61,3.6484 64.51,10.9375 2.31,0.9805 3.48,3.4609 3.48,7.4531 l -0.5,40.6797 v 3.4883 c 0,21.4926 -1.32,35.7186 -3.97,42.6526 -1.32,3.316 -6.7,5.957 -16.14,7.949 -9.43,1.988 -16.79,2.961 -22.09,2.961 -1.32,0 -1.97,2.09 -1.97,6.207 0,4.141 0.65,6.883 1.97,8.199 42.37,-1.656 64.03,-2.469 65.02,-2.469 2.64,0 20.5,0.813 53.61,2.469 0.64,-1.976 0.99,-4.308 0.99,-6.93 0,-4.976 -0.68,-7.476 -2,-7.476 -1.97,0 -6.53,-1.043 -13.64,-3.211 -7.12,-2.16 -12.16,-4.051 -15.14,-5.699 -3.32,-2.34 -4.96,-13.403 -4.96,-33.262 0,-6.9414 0.26,-14.4609 0.75,-22.5586 0.49,-8.1328 0.75,-12.5117 0.75,-13.1601 0,-5.9532 1.15,-11.7422 3.46,-17.3594 2.32,-5.6328 3.48,-8.9531 3.48,-9.9336 0,-2.668 -4.15,-5.6485 -12.39,-8.9297 -0.68,-0.3203 -3.92,-1.5898 -9.68,-3.7305 -5.8,-2.1484 -9.54,-3.5586 -11.18,-4.2187 -1.65,-0.6485 -5.39,-1.9102 -11.16,-3.7188 -5.79,-1.832 -10.43,-3.0625 -13.9,-3.73044 -3.48,-0.67188 -8.44,-1.64063 -14.88,-2.98047 -6.47,-1.3086 -12.6,-2.23047 -18.37,-2.73047 -5.79,-0.48828 -12.57,-0.96875 -20.33,-1.46875 -7.8,-0.51172 -15.98,-0.76172 -24.59,-0.76172 -43.67,0 -80.79,16.05075 -111.4,48.16015 -30.61,32.0703 -45.92,70.2811 -45.92,114.6011"
         style="fill:#252122;fill-opacity:1;fill-rule:nonzero;stroke:none"
         id="path32" /><path
         d="m 3051.41,315.121 c -31.43,0 -56.26,-13.73 -74.44,-41.18 -18.2,-27.48 -27.29,-59.242 -27.29,-95.312 0,-26.457 4.28,-51.43 12.89,-74.93 8.61,-23.4685 22,-43.0779 40.2,-58.8006 18.2,-15.7187 39.52,-23.5703 64.03,-23.5703 21.16,0 39.68,6.8633 55.57,20.5938 15.88,13.7265 27.55,30.7695 34.98,51.1094 7.45,20.3667 11.17,42.1097 11.17,65.2697 0,26.461 -4.3,51.371 -12.89,74.679 -8.6,23.329 -22.03,42.848 -40.2,58.551 -18.2,15.719 -39.54,23.59 -64.02,23.59 z M 2946.96,49.1211 c -30.95,32.7383 -46.42,72.2889 -46.42,118.5979 0,46.312 15.47,85.941 46.42,118.859 30.91,32.91 68.22,49.371 111.9,49.371 43.66,0 81.04,-16.461 112.14,-49.371 31.11,-32.918 46.66,-72.547 46.66,-118.859 0,-46.309 -15.55,-85.8596 -46.66,-118.5979 C 3139.9,16.3711 3102.52,0 3058.86,0 c -43.68,0 -80.99,16.3711 -111.9,49.1211"
         style="fill:#252122;fill-opacity:1;fill-rule:nonzero;stroke:none"
         id="path34" /><path
         d="m 3514.31,315.121 c -31.42,0 -56.25,-13.73 -74.43,-41.18 -18.2,-27.48 -27.29,-59.242 -27.29,-95.312 0,-26.457 4.28,-51.43 12.89,-74.93 8.61,-23.4685 22,-43.0779 40.19,-58.8006 18.21,-15.7187 39.54,-23.5703 64.04,-23.5703 21.16,0 39.68,6.8633 55.57,20.5938 15.88,13.7265 27.55,30.7695 34.98,51.1094 7.45,20.3667 11.17,42.1097 11.17,65.2697 0,26.461 -4.31,51.371 -12.89,74.679 -8.61,23.329 -22.03,42.848 -40.2,58.551 -18.2,15.719 -39.54,23.59 -64.03,23.59 z M 3409.86,49.1211 c -30.94,32.7383 -46.41,72.2889 -46.41,118.5979 0,46.312 15.47,85.941 46.41,118.859 30.92,32.91 68.23,49.371 111.91,49.371 43.66,0 81.04,-16.461 112.14,-49.371 31.1,-32.918 46.66,-72.547 46.66,-118.859 0,-46.309 -15.56,-85.8596 -46.66,-118.5979 C 3602.81,16.3711 3565.43,0 3521.77,0 c -43.68,0 -80.99,16.3711 -111.91,49.1211"
         style="fill:#252122;fill-opacity:1;fill-rule:nonzero;stroke:none"
         id="path36" /><path
         d="M 3904.28,270.461 V 73.9297 c 0,-13.8906 2.47,-26.4688 7.43,-37.6992 1.32,-3.3203 10.18,-5.7891 26.55,-7.4414 16.38,-1.668 29.03,-2.5 37.98,-2.5 76.09,0 114.13,49.1328 114.13,147.3909 0,37.699 -10.02,69.8 -30.02,96.269 -20.03,26.473 -49.23,39.723 -87.61,39.723 h -2.47 c -35.73,0 -55.58,-2.672 -59.55,-7.961 -4.29,-5.941 -6.44,-16.371 -6.44,-31.25 z m -21.84,60.027 c 12.56,0 28.53,0.172 47.88,0.5 19.36,0.352 32.19,0.512 38.47,0.512 53.92,0 95.95,-15.891 126.05,-47.648 30.1,-31.762 45.16,-69.153 45.16,-112.141 0,-47.981 -15.22,-88.0196 -45.66,-120.1094 -30.43,-32.0821 -72.45,-48.14066 -126.06,-48.14066 -3.96,0 -15.78,0.33984 -35.48,0.98828 -19.68,0.67187 -36.14,0.83984 -49.37,0.51172 l -60.06,-1.5 c -0.98,0.98828 -1.49,3.46875 -1.49,7.46096 0,4.6094 0.51,6.9179 1.49,6.9179 4.31,0 10.69,1.1797 19.13,3.4883 8.42,2.3125 13.48,4.961 15.14,7.9336 2.31,3.9883 3.46,19.5274 3.46,46.6485 V 263.512 c 0,19.508 -1.15,33.718 -3.46,42.679 -1.02,2.637 -5.88,5.118 -14.66,7.418 -8.77,2.321 -15.3,3.493 -19.61,3.493 -1.32,0 -1.97,1.968 -1.97,5.949 0,4.289 0.65,7.097 1.97,8.449 17.23,-0.672 36.9,-1.012 59.07,-1.012"
         style="fill:#252122;fill-opacity:1;fill-rule:nonzero;stroke:none"
         id="path38" /><path
         d="m 1769.44,842.039 c 33.7,66.52 90.73,66.52 120.1,38.012 46.66,-44.082 24.19,-121.832 -57.02,-138.25 -34.55,-6.903 -86.39,-20.711 -85.54,-54.403 -9.49,60.454 4.32,118.34 22.46,154.641"
         style="fill:#252122;fill-opacity:1;fill-rule:nonzero;stroke:none"
         id="path40" /><path
         d="m 1773.77,1594.55 c 0,210.82 136.51,265.24 243.64,276.48 -42.34,-11.24 -75.16,-72.59 -75.16,-151.18 0,-23.35 0,-188.37 0,-219.49 0,-44.06 -0.87,-146.85 33.7,-174.49 -98.5,27.64 -202.18,85.52 -202.18,268.68"
         style="fill:#252122;fill-opacity:1;fill-rule:nonzero;stroke:none"
         id="path42" /><path
         d="m 2181.97,1325.87 c 34.56,27.64 33.69,130.43 33.69,174.49 0,31.12 0,196.14 0,219.49 0,78.59 -32.81,139.94 -75.15,151.18 107.11,-11.24 243.63,-65.66 243.63,-276.48 0,-183.16 -103.69,-241.04 -202.17,-268.68"
         style="fill:#252122;fill-opacity:1;fill-rule:nonzero;stroke:none"
         id="path44" /><path
         d="m 2358.71,780.699 c -150.36,93.289 -283.42,169.332 -457.93,271.281 -29.38,17.27 -39.74,36.29 -18.15,70.85 l 109.73,158.09 c -15.56,-25.04 2.57,-56.15 53.56,-85.52 98.5,-57.02 156.37,-88.13 296.35,-165.9 158.09,-88.121 199.57,-265.219 138.23,-434.551 9.51,63.922 -57.87,146.012 -121.79,185.75"
         style="fill:#252122;fill-opacity:1;fill-rule:nonzero;stroke:none"
         id="path46" /></g></g></svg>
