<svg width="276" height="36" viewBox="0 0 276 36" fill="none" xmlns="http://www.w3.org/2000/svg">
<path fill-rule="evenodd" clip-rule="evenodd" d="M20.1221 15.7442C18.6459 15.7442 17.243 15.6296 15.6888 15.5563C15.5008 15.7442 15.5375 16.464 15.6888 16.6566C16.1426 16.6566 18.1507 16.8446 18.2653 17.2618C18.4533 17.8669 18.4533 18.9306 18.4533 20.0676V23.8958C18.4533 24.1617 18.4166 24.3497 18.1874 24.4643C17.0504 25.0328 15.5741 25.6746 13.6027 25.6746C6.97329 25.6746 3.75027 19.6137 3.75027 13.6995C3.75027 8.39499 7.38591 2.67332 12.9976 2.67332C19.3244 2.67332 20.1955 7.02877 20.4247 8.20703C20.5394 8.28497 20.654 8.32165 20.8786 8.32165C21.2591 8.32165 21.7497 8.05573 21.713 7.83108C21.713 7.45056 20.8419 2.22402 20.8419 2.22402C18.0361 1.61884 15.3082 1.42629 12.8096 1.42629C5.34573 1.42629 0 7.41388 0 14.4972C0 21.2046 5.15318 26.9263 12.6583 26.9263C17.6602 26.9263 19.7049 25.8259 21.3371 24.9549C21.9835 24.6156 22.0936 24.501 22.0936 24.2717C22.0936 23.8912 21.713 23.5519 21.713 22.7542V20.063C21.713 18.926 21.713 17.8669 21.901 17.2572C22.0156 16.84 23.9091 16.652 24.363 16.652C24.5143 16.464 24.5509 15.7442 24.363 15.5517C22.8133 15.6296 21.5984 15.7442 20.1221 15.7442ZM41.9865 3.31518C42.1011 2.89797 44.1458 2.71 44.5997 2.71C44.751 2.52202 44.7877 1.80223 44.5997 1.60968C43.0455 1.68761 41.6426 1.79765 40.1664 1.79765C38.6901 1.79765 37.2505 1.68303 35.6963 1.60968C35.5083 1.79765 35.545 2.51744 35.6963 2.71C36.1502 2.71 38.1949 2.89797 38.3096 3.31518C38.4975 3.92035 38.4975 4.984 38.4975 6.121V22.3003C38.4975 23.4373 38.4975 24.4964 38.3096 25.1061C38.1949 25.5233 36.1502 25.7113 35.6963 25.7113C35.545 25.8993 35.5083 26.6191 35.6963 26.8116C37.2505 26.7337 38.6901 26.6237 40.1664 26.6237C41.6426 26.6237 43.0455 26.7383 44.5997 26.8116C44.7877 26.6237 44.751 25.9039 44.5997 25.7113C44.1458 25.7113 42.0965 25.5233 41.9865 25.1061C41.7985 24.501 41.7985 23.4373 41.7985 22.3003V6.121C41.7985 4.984 41.7985 3.92035 41.9865 3.31518ZM60.9716 1.79765C59.4953 1.79765 58.0558 1.68303 56.5015 1.60968C56.3136 1.79765 56.3503 2.51744 56.5015 2.71C56.9554 2.71 59.0002 2.89797 59.1148 3.31518C59.3028 3.92035 59.3028 4.984 59.3028 6.121V22.3003C59.3028 23.4373 59.3028 24.4964 59.1148 25.1061C59.0002 25.5233 56.9554 25.7113 56.5015 25.7113C56.3503 25.8993 56.3136 26.6191 56.5015 26.8116C57.9778 26.8116 59.1928 26.6237 60.9716 26.6237C62.4479 26.6237 64.2313 26.7383 65.7855 26.8116C65.9735 26.6237 65.9368 25.9039 65.7855 25.7113C65.3316 25.7113 62.9063 25.5233 62.7917 25.1061C62.6038 24.501 62.6038 23.4373 62.6038 22.3003V15.2124C62.6038 14.8731 64.2726 14.8731 65.3316 14.8731C66.7712 14.8731 68.9306 14.9098 69.3478 15.1757C69.6871 15.405 69.8384 15.515 70.4069 17.679C70.4848 17.8669 70.7461 17.9816 71.0121 17.9816C71.278 17.9816 71.5439 17.9036 71.6172 17.8303V10.669C71.5026 10.5544 71.2367 10.481 70.9708 10.481C70.7049 10.481 70.439 10.559 70.4023 10.7469C69.7559 13.2502 69.8705 13.4748 66.2348 13.4748H64.2267C63.3923 13.4748 62.5992 13.4381 62.5992 13.2456V6.15768C62.5992 5.1353 62.5992 4.07166 62.7871 3.46648C62.9018 3.08595 64.9465 3.04927 65.4004 3.04927H68.6601C70.6682 3.04927 72.2224 3.58109 73.0568 6.61156C73.0935 6.79953 73.3227 6.87746 73.5886 6.87746C73.8545 6.87746 74.1571 6.79954 74.2718 6.68951C73.9325 4.98401 73.4373 3.42979 73.1714 1.53632C69.0406 1.53173 64.5339 1.79765 60.9716 1.79765ZM105.117 1.07785C104.664 1.30709 103.449 1.64636 102.843 1.64636H88.0258C87.4206 1.64636 86.357 1.34377 85.9031 1.11454C85.6738 0.99992 85.2566 0.885303 85.032 0.99992C84.7661 3.3106 84.4635 5.51124 84.0463 7.51933C84.1609 7.63395 84.4268 7.82191 84.7661 7.78524C84.954 7.78524 85.22 7.70729 85.2979 7.59726C85.8297 4.94273 87.0401 2.97591 88.9336 2.97591H93.8208V22.3003C93.8208 23.4373 93.8208 24.4964 93.6329 25.1061C93.5182 25.5233 91.4735 25.7113 91.0196 25.7113C90.8683 25.8993 90.8316 26.6191 91.0196 26.8116C92.5738 26.7337 94.0134 26.6237 95.4896 26.6237C96.9659 26.6237 98.3688 26.7383 99.923 26.8116C100.111 26.6237 100.074 25.9039 99.923 25.7113C99.4691 25.7113 97.4244 25.5233 97.3098 25.1061C97.1218 24.501 97.1218 23.4373 97.1218 22.3003V2.97591H101.936C103.829 2.97591 105.044 4.94732 105.571 7.59726C105.649 7.71188 105.911 7.78524 106.103 7.78524C106.442 7.82191 106.708 7.63395 106.823 7.51933C106.406 5.51124 106.103 3.31518 105.837 0.99992C105.608 0.889887 105.493 0.88988 105.117 1.07785ZM128.275 1.34835C125.313 1.34835 121.801 5.34619 120.614 11.4117H118.876C118.023 11.4117 117.175 12.3011 117.175 12.6679C117.175 12.7413 117.212 12.778 117.249 12.778H120.394L118.175 25.2483C117.028 31.1304 116.286 33.7208 114.846 33.7208C114.328 33.7208 114.03 33.4228 113.773 33.166C113.365 32.7213 112.994 32.3133 112.366 32.3133C111.738 32.3133 111.403 33.0147 111.293 33.7941C111.256 33.9775 111.256 34.2021 111.256 34.3855C111.518 34.8669 112.182 35.3116 113.255 35.3116C116.217 35.3116 119.733 31.1671 120.916 25.097C121.806 20.4344 123.099 12.7734 123.099 12.7734H126.908C127.092 12.4754 127.243 12.2186 127.243 11.8473C127.243 11.6639 127.206 11.4026 127.06 11.4026H123.36C124.506 5.52041 125.249 2.93006 126.688 2.93006C127.206 2.93006 127.504 3.22806 127.761 3.48481C128.169 3.92952 128.541 4.33756 129.169 4.33756C129.87 4.33756 130.205 3.44813 130.278 2.59997V2.26528C130.012 1.78847 129.347 1.34835 128.275 1.34835ZM144.605 10.5956C140.351 10.5956 136.206 16.4044 136.206 21.5851C136.206 24.7669 137.54 26.8758 140.497 26.8758C144.752 26.8758 148.933 21.2137 148.933 16.0331C148.938 12.8559 147.567 10.5956 144.605 10.5956ZM141.203 25.6976C139.869 25.6976 139.094 23.8087 139.094 20.8516C139.094 17.1517 140.983 11.7831 144.092 11.7831C145.426 11.7831 146.054 13.6353 146.054 16.5924C146.049 20.2922 144.275 25.6976 141.203 25.6976ZM170.527 10.5956C168.789 10.5956 166.162 15.1116 165.126 17.5919C165.388 16.3723 165.534 15.703 165.754 14.4835C165.901 13.7041 166.052 12.8192 166.052 12.5212C166.052 11.4117 165.388 10.5956 164.608 10.5956C162.871 10.5956 160.354 13.3694 159.946 14.0754C159.946 14.2955 160.207 14.7769 160.317 14.7769C160.427 14.6668 162.132 12.6312 162.907 12.6312C163.279 12.6312 163.279 13.2227 163.279 13.5573C163.279 13.7407 163.169 14.5201 163.132 14.7402L160.913 26.6924C161.358 26.7658 161.802 26.8025 162.284 26.8025C162.692 26.8025 163.137 26.7658 163.54 26.6924L164.356 22.1765C165.058 18.33 168.166 13.186 169.5 13.186C169.798 13.186 170.091 13.296 170.238 13.484C170.536 13.8187 171.018 14.0387 171.348 14.0387C172.2 14.0387 172.682 13.374 172.682 12.4112C172.682 12.0398 172.498 11.5584 172.347 11.375C172.003 11.0037 171.339 10.5956 170.527 10.5956ZM201.143 10.5956C200.254 10.5956 199.626 11.4117 199.406 12.0398C200.034 12.6679 200.369 13.594 200.369 14.3734C200.369 15.2262 200.369 16.8171 199.851 18.22C198.998 20.5902 197.852 22.1811 195.889 23.882C195.518 23.2906 195.408 21.5118 195.335 19.9209C195.225 17.5873 195.151 14.3322 195.115 12.8146C194.633 12.9247 193.817 13.4794 193.524 13.8508C193.189 14.6302 192.822 15.625 191.933 17.2572C191.268 18.44 189.416 21.5851 187.752 23.364C187.642 22.5892 187.605 21.7731 187.605 20.1822V14.5568V12.5946C187.605 11.4851 186.94 10.5956 186.161 10.5956C184.423 10.5956 181.906 13.3694 181.498 14.0754C181.498 14.2955 181.759 14.7769 181.87 14.7769C181.98 14.6668 183.685 12.6312 184.46 12.6312C184.831 12.6312 184.831 13.2227 184.831 13.5573V21.2183C184.831 22.3278 184.868 26.6191 185.129 26.9171C186.683 26.9171 190.127 22.3278 192.602 18.7747C192.602 18.7747 192.639 20.1822 192.676 21.145C192.712 22.2545 193.157 26.6237 193.414 26.9171C195.967 26.9171 203.184 18.22 203.184 13.5573C203.179 11.8564 202.551 10.5956 201.143 10.5956ZM227.395 22.7359C227.285 22.8459 225.58 24.8815 224.805 24.8815C224.177 24.8815 224.47 23.2173 224.585 22.7725L226.841 11.077C226.139 10.8157 225.25 10.5956 223.952 10.5956C219.436 10.5956 213.371 16.0743 213.371 22.5112C213.371 25.1016 214.668 26.8758 216.663 26.8758C218.808 26.8758 221.362 23.2127 222.105 21.8785C222.068 22.1399 222.031 22.3599 221.921 23.0247C221.775 23.8041 221.66 24.6889 221.66 24.9869C221.66 26.0964 222.141 26.9125 222.916 26.9125C224.654 26.9125 227.359 24.1388 227.762 23.4327C227.762 23.2173 227.505 22.7359 227.395 22.7359ZM223.177 16.5557C222.476 20.1088 219.849 24.7348 217.997 24.7348C216.699 24.7348 216.108 23.4006 216.108 21.1083C216.108 16.8537 219.4 12.0811 222.251 12.0811C222.733 12.0811 223.622 12.2645 223.952 12.6358L223.177 16.5557ZM249.168 10.5956C247.43 10.5956 244.803 15.1116 243.767 17.5919C244.029 16.3723 244.175 15.703 244.395 14.4835C244.542 13.7041 244.693 12.8192 244.693 12.5212C244.693 11.4117 244.029 10.5956 243.249 10.5956C241.512 10.5956 238.995 13.3694 238.587 14.0754C238.587 14.2955 238.848 14.7769 238.958 14.7769C239.068 14.6668 240.773 12.6312 241.548 12.6312C241.92 12.6312 241.92 13.2227 241.92 13.5573C241.92 13.7407 241.81 14.5201 241.773 14.7402L239.554 26.6924C239.999 26.7658 240.443 26.8025 240.925 26.8025C241.333 26.8025 241.777 26.7658 242.181 26.6924L242.997 22.1765C243.698 18.33 246.807 13.186 248.141 13.186C248.439 13.186 248.732 13.296 248.879 13.484C249.177 13.8187 249.659 14.0387 249.989 14.0387C250.841 14.0387 251.323 13.374 251.323 12.4112C251.323 12.0398 251.139 11.5584 250.988 11.375C250.649 11.0037 249.984 10.5956 249.168 10.5956ZM274.902 4.82354C275.085 3.89743 275.383 2.34322 275.383 2.0498C275.383 1.82974 275.346 1.45838 275.163 1.34835C274.347 1.64635 272.311 2.38448 270.28 2.56787C270.134 2.71458 270.019 3.19598 270.134 3.34727C270.725 3.34727 272.389 3.34727 272.389 4.04873C272.389 4.45676 272.169 5.34619 272.055 6.01097L271.202 10.6002C271.161 10.6002 271.152 10.6002 271.156 10.6002C271.083 10.6002 270.954 10.6002 270.721 10.6002C265.911 10.6002 260.212 16.597 260.212 22.4058C260.212 24.5514 261.175 26.885 263.468 26.885C265.687 26.885 268.392 22.9972 268.946 21.8877C268.91 22.149 268.91 22.3324 268.763 23.0339C268.616 23.8133 268.502 24.6981 268.502 24.9961C268.502 26.1056 268.983 26.9217 269.758 26.9217C271.495 26.9217 274.2 24.1479 274.604 23.4419C274.604 23.2218 274.342 22.7404 274.232 22.7404C274.122 22.8505 272.417 24.8861 271.642 24.8861C271.271 24.8861 271.271 24.3313 271.271 23.9967C271.271 23.8133 271.381 22.9238 271.417 22.7771L274.902 4.82354ZM270.459 14.0754L270.015 16.4824C269.313 20.0722 266.723 24.7348 264.834 24.7348C263.463 24.7348 262.945 23.1806 262.945 21.145C262.945 16.8904 266.163 12.0765 269.162 12.0765C270.166 12.0765 270.611 13.2272 270.459 14.0754Z" fill="#303030"/>
</svg>
