<svg width="30" height="20" viewBox="0 0 30 20" fill="none" xmlns="http://www.w3.org/2000/svg">
<path d="M1.39593 0.580017C0.625229 0.580017 0 1.20492 0 1.97595V18.0241C0 18.795 0.625319 19.42 1.39593 19.42H28.6041C29.3748 19.42 30 18.7951 30 18.0241V1.97592C30 1.20501 29.3747 0.579987 28.6041 0.579987H1.3959L1.39593 0.580017ZM9.83717 2.84783C11.5496 2.84783 13.1223 3.4436 14.3568 4.43876C13.3182 5.36813 12.5435 6.58916 12.1612 7.97315H12.7603C13.1131 6.83141 13.754 5.81489 14.5987 5.00876C15.4435 5.81489 16.0843 6.83141 16.4372 7.97315H17.0456C16.6581 6.59645 15.8823 5.38271 14.8444 4.4594C16.0813 3.45161 17.6602 2.8478 19.38 2.8478C23.3487 2.8478 26.5659 6.06536 26.5659 10.0347C26.5659 14.004 23.3487 17.2216 19.38 17.2216C17.6316 17.2216 16.0284 16.5975 14.7825 15.5594C15.897 14.5898 16.7186 13.29 17.0944 11.8113H16.5084C16.1748 13.0524 15.5032 14.1562 14.5987 15.0194C13.6942 14.1562 13.0236 13.0524 12.69 11.8113H12.1321C12.5101 13.2685 13.321 14.5502 14.4187 15.5106C13.1751 16.5359 11.5782 17.1522 9.83714 17.1522C5.86844 17.1522 2.65125 13.9501 2.65125 10C2.65125 6.04991 5.86844 2.84783 9.83717 2.84783ZM18.8409 7.90001C17.9775 7.90001 17.1375 8.65487 17.1375 10.0722C17.1375 11.012 17.5912 11.6322 18.4837 11.6322C18.7361 11.6323 19.1381 11.5291 19.1381 11.5291L19.2712 10.7078C19.2712 10.7078 18.9043 10.8934 18.6525 10.8934C18.1219 10.8934 17.9091 10.4854 17.9091 10.0469C17.9091 9.15731 18.3655 8.6678 18.8737 8.6678C19.2548 8.6678 19.5609 8.88344 19.5609 8.88344L19.6828 8.08469C19.6828 8.08469 19.2297 7.90001 18.8409 7.90001H18.8409ZM26.1 7.9694L25.349 7.97126L25.1878 8.9594C25.1878 8.9594 24.9055 8.57594 24.464 8.57594C23.7776 8.57594 23.2059 9.39134 23.2059 10.3291C23.2059 10.9344 23.5102 11.5281 24.134 11.5281C24.5828 11.5281 24.8315 11.2197 24.8315 11.2197L24.7987 11.4831H25.5281L26.1 7.9694ZM4.59186 7.97969L3.99375 11.5019H4.71468L5.17031 8.84597L5.23781 11.5019H5.75342L6.71531 8.84597L6.28874 11.5019H7.05467L7.64531 7.97969H6.46031L5.72249 10.1406L5.68406 7.97972H4.59189L4.59186 7.97969ZM12.1237 8.20844C12.1074 8.22479 11.6878 10.6446 11.6878 10.9394C11.6878 11.3757 11.9324 11.5707 12.2766 11.5675C12.5232 11.5654 12.7141 11.5035 12.8025 11.4775C12.8117 11.475 12.8297 11.47 12.8297 11.47L12.9225 10.84C12.872 10.84 12.7977 10.8616 12.7322 10.8616C12.4752 10.8616 12.4467 10.7249 12.4631 10.6234L12.6703 9.33815H13.0612L13.1559 8.64155H12.7875L12.8625 8.20844H12.1237ZM20.8378 8.56283C20.3346 8.56283 19.9491 8.72876 19.9491 8.72876L19.8422 9.37565C19.8422 9.37565 20.1606 9.24344 20.6419 9.24344C20.9151 9.24344 21.1153 9.2747 21.1153 9.50219C21.1153 9.64037 21.0909 9.69158 21.0909 9.69158C21.0909 9.69158 20.8748 9.67283 20.775 9.67283C20.1404 9.67283 19.4737 9.95093 19.4737 10.7875C19.4737 11.4467 19.9114 11.5975 20.1825 11.5975C20.7002 11.5975 20.9235 11.2536 20.9353 11.2525L20.9109 11.5394H21.5569L21.8456 9.4694C21.8457 8.59106 21.0976 8.5628 20.8378 8.5628V8.56283ZM8.7206 8.56658C8.21558 8.56658 7.8281 8.73251 7.8281 8.73251L7.72124 9.3794C7.72124 9.3794 8.04074 9.24719 8.52374 9.24719C8.798 9.24719 8.99906 9.27857 8.99906 9.50594C8.99906 9.64406 8.97467 9.69533 8.97467 9.69533C8.97467 9.69533 8.75798 9.67658 8.65781 9.67658C8.02082 9.67658 7.35188 9.95423 7.35188 10.7903C7.35188 11.4491 7.79042 11.6003 8.06249 11.6003C8.58212 11.6003 8.80619 11.2563 8.81813 11.2553L8.79374 11.5422H9.44249L9.73217 9.47315C9.73217 8.59532 8.98136 8.56655 8.7206 8.56655V8.56658ZM11.0118 8.56658C10.4695 8.56658 9.91874 8.78549 9.91874 9.53315C9.91874 10.3803 10.8366 10.2947 10.8366 10.6515C10.8366 10.8897 10.5804 10.9094 10.3828 10.9094C10.0408 10.9094 9.73328 10.7912 9.73217 10.7969L9.63374 11.4438C9.65144 11.4492 9.84188 11.5347 10.4569 11.5347C10.622 11.5347 11.5659 11.5766 11.5659 10.5934C11.5659 9.67427 10.6922 9.85646 10.6922 9.48719C10.6922 9.30335 10.834 9.24533 11.0943 9.24533C11.1977 9.24533 11.5959 9.27815 11.5959 9.27815L11.6878 8.62469C11.6878 8.62478 11.4309 8.56658 11.0119 8.56658H11.0118ZM14.4018 8.56658C13.6482 8.56673 13.0903 9.37709 13.0903 10.2925C13.0903 11.3491 13.7894 11.6003 14.385 11.6003C14.9348 11.6003 15.1772 11.4775 15.1772 11.4775L15.3084 10.7566C15.3084 10.7566 14.8902 10.9403 14.5125 10.9403C13.7077 10.9403 13.8487 10.3413 13.8487 10.3413H15.3722C15.3722 10.3413 15.4706 9.85712 15.4706 9.65969C15.4706 9.16709 15.2248 8.56658 14.4019 8.56658H14.4018ZM17.1309 8.59751C16.7914 8.59751 16.5393 9.05408 16.5393 9.05408L16.6068 8.63501H15.9018L15.4284 11.5281H16.2075C16.4281 10.2927 16.4684 9.28952 16.995 9.47315C17.0871 8.99495 17.1766 8.81021 17.2772 8.60783C17.2772 8.60783 17.2299 8.59751 17.1309 8.59751H17.1309ZM23.4431 8.59751C23.1036 8.59751 22.8515 9.05408 22.8515 9.05408L22.919 8.63501H22.214L21.7406 11.5281H22.5187C22.7395 10.2927 22.7808 9.28952 23.3072 9.47315C23.3995 8.99495 23.4888 8.81021 23.5894 8.60783C23.5894 8.60783 23.5421 8.59751 23.4431 8.59751H23.4431ZM14.3981 9.21908C14.8261 9.21908 14.7478 9.7022 14.7478 9.74126H13.905C13.905 9.6914 13.9847 9.21908 14.3981 9.21908H14.3981ZM24.5822 9.27533C24.8546 9.27524 24.9947 9.45926 24.9947 9.89219C24.9947 10.285 24.7966 10.81 24.3862 10.81C24.1139 10.81 23.9859 10.5851 23.9859 10.2325C23.9859 9.65597 24.2497 9.27533 24.5822 9.27533H24.5822ZM20.8387 10.2597C20.9499 10.2598 20.9728 10.2706 20.9916 10.2756C20.9888 10.2752 20.9883 10.2757 20.9991 10.2775C21.0131 10.4064 20.9212 11.0106 20.4768 11.0106C20.2477 11.0106 20.1891 10.8285 20.1891 10.7209C20.1891 10.5113 20.2982 10.2597 20.8387 10.2597ZM8.72156 10.2625C8.84777 10.2627 8.86154 10.2768 8.88281 10.2803C8.89691 10.4091 8.80463 11.0125 8.35874 11.0125C8.12873 11.0125 8.06906 10.8312 8.06906 10.7238C8.06906 10.5142 8.17886 10.2625 8.72156 10.2625Z" fill="#333333"/>
</svg>
