<svg width="30" height="20" viewBox="0 0 30 20" fill="none" xmlns="http://www.w3.org/2000/svg">
<path d="M1.2 0.579987C0.53739 0.579987 0 1.11723 0 1.77999V18.22C0 18.8827 0.53766 19.42 1.2 19.42H28.8C29.4626 19.42 30 18.8827 30 18.22V1.77999C30 1.11726 29.4623 0.579987 28.8 0.579987H1.2ZM17.9175 6.19467C18.6476 6.19467 19.2328 6.35595 19.6059 6.50592L19.3509 8.10999L19.1822 8.02467C18.8346 7.8747 18.3881 7.73037 17.7722 7.7406C17.0349 7.7406 16.6941 8.06949 16.6941 8.3772C16.6898 8.72391 17.0923 8.95257 17.7506 9.29499C18.8371 9.82329 19.3393 10.4638 19.3322 11.3059C19.3176 12.8424 18.0325 13.8353 16.0528 13.8353C15.2082 13.826 14.3945 13.6472 13.9547 13.4406L14.2191 11.7831L14.4619 11.9012C15.0804 12.1776 15.4809 12.2894 16.2347 12.2894C16.776 12.2894 17.3569 12.0627 17.3616 11.5666C17.3651 11.2426 17.1187 11.0116 16.3856 10.6487C15.6713 10.2946 14.7242 9.70143 14.7347 8.63781C14.7459 7.19898 16.0566 6.19467 17.9175 6.19467ZM2.65311 6.42999H5.69343C6.10284 6.44547 6.43338 6.57729 6.5475 7.02156L7.20282 10.4041C7.20291 10.4044 7.2027 10.4056 7.20282 10.4059L7.39968 11.4194L9.24561 6.42999H11.2425L8.27436 13.7331L6.27936 13.735L4.69125 7.84185C5.63619 8.34246 6.44067 8.92167 6.90657 9.71874C6.78645 9.46653 6.62817 9.18183 6.42564 8.90124C6.18978 8.57448 5.68041 8.15259 5.4675 7.9731C4.7256 7.34769 3.71805 6.84258 2.62968 6.57531L2.65311 6.42999ZM12.0366 6.43842H13.9894L12.7678 13.7303H10.815L12.0366 6.43842ZM23.0662 6.43842H24.5456L26.0944 13.7303H24.3188C24.3188 13.7303 24.1426 12.8926 24.0853 12.6372C23.8062 12.6372 21.8543 12.6344 21.6347 12.6344C21.5604 12.8318 21.2316 13.7303 21.2316 13.7303H19.2225L22.0641 7.04406C22.2652 6.56892 22.6082 6.43842 23.0662 6.43842ZM23.2116 8.39967C23.1155 8.6709 22.9482 9.1089 22.9594 9.08967C22.9594 9.08967 22.3582 10.6929 22.201 11.1091L23.7806 11.1081C23.6339 10.4128 23.487 9.71749 23.34 9.02223L23.2116 8.39973V8.39967Z" fill="#333333"/>
</svg>
