<svg width="8" height="8" viewBox="0 0 8 8" fill="none" xmlns="http://www.w3.org/2000/svg">
<path d="M0.226748 0.226779C0.279 0.174395 0.341072 0.132834 0.40941 0.104477C0.477749 0.0761196 0.55101 0.0615234 0.624998 0.0615234C0.698986 0.0615234 0.772248 0.0761196 0.840586 0.104477C0.908925 0.132834 0.970997 0.174395 1.02325 0.226779L4 3.20465L6.97675 0.226779C7.02905 0.17448 7.09114 0.132994 7.15947 0.10469C7.2278 0.0763859 7.30104 0.0618179 7.375 0.0618179C7.44896 0.0618179 7.5222 0.0763859 7.59053 0.10469C7.65886 0.132994 7.72095 0.17448 7.77325 0.226779C7.82555 0.279078 7.86703 0.341165 7.89534 0.409497C7.92364 0.477829 7.93821 0.551067 7.93821 0.625029C7.93821 0.698991 7.92364 0.772229 7.89534 0.84056C7.86703 0.908892 7.82555 0.97098 7.77325 1.02328L4.79537 4.00003L7.77325 6.97678C7.82555 7.02908 7.86703 7.09117 7.89534 7.1595C7.92364 7.22783 7.93821 7.30107 7.93821 7.37503C7.93821 7.44899 7.92364 7.52223 7.89534 7.59056C7.86703 7.65889 7.82555 7.72098 7.77325 7.77328C7.72095 7.82558 7.65886 7.86706 7.59053 7.89537C7.5222 7.92367 7.44896 7.93824 7.375 7.93824C7.30104 7.93824 7.2278 7.92367 7.15947 7.89537C7.09114 7.86706 7.02905 7.82558 6.97675 7.77328L4 4.7954L1.02325 7.77328C0.970949 7.82558 0.908862 7.86706 0.84053 7.89537C0.772198 7.92367 0.69896 7.93824 0.624998 7.93824C0.551036 7.93824 0.477799 7.92367 0.409467 7.89537C0.341135 7.86706 0.279047 7.82558 0.226748 7.77328C0.174449 7.72098 0.132963 7.65889 0.104659 7.59056C0.0763553 7.52223 0.0617874 7.44899 0.0617874 7.37503C0.0617874 7.30107 0.0763553 7.22783 0.104659 7.1595C0.132963 7.09117 0.174449 7.02908 0.226748 6.97678L3.20462 4.00003L0.226748 1.02328C0.174364 0.971028 0.132804 0.908955 0.104446 0.840617C0.0760891 0.772278 0.0614929 0.699017 0.0614929 0.625029C0.0614929 0.551041 0.0760891 0.477779 0.104446 0.409441C0.132804 0.341103 0.174364 0.27903 0.226748 0.226779Z" fill="black"/>
</svg>
