<svg width="16" height="10" viewBox="0 0 16 10" fill="none" xmlns="http://www.w3.org/2000/svg">
<path d="M15.255 5.14653L10.623 9.77053L10.031 9.15453C9.90832 9.03186 9.85766 8.90919 9.87899 8.78653C9.90566 8.65853 9.97499 8.53586 10.087 8.41853L12.047 6.47453C12.1857 6.33586 12.319 6.21053 12.447 6.09853C12.575 5.98119 12.6977 5.87719 12.815 5.78653C12.5003 5.82386 12.1697 5.85586 11.823 5.88253C11.4817 5.90386 11.135 5.91453 10.783 5.91453H0.966988V4.35453H10.783C11.135 4.35453 11.4843 4.36786 11.831 4.39453C12.1777 4.41586 12.5083 4.44786 12.823 4.49053C12.7003 4.39986 12.575 4.29853 12.447 4.18653C12.319 4.06919 12.1857 3.94119 12.047 3.80253L10.071 1.84253C9.95899 1.73053 9.88966 1.61053 9.86299 1.48253C9.84166 1.35453 9.89232 1.22919 10.015 1.10653L10.607 0.490527L15.255 5.14653Z" fill="#333333"/>
</svg>
