<svg viewBox="0 0 16 17" fill="none" xmlns="http://www.w3.org/2000/svg">
<path d="M4.82817 6.51495C5.76745 6.51495 6.5289 5.75351 6.5289 4.81422C6.5289 3.87494 5.76745 3.11349 4.82817 3.11349C3.88888 3.11349 3.12744 3.87494 3.12744 4.81422C3.12744 5.75351 3.88888 6.51495 4.82817 6.51495Z" fill="#333333"/>
<path d="M11.1709 6.51495C12.1102 6.51495 12.8717 5.75351 12.8717 4.81422C12.8717 3.87494 12.1102 3.11349 11.1709 3.11349C10.2317 3.11349 9.47021 3.87494 9.47021 4.81422C9.47021 5.75351 10.2317 6.51495 11.1709 6.51495Z" fill="#333333"/>
<path d="M14.8736 8.74721L13.3146 7.20593C13.0311 6.92247 12.6414 6.76303 12.2339 6.76303H10.0903C9.68281 6.76303 9.29306 6.92247 9.00961 7.20593L7.9998 8.23345L6.98999 7.22364C6.70654 6.94019 6.31679 6.78075 5.90932 6.78075H3.7657C3.35823 6.78075 2.96848 6.94019 2.68503 7.22364L1.14374 8.76493C0.860289 9.04838 0.860289 9.52671 1.14374 9.81017C1.4272 10.1113 1.88781 10.0936 2.18898 9.81017L3.12793 8.87122V13.1585C3.12793 13.5659 3.44681 13.9025 3.85428 13.9025C4.26174 13.9025 4.58063 13.5659 4.58063 13.1585V11.5286C4.58063 11.4046 4.68693 11.2983 4.81094 11.2983C4.93495 11.2983 5.04124 11.4046 5.04124 11.5286V13.1585C5.04124 13.5659 5.37785 13.9025 5.78531 13.9025C6.19278 13.9025 6.52938 13.5659 6.52938 13.1585V8.85351L7.46832 9.79245C7.61005 9.95189 7.80493 10.0228 7.9998 10.0228C8.19468 10.0228 8.38955 9.95189 8.53128 9.79245L9.47022 8.85351L8.56671 12.0955H9.47022V13.1585C9.47022 13.5659 9.78911 13.9025 10.1966 13.9025C10.604 13.9025 10.9229 13.5659 10.9229 13.1585V12.0955H11.4013V13.1585C11.4013 13.5659 11.7201 13.9025 12.1276 13.9025C12.5351 13.9025 12.854 13.5659 12.854 13.1585V12.0955H13.7752L12.8717 8.85351L13.8106 9.79245C14.0941 10.0759 14.5724 10.0936 14.8559 9.79245C15.157 9.509 15.157 9.04838 14.8736 8.74721Z" fill="currentColor"/>
</svg>
