<svg viewBox="0 0 16 17" fill="none" xmlns="http://www.w3.org/2000/svg">
<path d="M12.3375 5.96929H11.5718V5.20325H10.915V5.96929H10.1494V6.62579H10.915V7.39123H11.5718V6.62579H12.3375V5.96929Z" fill="currentColor"/>
<path d="M11.2599 3.03253C9.82926 3.03253 8.612 3.95433 8.16438 5.23417H7.79179C7.34357 3.95403 6.12675 3.03253 4.69626 3.03253C2.88627 3.03253 1.41406 4.50489 1.41406 6.31443C1.41406 7.25979 1.81832 8.11121 2.46071 8.71069H2.45651L7.71286 13.9673H8.23115L13.4009 8.79667C14.0984 8.19389 14.542 7.30601 14.542 6.31443C14.5421 4.50534 13.0697 3.03253 11.2599 3.03253ZM11.2599 8.50271C10.0533 8.50271 9.07177 7.52104 9.07177 6.31458C9.07177 5.10827 10.0533 4.12675 11.2599 4.12675C12.4665 4.12675 13.448 5.10827 13.448 6.31458C13.448 7.52104 12.4665 8.50271 11.2599 8.50271Z" fill="currentColor"/>
</svg>
