<svg viewBox="0 0 12 11" fill="none" xmlns="http://www.w3.org/2000/svg">
<path fill-rule="evenodd" clip-rule="evenodd" d="M6.00049 5.75021C7.72332 5.75021 10.1561 9.19073 9.2356 10.3856C8.31506 11.5805 7.56845 10.3856 6.00049 10.3856C4.43252 10.3856 3.68592 11.5805 2.76538 10.3856C1.84483 9.19073 4.27765 5.75021 6.00049 5.75021ZM2.81585 7.27302C2.14218 7.63121 1.18137 7.14166 0.669814 6.17956C0.158259 5.21747 0.289681 4.14716 0.963352 3.78896C1.63702 3.43077 2.59784 3.92032 3.10939 4.88242C3.62095 5.84451 3.48953 6.91482 2.81585 7.27302ZM4.70706 4.26183C3.90524 4.46175 3.02379 3.69552 2.73829 2.55042C2.45278 1.40532 2.87133 0.314967 3.67315 0.115052C4.47496 -0.0848634 5.35641 0.681362 5.64192 1.82646C5.92742 2.97156 5.50887 4.06192 4.70706 4.26183ZM9.18512 7.27302C8.51145 6.91482 8.38003 5.84451 8.89158 4.88242C9.40314 3.92032 10.364 3.43077 11.0376 3.78896C11.7113 4.14716 11.8427 5.21747 11.3312 6.17956C10.8196 7.14166 9.85879 7.63121 9.18512 7.27302ZM7.29392 4.26183C6.49211 4.06192 6.07355 2.97156 6.35906 1.82646C6.64457 0.681362 7.52601 -0.0848634 8.32783 0.115052C9.12964 0.314967 9.54819 1.40532 9.26269 2.55042C8.97718 3.69552 8.09574 4.46175 7.29392 4.26183Z" fill="#333333"/>
</svg>
