<svg viewBox="0 0 16 17" fill="none" xmlns="http://www.w3.org/2000/svg">
<path d="M12.3338 5.02021V4.1348C8.66112 7.76498 3.39648 8.41664 3.17158 8.44497H3.13085C3.03692 8.45038 2.94469 8.41824 2.87446 8.35564C2.80422 8.29304 2.76173 8.20511 2.75632 8.11118C2.75092 8.01725 2.78306 7.92502 2.84566 7.85478C2.90826 7.78454 2.99619 7.74205 3.09012 7.73665C3.14325 7.73665 8.27331 7.08853 11.7778 3.68147H11.0004C10.9064 3.68147 10.8164 3.64416 10.7499 3.57774C10.6835 3.51132 10.6462 3.42124 10.6462 3.32731C10.6462 3.23338 10.6835 3.1433 10.7499 3.07688C10.8164 3.01046 10.9064 2.97314 11.0004 2.97314H12.688C12.7819 2.97314 12.872 3.01046 12.9384 3.07688C13.0048 3.1433 13.0421 3.23338 13.0421 3.32731V5.01667C13.0421 5.1106 13.0048 5.20068 12.9384 5.2671C12.872 5.33352 12.7819 5.37083 12.688 5.37083C12.594 5.37083 12.504 5.33352 12.4375 5.2671C12.3711 5.20068 12.3338 5.1106 12.3338 5.01667V5.02021ZM13.3131 5.92156H11.6255C11.5315 5.92156 11.4415 5.95887 11.375 6.02529C11.3086 6.09171 11.2713 6.18179 11.2713 6.27572V13.6689C11.2713 13.7628 11.3086 13.8529 11.375 13.9193C11.4415 13.9857 11.5315 14.0231 11.6255 14.0231H13.3131C13.407 14.0231 13.4971 13.9857 13.5635 13.9193C13.6299 13.8529 13.6672 13.7628 13.6672 13.6689V6.27572C13.6672 6.18179 13.6299 6.09171 13.5635 6.02529C13.4971 5.95887 13.407 5.92156 13.3131 5.92156ZM10.3345 7.73842H8.64696C8.55302 7.73842 8.46294 7.77573 8.39652 7.84215C8.3301 7.90857 8.29279 7.99865 8.29279 8.09258V13.6689C8.29279 13.7628 8.3301 13.8529 8.39652 13.9193C8.46294 13.9857 8.55302 14.0231 8.64696 14.0231H10.3345C10.3811 14.0231 10.4271 14.0139 10.4701 13.9961C10.513 13.9783 10.5521 13.9522 10.585 13.9193C10.6179 13.8864 10.644 13.8474 10.6617 13.8044C10.6795 13.7615 10.6887 13.7154 10.6887 13.6689V8.09258C10.6887 8.04607 10.6795 8.00002 10.6617 7.95705C10.644 7.91408 10.6179 7.87504 10.585 7.84215C10.5521 7.80926 10.513 7.78318 10.4701 7.76538C10.4271 7.74758 10.3811 7.73842 10.3345 7.73842ZM7.35426 8.66633H5.66667C5.57274 8.66633 5.48265 8.70364 5.41623 8.77006C5.34982 8.83648 5.3125 8.92656 5.3125 9.02049V13.6689C5.3125 13.7628 5.34982 13.8529 5.41623 13.9193C5.48265 13.9857 5.57274 14.0231 5.66667 14.0231H7.35426C7.44819 14.0231 7.53827 13.9857 7.60469 13.9193C7.67111 13.8529 7.70842 13.7628 7.70842 13.6689V9.02049C7.70842 8.92656 7.67111 8.83648 7.60469 8.77006C7.53827 8.70364 7.44819 8.66633 7.35426 8.66633ZM4.37574 9.78017H2.68815C2.59422 9.78017 2.50414 9.81749 2.43772 9.8839C2.3713 9.95032 2.33398 10.0404 2.33398 10.1343V13.676C2.33398 13.7699 2.3713 13.86 2.43772 13.9264C2.50414 13.9928 2.59422 14.0301 2.68815 14.0301H4.37574C4.46967 14.0301 4.55975 13.9928 4.62617 13.9264C4.69259 13.86 4.7299 13.7699 4.7299 13.676V10.1343C4.7299 10.0404 4.69259 9.95032 4.62617 9.8839C4.55975 9.81749 4.46967 9.78017 4.37574 9.78017Z" fill="currentColor"/>
</svg>
