<svg viewBox="0 0 8 13" fill="none" xmlns="http://www.w3.org/2000/svg">
<path d="M2.72058 1.56809C2.72058 0.830648 3.32692 0.224304 4.06437 0.224304C4.80181 0.224304 5.40816 0.830648 5.40816 1.56809C5.40816 2.30554 4.80181 2.91188 4.06437 2.91188C3.31054 2.91188 2.72058 2.30554 2.72058 1.56809ZM7.44023 7.35294L6.12921 3.61655C6.06366 3.45268 5.91617 3.33796 5.73591 3.33796H2.39283C2.21256 3.33796 2.04868 3.45268 1.99952 3.61655L0.688509 7.35294C0.606571 7.56598 0.721284 7.81179 0.950712 7.89373C1.16375 7.97567 1.40957 7.86096 1.4915 7.63153L2.6878 4.17373H3.11388L1.29485 9.54889H2.70419V12.2185C2.70419 12.5299 2.95001 12.7757 3.26137 12.7757C3.57274 12.7757 3.81855 12.5299 3.81855 12.2185V9.54889H4.24463V12.2185C4.24463 12.5299 4.49045 12.7757 4.80181 12.7757C5.11318 12.7757 5.35899 12.5299 5.35899 12.2185V9.54889H6.76833L4.99846 4.17373H5.42454L6.63723 7.63153C6.70278 7.8118 6.86666 7.91012 7.03054 7.91012C7.0797 7.91012 7.12886 7.91012 7.17802 7.89373C7.39106 7.81179 7.50578 7.56598 7.44023 7.35294Z" fill="#333333"/>
</svg>
