<svg viewBox="0 0 62 55" fill="none" xmlns="http://www.w3.org/2000/svg">
<path d="M58.1794 20.444H51.9295L45.1265 16.2575C43.6564 15.3528 42.0304 14.7301 40.332 14.4213L29.7808 12.5029C28.8572 12.335 28.1181 13.2624 28.4879 14.1252V14.1252C29.2516 15.9072 30.8436 17.199 32.7447 17.5792L36.6521 18.3607V20.9853H21.4513C20.2584 20.9853 19.2914 21.9523 19.2914 23.1451V23.1451C19.2914 24.338 20.2584 25.305 21.4513 25.305H32.4856H18.597C17.4464 25.305 16.5137 26.2377 16.5137 27.3882V27.3882C16.5137 28.5388 17.4464 29.4715 18.597 29.4715H19.9859M32.4856 29.4715H19.9859M19.9859 29.4715V30.5132C19.9859 32.239 21.3849 33.6381 23.1108 33.6381V33.6381H26.2357M32.4856 33.6381H26.2357M26.2357 33.6381V33.6381C26.2357 35.9392 28.1011 37.8046 30.4023 37.8046H44.2908L52.6239 33.6381H58.1794M47.0685 16.9718C47.0685 16.9718 42.8954 12.2665 42.902 9.33313C42.9066 7.2678 45.6797 7.24985 45.6797 4.47214C45.6797 1.69443 42.902 1 42.902 1H18.597C18.597 1 15.8193 1 15.8193 4.47214C15.8193 7.94427 19.2914 6.55542 19.2914 9.33313C19.2914 12.1108 13.0414 19.7495 13.0416 26.6938C13.0418 33.6381 19.9859 43.3601 19.9859 43.3601M41.9241 43.3601C41.9241 43.3601 43.5964 42.6656 44.9852 40.5824C46.3741 38.4991 47.0685 37.1102 47.0685 37.1102M5.40289 53.7765C5.40289 53.7765 1.23633 53.082 1.23633 48.9155C1.23633 44.7489 5.40289 44.0545 5.40289 44.0545H55.4017C55.4017 44.0545 60.2626 44.0545 60.2626 48.9155C60.2626 53.7765 55.4017 53.7765 55.4017 53.7765H5.40289Z" stroke="#333333" stroke-width="1.5" stroke-linecap="round"/>
</svg>
