<svg viewBox="0 0 50 56" fill="none" xmlns="http://www.w3.org/2000/svg">
<path d="M39.3941 12.6331C38.4957 12.7713 37.4826 12.9668 36.3945 13.2065M36.3945 13.2065C29.6105 14.7006 19.9103 17.9095 16.8941 19.6331C13.3941 21.6331 -1.60589 31.1331 1.39411 36.1331C3.79411 40.1331 13.7277 39.1331 18.3945 38.1331L18.8945 39.6331C13.8945 40.1331 4.09453 41.5331 4.89453 43.1331C5.89453 45.1331 14.3945 46.1331 15.3945 49.6331C16.3945 53.1331 15.8945 55.6331 18.3945 55.1331C20.8945 54.6331 17.8945 51.6331 17.8945 50.6331C17.8945 49.6331 18.8945 49.1331 20.3945 51.1331C22.082 53.3831 23.7279 53.6331 24.3945 52.6331C25.3945 51.1331 23.8945 50.1331 22.3945 49.1331C20.8945 48.1331 19.8945 48.1331 20.3945 47.1331C20.6445 46.6331 21.3945 46.6331 22.3945 46.6331C23.6448 46.6331 25.3945 46.6331 25.3945 45.1331C25.3945 43.6331 23.3945 43.1331 22.3945 43.6331C21.3945 44.1331 19.3945 45.6331 16.3945 45.1331C13.9945 44.7331 13.3945 44.2997 13.3945 44.1331C17.3945 43.2997 25.2945 41.1331 24.8945 39.1331C24.3945 36.6331 16.8945 32.6331 11.8945 32.6331C13.8945 32.1331 18.5945 31.6331 21.3945 33.6331C22.0612 33.4664 23.6945 32.9331 24.8945 32.1331C26.0945 31.3331 27.7279 28.7997 28.3945 27.6331C28.0612 29.6331 27.5945 33.8331 28.3945 34.6331C29.3945 35.6331 33.3945 34.6331 35.8945 35.6331C38.3945 36.6331 40.3945 40.1331 41.8945 38.6331C43.3945 37.1331 41.8176 36.1074 40.3945 35.6331C38.8945 35.1331 38.3945 34.1331 40.8945 34.6331C43.3945 35.1331 44.8945 35.1331 45.3945 33.6331C45.8945 32.1331 44.8945 30.6331 41.8945 31.6331C39.7732 32.3402 39.3941 32.1331 39.3941 31.6331C39.3941 31.1331 40.3945 30.6331 40.8945 30.1331C41.6016 29.4259 42.8945 28.1331 40.8945 27.1331C39.0506 26.2111 37.8945 31.1331 35.8945 31.6331C33.8945 32.1331 31.3945 32.6331 31.3945 31.1331C31.3945 29.9331 33.7279 26.9664 34.8945 25.6331C36.8945 24.9664 41.3945 23.2331 43.3945 21.6331C45.8945 19.6331 48.3945 18.1331 48.3945 17.1331C48.3945 16.1331 47.3945 15.1331 46.3945 14.6331C45.5945 14.2331 44.0612 13.4664 43.3945 13.1331C43.2279 12.1331 41.9945 10.1331 40.3945 10.1331C38.3945 10.1331 36.8945 11.2799 36.3945 13.2065Z" stroke="#333333" stroke-width="1.5" stroke-linecap="round" stroke-linejoin="round"/>
<circle cx="38.3945" cy="17.1331" r="2.25" stroke="#333333" stroke-width="1.5"/>
<path d="M38.3945 17.1331V18.6331" stroke="#333333" stroke-width="1.5" stroke-linecap="round" stroke-linejoin="round"/>
<path d="M20.3945 15.633C19.8945 15.4663 18.8945 14.933 18.8945 14.133C18.8945 13.133 21.3945 11.133 21.8945 10.133C22.3945 9.13299 23.3945 7.63306 23.3945 6.13306C23.3945 4.63306 23.3945 3.63299 23.3945 2.63299C23.3945 1.63299 24.3945 0.632993 25.3945 1.13299C26.3945 1.63299 26.3945 2.13306 26.3945 2.63306C26.3945 3.13306 24.8945 5.13306 25.8945 5.63306C26.8945 6.13306 27.3945 5.13306 27.8945 4.13306C28.3945 3.13306 29.8945 0.633057 31.3945 2.13306C32.8945 3.63306 30.8945 4.63306 29.8945 5.63306C28.8945 6.63306 27.3945 7.13306 28.3945 7.63306C29.3945 8.13306 29.8945 7.63306 30.8945 7.63306C31.8945 7.63306 32.3945 8.63306 32.3945 9.13306C32.3945 9.63306 31.8945 10.6331 30.8945 10.6331C29.8945 10.6331 28.3945 10.1331 27.3945 10.1331C26.3945 10.1331 23.8945 10.6331 22.8945 12.1331C22.0945 13.3331 24.2279 13.6331 25.3945 13.6331" stroke="#333333" stroke-width="1.5" stroke-linecap="round" stroke-linejoin="round"/>
<path d="M6.89442 23.1331C6.39442 21.1331 6.39403 20.1331 4.89442 18.6331C4.10393 17.8425 3.89442 16.1331 4.89442 15.6331C5.89442 15.1331 7.39442 15.1331 7.89442 16.6331C8.39442 18.1331 7.39453 21.1331 9.39453 21.1331C11.3945 21.1331 10.3944 16.1332 10.8944 15.1332C11.3944 14.1332 12.3944 13.6332 13.3944 14.1332C14.3944 14.6332 14.3944 16.1331 13.8944 17.1331C13.4944 17.9331 13.0611 18.7997 12.8944 19.1331" stroke="#333333" stroke-width="1.5" stroke-linecap="round" stroke-linejoin="round"/>
</svg>
