<svg viewBox="0 0 68 99" fill="none" xmlns="http://www.w3.org/2000/svg">
<path d="M6.24923 55.5C6.24923 55.5 5.03687 53.1393 5.49997 51.75C6.24997 49.5 9.24923 48.75 9.24923 46.5C9.24923 43.4077 6.24923 42.9181 6.24923 39.75C6.24923 36.5819 8.92947 36.1519 9.24923 33C9.52968 30.2356 8.92124 28.811 9.99923 26.25C10.3226 25.4818 10.7095 25.0323 11.1325 24.7453C13.0753 23.4269 14.2869 21.8816 14.3813 19.5356C14.6314 13.3236 17.2137 1.5 33.25 1.5C48.2242 1.5 50.7558 11.4538 50.8799 17.6556C50.9391 20.6161 52.2369 23.2143 54.9785 24.3329C55.7816 24.6606 56.5304 25.1706 57.25 26.25C58.75 28.5 57.6379 30.6665 58 33C58.4017 35.5887 60.3088 36.381 60.2492 39C60.1733 42.3386 56.6974 42.4565 57.25 45.75C57.6286 48.006 61.0584 48.7132 61 51" stroke="black" stroke-width="1.35"/>
<path d="M25.75 45V50.25L23.5 51.1364M40.75 45V50.25L43.1364 51.1364M23.5 51.1364L18.25 53.2045M23.5 51.1364L24.9061 54.75M33.25 90.75V79.5M33.25 90.75H10M33.25 90.75H55.75M33.25 76.1932V79.5M33.25 76.1932L24.9061 54.75M33.25 76.1932L41.7106 54.75M43.1364 51.1364L47.5 52.7571M43.1364 51.1364L41.7106 54.75M18.25 53.2045L5.75107 58.1284C2.88438 59.2577 1 62.0253 1 65.1064V90.75H10M18.25 53.2045L16.75 61.5L23.5 66L21.25 72L33.25 79.5M33.25 79.5L46 72L43.1364 66L50.5 61.5L47.5 52.7571M47.5 52.7571L62.1114 58.1842C65.0502 59.2758 67 62.08 67 65.2149V90.75H55.75M10 69.75V90.75M55.75 69.75V90.75M24.9061 54.75C24.9061 54.75 29.6776 59.9815 33.25 60C36.864 60.0187 41.7106 54.75 41.7106 54.75" stroke="black" stroke-width="1.35"/>
<path d="M20.4983 30C25.4983 27 33.999 19.5 35.4983 11.25C35.4983 11.25 36.8858 17.2644 39.249 20.25C41.3216 22.8685 45.999 25.5 45.999 25.5C46.7488 32.5 45.2483 46.5 33.2483 46.5C21.2483 46.5 19.7483 35.5 20.4983 30Z" stroke="black" stroke-width="1.35"/>
<path d="M14.425 77.25C14.425 75.9659 15.4659 74.925 16.75 74.925H49.75C51.0341 74.925 52.075 75.9659 52.075 77.25V97.575H14.425V77.25Z" fill="white" stroke="black" stroke-width="1.35"/>
<circle cx="33.25" cy="86.25" r="2.325" stroke="black" stroke-width="1.35"/>
</svg>
