<svg viewBox="0 0 53 53" fill="none" xmlns="http://www.w3.org/2000/svg">
<path d="M35.9605 22.1262C36.3661 22.2105 36.7632 21.95 36.8474 21.5445L38.221 14.9357C38.3053 14.5302 38.0448 14.1331 37.6393 14.0488C37.2337 13.9645 36.8367 14.2249 36.7524 14.6305L35.5314 20.505L29.657 19.284C29.2514 19.1997 28.8543 19.4602 28.7701 19.8657C28.6858 20.2713 28.9462 20.6684 29.3517 20.7526L35.9605 22.1262ZM31.8727 14.9263L31.2455 15.3376L31.8727 14.9263ZM21.0161 18.4017L22.9296 15.3948L21.6641 14.5895L19.7506 17.5964L21.0161 18.4017ZM31.2455 15.3376L35.486 21.8032L36.7403 20.9806L32.4998 14.515L31.2455 15.3376ZM22.9296 15.3948C24.859 12.3628 29.2746 12.3325 31.2455 15.3376L32.4998 14.515C29.9316 10.5992 24.1782 10.6388 21.6641 14.5895L22.9296 15.3948Z" fill="#333333"/>
<path d="M27.0137 36.2072C26.7208 36.5001 26.7208 36.9749 27.0137 37.2678L31.7867 42.0408C32.0796 42.3337 32.5544 42.3337 32.8473 42.0408C33.1402 41.748 33.1402 41.2731 32.8473 40.9802L28.6047 36.7375L32.8474 32.4949C33.1403 32.202 33.1403 31.7271 32.8474 31.4342C32.5545 31.1413 32.0796 31.1413 31.7867 31.4342L27.0137 36.2072ZM35.9862 35.9876L27.5441 35.9875L27.5441 37.4875L35.9862 37.4876L35.9862 35.9876ZM38.1076 25.7332L40.0852 29.0293L41.3714 28.2575L39.3938 24.9614L38.1076 25.7332ZM35.9862 37.4876C40.7135 37.4876 43.6939 32.4003 41.3826 28.2767L40.0741 29.0101C41.825 32.1338 39.5672 35.9876 35.9862 35.9876L35.9862 37.4876Z" fill="#333333"/>
<path d="M18.4046 23.3251C18.3801 22.9116 18.025 22.5963 17.6115 22.6208L10.8734 23.0206C10.4599 23.0452 10.1446 23.4003 10.1691 23.8138C10.1937 24.2272 10.5488 24.5426 10.9622 24.518L16.9517 24.1626L17.3071 30.1521C17.3317 30.5656 17.6867 30.8809 18.1002 30.8563C18.5137 30.8318 18.829 30.4767 18.8045 30.0632L18.4046 23.3251ZM13.5535 27.9895L12.9927 27.4916L13.5535 27.9895ZM20.952 36.7248H17.816V38.2248H20.952V36.7248ZM14.1143 28.4875L18.2168 23.8675L17.0952 22.8715L12.9927 27.4916L14.1143 28.4875ZM17.816 36.7248C13.5457 36.7248 11.279 31.6806 14.1143 28.4875L12.9927 27.4916C9.29823 31.6521 12.2518 38.2248 17.816 38.2248V36.7248Z" fill="#333333"/>
<circle cx="26.5" cy="26.5" r="25.75" stroke="#333333" stroke-width="1.5"/>
</svg>
