<svg viewBox="0 0 55 35" fill="none" xmlns="http://www.w3.org/2000/svg">
<path d="M46 33.3873H8.5C5.5 33.3873 1 31.4873 1 25.8873C1 20.2873 6.83333 17.8873 9.5 17.8873C9 16.054 8.7 11.6873 11.5 8.88731C14.3 6.08731 19 7.05396 21 7.88729C22.3333 4.38729 29 -1.17289 37.5 1.88729C46 4.94746 47.3333 14.054 46 17.8873C48 18.2206 53.5 19.8872 53.5 25.8873C53.5 31.8875 49 33.3873 46 33.3873Z" stroke="#333333" stroke-width="1.5" stroke-linecap="round"/>
<path d="M24.82 18.5911H26.7147C26.6566 18.0758 26.5153 17.6188 26.2909 17.2199C26.0665 16.821 25.7798 16.4886 25.4308 16.2226C25.0901 15.9484 24.6995 15.7406 24.259 15.5994C23.8269 15.4581 23.3657 15.3875 22.8754 15.3875C22.1939 15.3875 21.579 15.508 21.0305 15.7489C20.4903 15.9899 20.0333 16.3224 19.6593 16.7462C19.2853 17.17 18.9986 17.6686 18.7992 18.242C18.5997 18.8071 18.5 19.4221 18.5 20.0869C18.5 20.7351 18.5997 21.3418 18.7992 21.9069C18.9986 22.4637 19.2853 22.9498 19.6593 23.3653C20.0333 23.7809 20.4903 24.1091 21.0305 24.3501C21.579 24.5828 22.1939 24.6991 22.8754 24.6991C23.4239 24.6991 23.9266 24.616 24.3837 24.4498C24.8408 24.2836 25.2397 24.0426 25.5804 23.7268C25.9211 23.4111 26.1953 23.0288 26.4031 22.58C26.6109 22.1313 26.7397 21.6285 26.7895 21.0717H24.8948C24.82 21.67 24.6122 22.152 24.2715 22.5177C23.9391 22.8833 23.4737 23.0662 22.8754 23.0662C22.4349 23.0662 22.061 22.9831 21.7535 22.8169C21.446 22.6423 21.1967 22.4138 21.0056 22.1313C20.8144 21.8487 20.6731 21.5329 20.5817 21.1839C20.4986 20.8265 20.4571 20.4609 20.4571 20.0869C20.4571 19.6963 20.4986 19.3182 20.5817 18.9526C20.6731 18.5869 20.8144 18.2628 21.0056 17.9803C21.1967 17.6894 21.446 17.4609 21.7535 17.2947C22.061 17.1201 22.4349 17.0329 22.8754 17.0329C23.1164 17.0329 23.3449 17.0744 23.561 17.1575C23.7854 17.2323 23.9848 17.3404 24.1593 17.4816C24.3338 17.6229 24.4793 17.7891 24.5956 17.9803C24.712 18.1631 24.7867 18.3667 24.82 18.5911Z" fill="#333333"/>
<path d="M30.0209 20.0869C30.0209 19.6963 30.0624 19.3182 30.1455 18.9526C30.2369 18.5869 30.3782 18.2628 30.5694 17.9803C30.7605 17.6894 31.0098 17.4609 31.3173 17.2947C31.6248 17.1201 31.9987 17.0329 32.4392 17.0329C32.8796 17.0329 33.2536 17.1201 33.5611 17.2947C33.8685 17.4609 34.1179 17.6894 34.309 17.9803C34.5001 18.2628 34.6372 18.5869 34.7204 18.9526C34.8118 19.3182 34.8575 19.6963 34.8575 20.0869C34.8575 20.4609 34.8118 20.8265 34.7204 21.1839C34.6372 21.5329 34.5001 21.8487 34.309 22.1313C34.1179 22.4138 33.8685 22.6423 33.5611 22.8169C33.2536 22.9831 32.8796 23.0662 32.4392 23.0662C31.9987 23.0662 31.6248 22.9831 31.3173 22.8169C31.0098 22.6423 30.7605 22.4138 30.5694 22.1313C30.3782 21.8487 30.2369 21.5329 30.1455 21.1839C30.0624 20.8265 30.0209 20.4609 30.0209 20.0869ZM28.0638 20.0869C28.0638 20.7351 28.1635 21.3418 28.363 21.9069C28.5624 22.4637 28.8491 22.9498 29.2231 23.3653C29.597 23.7809 30.0541 24.1091 30.5943 24.3501C31.1428 24.5828 31.7577 24.6991 32.4392 24.6991C33.1289 24.6991 33.7439 24.5828 34.2841 24.3501C34.8242 24.1091 35.2813 23.7809 35.6553 23.3653C36.0292 22.9498 36.3159 22.4637 36.5154 21.9069C36.7148 21.3418 36.8146 20.7351 36.8146 20.0869C36.8146 19.4221 36.7148 18.8071 36.5154 18.242C36.3159 17.6686 36.0292 17.17 35.6553 16.7462C35.2813 16.3224 34.8242 15.9899 34.2841 15.7489C33.7439 15.508 33.1289 15.3875 32.4392 15.3875C31.7577 15.3875 31.1428 15.508 30.5943 15.7489C30.0541 15.9899 29.597 16.3224 29.2231 16.7462C28.8491 17.17 28.5624 17.6686 28.363 18.242C28.1635 18.8071 28.0638 19.4221 28.0638 20.0869Z" fill="#333333"/>
<path d="M38.1846 23.9936H38.9399C38.9399 23.8899 38.9491 23.7863 38.9676 23.6826C38.9899 23.5752 39.025 23.4789 39.0732 23.3938C39.1213 23.3049 39.1842 23.2346 39.262 23.1827C39.3435 23.1272 39.4416 23.0994 39.5563 23.0994C39.7267 23.0994 39.8655 23.1531 39.9729 23.2605C40.084 23.3642 40.1395 23.5104 40.1395 23.6992C40.1395 23.8177 40.1117 23.9232 40.0562 24.0158C40.0043 24.1084 39.9377 24.1917 39.8562 24.2657C39.7785 24.3398 39.6915 24.4083 39.5952 24.4712C39.499 24.5305 39.4082 24.5897 39.3231 24.6489C39.1565 24.7637 38.9973 24.8766 38.8455 24.9877C38.6974 25.0988 38.5678 25.221 38.4567 25.3543C38.3456 25.4839 38.2568 25.632 38.1901 25.7986C38.1272 25.9652 38.0957 26.1614 38.0957 26.3873H40.9503V25.7097H39.112C39.2083 25.5764 39.3194 25.4598 39.4453 25.3598C39.5712 25.2599 39.7007 25.1673 39.834 25.0821C39.9673 24.9933 40.0988 24.9044 40.2284 24.8156C40.3616 24.7267 40.4801 24.6286 40.5838 24.5212C40.6875 24.4101 40.7708 24.2842 40.8337 24.1435C40.8967 24.0028 40.9281 23.8344 40.9281 23.6382C40.9281 23.4493 40.8911 23.279 40.8171 23.1272C40.7467 22.9754 40.6504 22.8477 40.5283 22.744C40.4061 22.6403 40.2635 22.5607 40.1006 22.5052C39.9414 22.4496 39.7729 22.4219 39.5952 22.4219C39.362 22.4219 39.1546 22.4626 38.9732 22.5441C38.7955 22.6218 38.6474 22.7329 38.5289 22.8773C38.4104 23.018 38.3216 23.1846 38.2623 23.3771C38.2031 23.566 38.1772 23.7714 38.1846 23.9936Z" fill="#333333"/>
</svg>
