<svg viewBox="0 0 51 51" fill="none" xmlns="http://www.w3.org/2000/svg">
<circle cx="25.5" cy="25.5" r="25" stroke="#333333"/>
<path d="M22.1352 3.03125L23.1455 6.14067L20.5005 4.21894L17.8555 6.14067L18.8658 3.03125" stroke="#333333" stroke-linejoin="round"/>
<path d="M13.9755 6.84549C13.9086 6.63948 13.7166 6.5 13.5 6.5C13.2834 6.5 13.0914 6.63948 13.0245 6.84549L12.1264 9.60942H9.22025C9.00363 9.60942 8.81165 9.7489 8.74472 9.95492C8.67778 10.1609 8.75111 10.3866 8.92635 10.5139L11.2775 12.2221L10.3794 14.9861C10.3125 15.1921 10.3858 15.4178 10.5611 15.5451C10.7363 15.6724 10.9736 15.6724 11.1489 15.5451L13.5 13.8369L15.8511 15.5451C16.0264 15.6724 16.2637 15.6724 16.4389 15.5451C16.6142 15.4178 16.6875 15.1921 16.6206 14.9861L15.7225 12.2221L18.0736 10.5139C18.2489 10.3866 18.3222 10.1609 18.2553 9.95492C18.1883 9.7489 17.9964 9.60942 17.7798 9.60942H14.8736L13.9755 6.84549Z" stroke="#333333" stroke-linejoin="round"/>
<path d="M20.9755 15.8455C20.9086 15.6395 20.7166 15.5 20.5 15.5C20.2834 15.5 20.0914 15.6395 20.0245 15.8455L19.1264 18.6094H16.2202C16.0036 18.6094 15.8117 18.7489 15.7447 18.9549C15.6778 19.1609 15.7511 19.3866 15.9264 19.5139L18.2775 21.2221L17.3794 23.9861C17.3125 24.1921 17.3858 24.4178 17.5611 24.5451C17.7363 24.6724 17.9736 24.6724 18.1489 24.5451L20.5 22.8369L22.8511 24.5451C23.0264 24.6724 23.2637 24.6724 23.4389 24.5451C23.6142 24.4178 23.6875 24.1921 23.6206 23.9861L22.7225 21.2221L25.0736 19.5139C25.2489 19.3866 25.3222 19.1609 25.2553 18.9549C25.1883 18.7489 24.9964 18.6094 24.7798 18.6094H21.8736L20.9755 15.8455Z" stroke="#333333" stroke-linejoin="round"/>
<path d="M3.54276 20.0703L4.86528 21.0312L3.85497 24.1406L6.5 22.2188L9.14503 24.1406L8.13472 21.0312L10.7798 19.1094H7.51031L6.5 16L5.48969 19.1094H3.85497" stroke="#333333" stroke-linejoin="round"/>
<path d="M27.5 4V8M27.5 27.5V21.5M3.5 27.5H47M27.5 21.5H45.5M27.5 21.5V15M27.5 15H43M27.5 15V8M27.5 8H37.5M5.5 33.5H45.5M9 39.5H41.5M15.5 45H35" stroke="#333333" stroke-linecap="round"/>
</svg>
