<svg viewBox="0 0 45 42" fill="none" xmlns="http://www.w3.org/2000/svg">
<circle cx="21.2435" cy="20.7918" r="20.2918" stroke="#333333"/>
<path d="M35.9455 34.9507C32.1829 31.1881 26.985 28.8609 21.2435 28.8609C15.502 28.8609 10.304 31.1881 6.54144 34.9507" stroke="#333333"/>
<path d="M35.8953 6.68283C32.1368 10.416 26.9595 12.7225 21.2435 12.7225C15.5275 12.7225 10.3503 10.416 6.59174 6.68283" stroke="#333333"/>
<path d="M31.8324 20.7918C31.8324 26.4678 30.6043 31.5817 28.6434 35.2585C26.6709 38.9568 24.031 41.0836 21.2435 41.0836C18.4559 41.0836 15.816 38.9568 13.8435 35.2585C11.8826 31.5817 10.6545 26.4678 10.6545 20.7918C10.6545 15.1157 11.8826 10.0018 13.8435 6.32502C15.816 2.62673 18.4559 0.499939 21.2435 0.499939C24.031 0.499939 26.6709 2.62673 28.6434 6.32502C30.6043 10.0018 31.8324 15.1157 31.8324 20.7918Z" stroke="#333333"/>
<path d="M21.0454 0.593994V41.5836" stroke="#333333"/>
<path d="M41.7382 20.7917L0.748569 20.7917" stroke="#333333"/>
<circle cx="36.3576" cy="33.2669" r="7.81673" fill="white" stroke="#333333"/>
<mask id="path-8-inside-1" fill="white">
<path fill-rule="evenodd" clip-rule="evenodd" d="M35.4035 30.3285L35.4034 30.3285C34.4022 29.3273 32.7789 29.3273 31.7777 30.3285C30.7765 31.3297 30.7765 32.953 31.7777 33.9542L31.7884 33.9649L32.7319 34.9083L32.7319 34.9083L36.3576 38.534L36.3576 38.534L36.3576 38.534L39.9833 34.9083L39.9833 34.9083L40.9307 33.9609C40.933 33.9587 40.9352 33.9564 40.9374 33.9542C41.9386 32.953 41.9386 31.3297 40.9374 30.3285C39.9362 29.3273 38.3129 29.3273 37.3117 30.3285C37.3117 30.3285 37.3117 30.3285 37.3117 30.3285L37.3117 30.3285L36.3576 31.2826L35.4035 30.3285L35.4035 30.3285Z"/>
</mask>
<path d="M35.4035 30.3285L34.6963 31.0357L35.4035 31.7428L36.1106 31.0357L35.4035 30.3285ZM31.7777 33.9542L31.0706 34.6613L31.0726 34.6633L31.7777 33.9542ZM31.7884 33.9649L32.4956 33.2578L32.4935 33.2557L31.7884 33.9649ZM32.7319 34.9083L33.439 35.6154L34.1461 34.9083L33.439 34.2012L32.7319 34.9083ZM32.7319 34.9083L32.0248 34.2012L31.3177 34.9083L32.0248 35.6154L32.7319 34.9083ZM36.3576 38.534L35.6505 39.2411L36.3576 39.9482L37.0647 39.2411L36.3576 38.534ZM36.3576 38.534L37.0647 37.8269L36.3576 37.1198L35.6505 37.8269L36.3576 38.534ZM36.3576 38.534L35.6505 39.2411L36.3576 39.9482L37.0647 39.2411L36.3576 38.534ZM39.9833 34.9083L40.6904 35.6154L41.3975 34.9083L40.6904 34.2012L39.9833 34.9083ZM39.9833 34.9083L39.2762 34.2012L38.5691 34.9083L39.2762 35.6154L39.9833 34.9083ZM40.9307 33.9609L40.2262 33.2512L40.2236 33.2538L40.9307 33.9609ZM37.3117 30.3285L36.6046 29.6214L37.3117 30.3285ZM37.3117 30.3285L36.6046 31.0356L37.3117 31.7427L38.0188 31.0356L37.3117 30.3285ZM37.3117 30.3285L38.0188 29.6214L37.3117 28.9143L36.6046 29.6214L37.3117 30.3285ZM36.3576 31.2826L35.6505 31.9897L36.3576 32.6968L37.0647 31.9897L36.3576 31.2826ZM35.4035 30.3285L36.1106 29.6214L35.4035 28.9143L34.6964 29.6214L35.4035 30.3285ZM34.6963 31.0356L34.6963 31.0357L36.1106 29.6214L36.1105 29.6214L34.6963 31.0356ZM32.4848 31.0356C33.0955 30.4249 34.0856 30.4249 34.6963 31.0356L36.1105 29.6214C34.7188 28.2296 32.4623 28.2296 31.0706 29.6214L32.4848 31.0356ZM32.4848 33.2471C31.8741 32.6364 31.8741 31.6463 32.4848 31.0356L31.0706 29.6214C29.6789 31.0131 29.6789 33.2695 31.0706 34.6613L32.4848 33.2471ZM32.4935 33.2557L32.4827 33.245L31.0726 34.6633L31.0834 34.674L32.4935 33.2557ZM33.439 34.2012L32.4956 33.2578L31.0813 34.672L32.0248 35.6154L33.439 34.2012ZM33.439 35.6154L33.439 35.6154L32.0248 34.2012L32.0248 34.2012L33.439 35.6154ZM37.0647 37.8269L33.439 34.2012L32.0248 35.6154L35.6505 39.2411L37.0647 37.8269ZM35.6505 37.8269L35.6505 37.8269L37.0647 39.2411L37.0647 39.2411L35.6505 37.8269ZM37.0647 37.8269L37.0647 37.8269L35.6505 39.2411L35.6505 39.2411L37.0647 37.8269ZM39.2762 34.2012L35.6505 37.8269L37.0647 39.2411L40.6904 35.6154L39.2762 34.2012ZM39.2762 35.6154L39.2762 35.6154L40.6904 34.2012L40.6904 34.2012L39.2762 35.6154ZM40.2236 33.2538L39.2762 34.2012L40.6904 35.6154L41.6378 34.668L40.2236 33.2538ZM40.2303 33.2471C40.2289 33.2485 40.2276 33.2499 40.2262 33.2512L41.6353 34.6706C41.6384 34.6675 41.6414 34.6644 41.6445 34.6613L40.2303 33.2471ZM40.2303 31.0356C40.841 31.6463 40.841 32.6364 40.2303 33.2471L41.6445 34.6613C43.0363 33.2696 43.0363 31.0131 41.6445 29.6214L40.2303 31.0356ZM38.0188 31.0356C38.6295 30.4249 39.6196 30.4249 40.2303 31.0356L41.6445 29.6214C40.2528 28.2297 37.9964 28.2297 36.6046 29.6214L38.0188 31.0356ZM38.0188 31.0356C38.0188 31.0356 38.0188 31.0356 38.0188 31.0356C38.0188 31.0356 38.0188 31.0356 38.0188 31.0356C38.0188 31.0356 38.0188 31.0356 38.0188 31.0356L38.0188 31.0356C38.0188 31.0356 38.0188 31.0356 38.0188 31.0356C38.0188 31.0356 38.0188 31.0356 38.0188 31.0356C38.0188 31.0356 38.0188 31.0356 38.0188 31.0356C38.0188 31.0356 38.0188 31.0356 38.0188 31.0356C38.0188 31.0356 38.0188 31.0356 38.0188 31.0356C38.0188 31.0356 38.0188 31.0356 38.0188 31.0356L38.0188 31.0356L38.0188 31.0356C38.0188 31.0356 38.0188 31.0356 38.0188 31.0356C38.0188 31.0356 38.0188 31.0356 38.0188 31.0356C38.0188 31.0356 38.0188 31.0356 38.0188 31.0356C38.0188 31.0356 38.0188 31.0356 38.0188 31.0356C38.0188 31.0356 38.0188 31.0356 38.0188 31.0356C38.0188 31.0356 38.0188 31.0356 38.0188 31.0356L38.0188 31.0356C38.0188 31.0356 38.0188 31.0356 38.0188 31.0356C38.0188 31.0356 38.0188 31.0356 38.0188 31.0356C38.0188 31.0356 38.0188 31.0356 38.0188 31.0356L36.6046 29.6214C36.6046 29.6214 36.6046 29.6214 36.6046 29.6214C36.6046 29.6214 36.6046 29.6214 36.6046 29.6214C36.6046 29.6214 36.6046 29.6214 36.6046 29.6214L36.6046 29.6214C36.6046 29.6214 36.6046 29.6214 36.6046 29.6214C36.6046 29.6214 36.6046 29.6214 36.6046 29.6214C36.6046 29.6214 36.6046 29.6214 36.6046 29.6214C36.6046 29.6214 36.6046 29.6214 36.6046 29.6214C36.6046 29.6214 36.6046 29.6214 36.6046 29.6214C36.6046 29.6214 36.6046 29.6214 36.6046 29.6214L36.6046 29.6214L36.6046 29.6214C36.6046 29.6214 36.6046 29.6214 36.6046 29.6214C36.6046 29.6214 36.6046 29.6214 36.6046 29.6214C36.6046 29.6214 36.6046 29.6214 36.6046 29.6214C36.6046 29.6214 36.6046 29.6214 36.6046 29.6214C36.6046 29.6214 36.6046 29.6214 36.6046 29.6214C36.6046 29.6214 36.6046 29.6214 36.6046 29.6214L36.6046 29.6214C36.6046 29.6214 36.6046 29.6214 36.6046 29.6214C36.6046 29.6214 36.6046 29.6214 36.6046 29.6214C36.6046 29.6214 36.6046 29.6214 36.6046 29.6214L38.0188 31.0356ZM36.6046 31.0356L36.6046 31.0356L38.0188 29.6214L38.0188 29.6214L36.6046 31.0356ZM37.0647 31.9897L38.0188 31.0356L36.6046 29.6214L35.6505 30.5755L37.0647 31.9897ZM34.6964 31.0356L35.6505 31.9897L37.0647 30.5755L36.1106 29.6214L34.6964 31.0356ZM36.1106 31.0357L36.1106 31.0356L34.6964 29.6214L34.6963 29.6214L36.1106 31.0357Z" fill="#333333" mask="url(#path-8-inside-1)"/>
</svg>
