<svg viewBox="0 0 71 45" fill="none" xmlns="http://www.w3.org/2000/svg">
<path d="M39.7295 35.287C35.6537 32.2302 33.769 27.8675 32.3828 19.716C31.1648 12.2046 24.6489 6.46973 16.7936 6.46973C8.07103 6.46973 1 13.5408 1 22.2633C1 30.1186 6.73488 36.6345 14.2462 37.8525C15.0755 37.987 15.9264 38.0569 16.7936 38.0569V43.6067" stroke="#333333" stroke-width="1.5" stroke-linecap="round" stroke-linejoin="round"/>
<path d="M37.4968 11.1677C38.11 10.5545 38.7611 10.0022 39.4425 9.51096C45.6151 5.06089 54.2777 5.61314 59.8323 11.1677C66 17.3355 66 27.3354 59.8323 33.5032C54.2777 39.0578 45.9021 39.737 39.7295 35.2869" stroke="#333333" stroke-width="1.5" stroke-linecap="round"/>
<path d="M41.7131 15.3833C42.0852 15.0112 42.4803 14.6761 42.8938 14.378C46.6393 11.6777 51.8958 12.0128 55.2663 15.3833C59.009 19.1259 59.009 25.1939 55.2663 28.9365C53.6269 30.576 51.5825 31.5155 49.4839 31.7373" stroke="#333333" stroke-width="1.5" stroke-linecap="round"/>
<path d="M22.5416 14.1519C20.8029 12.9506 18.6358 12.3285 16.3182 12.501C11.0273 12.8948 7.05681 17.493 7.44972 22.7713C7.80358 27.5247 12.1683 31.4465 16.7793 31.8444L16.7793 25.9592" stroke="#333333" stroke-width="1.5" stroke-linecap="round" stroke-linejoin="round"/>
<path d="M17.0668 26L28.5 34.5L17.0664 43.6065" stroke="#333333" stroke-width="1.5" stroke-linecap="round" stroke-linejoin="round"/>
</svg>
