<svg viewBox="0 0 62 55" fill="none" xmlns="http://www.w3.org/2000/svg">
<path d="M36.788 1.16557C36.5949 1.12516 36.4057 1.24892 36.3653 1.44198C36.3249 1.63504 36.4486 1.8243 36.6417 1.86471L36.788 1.16557ZM55.4796 22.4701C55.5025 22.666 55.6799 22.8062 55.8758 22.7833C56.0717 22.7603 56.212 22.5829 56.189 22.387L55.4796 22.4701ZM37.8506 2.15087C38.0413 2.20131 38.2367 2.08762 38.2872 1.89693C38.3376 1.70624 38.2239 1.51077 38.0332 1.46034L37.8506 2.15087ZM42.8076 3.2747C42.6315 3.1858 42.4167 3.25646 42.3278 3.43253C42.2389 3.6086 42.3096 3.82341 42.4857 3.91231L42.8076 3.2747ZM44.6408 5.14513C44.8067 5.25182 45.0277 5.20383 45.1343 5.03793C45.241 4.87204 45.1931 4.65106 45.0272 4.54436L44.6408 5.14513ZM49.0142 7.73563C48.8738 7.59716 48.6477 7.59877 48.5092 7.73924C48.3707 7.87971 48.3723 8.10583 48.5128 8.2443L49.0142 7.73563ZM50.1889 10.0764C50.3143 10.2286 50.5394 10.2503 50.6916 10.1249C50.8438 9.99942 50.8655 9.77433 50.7401 9.62212L50.1889 10.0764ZM53.5638 13.8777C53.4723 13.7029 53.2565 13.6354 53.0817 13.7268C52.907 13.8182 52.8394 14.0341 52.9309 14.2088L53.5638 13.8777ZM53.9655 16.4655C54.0383 16.6489 54.2459 16.7385 54.4292 16.6658C54.6125 16.593 54.7022 16.3854 54.6295 16.2021L53.9655 16.4655ZM56.0071 21.1203C55.974 20.9259 55.7895 20.7951 55.5951 20.8282C55.4006 20.8613 55.2698 21.0458 55.3029 21.2402L56.0071 21.1203ZM36.6417 1.86471C37.0485 1.94986 37.4516 2.04534 37.8506 2.15087L38.0332 1.46034C37.6223 1.35163 37.2071 1.25328 36.788 1.16557L36.6417 1.86471ZM42.4857 3.91231C43.227 4.28663 43.9462 4.6984 44.6408 5.14513L45.0272 4.54436C44.3118 4.08431 43.5711 3.66023 42.8076 3.2747L42.4857 3.91231ZM48.5128 8.2443C49.1023 8.8255 49.6619 9.43705 50.1889 10.0764L50.7401 9.62212C50.1974 8.96376 49.6213 8.33406 49.0142 7.73563L48.5128 8.2443ZM52.9309 14.2088C53.3132 14.9397 53.6589 15.6927 53.9655 16.4655L54.6295 16.2021C54.3137 15.4061 53.9576 14.6304 53.5638 13.8777L52.9309 14.2088ZM55.3029 21.2402C55.3722 21.6468 55.4311 22.0568 55.4796 22.4701L56.189 22.387C56.1391 21.9614 56.0784 21.5391 56.0071 21.1203L55.3029 21.2402ZM36.8612 0.815998C36.475 0.735188 36.0965 0.982694 36.0157 1.36882C35.9349 1.75494 36.1824 2.13347 36.5685 2.21428L36.8612 0.815998ZM55.1248 22.5117C55.1708 22.9035 55.5256 23.1839 55.9174 23.138C56.3092 23.0921 56.5896 22.7372 56.5437 22.3454L55.1248 22.5117ZM37.7593 2.49614C38.1406 2.59702 38.5316 2.36963 38.6324 1.98826C38.7333 1.60689 38.5059 1.21594 38.1246 1.11507L37.7593 2.49614ZM42.9686 2.9559C42.6165 2.77808 42.1868 2.91941 42.009 3.27155C41.8312 3.62369 41.9725 4.0533 42.3247 4.23112L42.9686 2.9559ZM44.4476 5.44551C44.7794 5.6589 45.2213 5.56292 45.4347 5.23112C45.6481 4.89933 45.5521 4.45737 45.2203 4.24398L44.4476 5.44551ZM49.265 7.4813C48.984 7.20435 48.5318 7.20758 48.2548 7.48851C47.9779 7.76945 47.9811 8.2217 48.2621 8.49864L49.265 7.4813ZM49.9133 10.3036C50.1642 10.608 50.6144 10.6514 50.9188 10.4005C51.2232 10.1496 51.2666 9.69938 51.0157 9.39497L49.9133 10.3036ZM53.8802 13.7121C53.6973 13.3626 53.2657 13.2275 52.9162 13.4104C52.5666 13.5932 52.4315 14.0248 52.6144 14.3744L53.8802 13.7121ZM53.6336 16.5972C53.779 16.9639 54.1942 17.1432 54.5609 16.9977C54.9276 16.8523 55.1069 16.4371 54.9614 16.0704L53.6336 16.5972ZM56.3592 21.0604C56.293 20.6715 55.924 20.4099 55.5351 20.4761C55.1462 20.5423 54.8847 20.9113 54.9509 21.3002L56.3592 21.0604ZM36.5685 2.21428C36.9693 2.29815 37.3663 2.3922 37.7593 2.49614L38.1246 1.11507C37.7076 1.00477 37.2864 0.904984 36.8612 0.815998L36.5685 2.21428ZM42.3247 4.23112C43.0549 4.59983 43.7633 5.00544 44.4476 5.44551L45.2203 4.24398C44.4947 3.77727 43.7432 3.34704 42.9686 2.9559L42.3247 4.23112ZM48.2621 8.49864C48.8429 9.07122 49.3941 9.6737 49.9133 10.3036L51.0157 9.39497C50.4652 8.72712 49.8808 8.08835 49.265 7.4813L48.2621 8.49864ZM52.6144 14.3744C52.9911 15.0943 53.3316 15.836 53.6336 16.5972L54.9614 16.0704C54.641 15.2628 54.2798 14.4758 53.8802 13.7121L52.6144 14.3744ZM54.9509 21.3002C55.019 21.7006 55.0771 22.1046 55.1248 22.5117L56.5437 22.3454C56.4931 21.9137 56.4315 21.4852 56.3592 21.0604L54.9509 21.3002Z" fill="#333333"/>
<path d="M5.49492 25.7908C5.77387 26.0697 6.22613 26.0697 6.50508 25.7908L11.0508 21.2451C11.3297 20.9662 11.3297 20.5139 11.0508 20.235C10.7718 19.956 10.3196 19.956 10.0406 20.235L6 24.2756L1.95939 20.235C1.68044 19.956 1.22818 19.956 0.949237 20.235C0.670291 20.5139 0.670291 20.9662 0.949237 21.2451L5.49492 25.7908ZM6.71429 25.2857C6.71429 12.3055 17.8682 1.71429 31.7143 1.71429V0.285714C17.1572 0.285714 5.28571 11.4407 5.28571 25.2857H6.71429Z" fill="#333333"/>
<path d="M56.5051 29.0661C56.2261 28.7872 55.7739 28.7872 55.4949 29.0661L50.9492 33.6118C50.6703 33.8908 50.6703 34.343 50.9492 34.622C51.2282 34.9009 51.6804 34.9009 51.9594 34.622L56 30.5814L60.0406 34.622C60.3196 34.9009 60.7718 34.9009 61.0508 34.622C61.3297 34.343 61.3297 33.8908 61.0508 33.6118L56.5051 29.0661ZM55.2857 29.5712C55.2857 42.5894 44.7324 53.1426 31.7143 53.1426L31.7143 54.5712C45.5214 54.5712 56.7143 43.3783 56.7143 29.5712L55.2857 29.5712Z" fill="#333333"/>
<path d="M27.3718 53.874C27.5667 53.9049 27.7496 53.7719 27.7805 53.5771C27.8113 53.3823 27.6784 53.1994 27.4836 53.1685L27.3718 53.874ZM6.62815 33.0878C6.59773 32.8929 6.41509 32.7595 6.22021 32.7899C6.02532 32.8204 5.89199 33.003 5.9224 33.1979L6.62815 33.0878ZM26.2135 52.9355C26.0204 52.8952 25.8313 53.0191 25.791 53.2122C25.7507 53.4053 25.8745 53.5945 26.0676 53.6348L26.2135 52.9355ZM21.0161 52.0509C21.1975 52.1282 21.4073 52.0437 21.4846 51.8622C21.5618 51.6808 21.4774 51.471 21.2959 51.3937L21.0161 52.0509ZM18.9762 50.2665C18.8034 50.1715 18.5862 50.2347 18.4913 50.4076C18.3963 50.5805 18.4595 50.7976 18.6324 50.8926L18.9762 50.2665ZM14.2714 47.8877C14.4216 48.0155 14.647 47.9974 14.7749 47.8472C14.9027 47.697 14.8846 47.4716 14.7344 47.3438L14.2714 47.8877ZM12.8607 45.5736C12.7245 45.4308 12.4984 45.4255 12.3557 45.5616C12.213 45.6978 12.2076 45.9238 12.3438 46.0665L12.8607 45.5736ZM9.11372 41.8664C9.21646 42.0347 9.43624 42.0879 9.60462 41.9852C9.77299 41.8824 9.82619 41.6627 9.72345 41.4943L9.11372 41.8664ZM8.50476 39.2255C8.42118 39.0468 8.20859 38.9698 8.02993 39.0534C7.85127 39.1369 7.77419 39.3495 7.85778 39.5282L8.50476 39.2255ZM6.16458 34.5044C6.20603 34.6973 6.39596 34.82 6.5888 34.7786C6.78164 34.7371 6.90436 34.5472 6.86291 34.3543L6.16458 34.5044ZM27.4836 53.1685C27.0565 53.1008 26.6331 53.0231 26.2135 52.9355L26.0676 53.6348C26.4985 53.7247 26.9333 53.8045 27.3718 53.874L27.4836 53.1685ZM21.2959 51.3937C20.4999 51.0548 19.7259 50.6783 18.9762 50.2665L18.6324 50.8926C19.4028 51.3158 20.1982 51.7027 21.0161 52.0509L21.2959 51.3937ZM14.7344 47.3438C14.0777 46.7847 13.4522 46.1938 12.8607 45.5736L12.3438 46.0665C12.9525 46.7048 13.596 47.3127 14.2714 47.8877L14.7344 47.3438ZM9.72345 41.4943C9.27629 40.7615 8.86913 40.0044 8.50476 39.2255L7.85778 39.5282C8.2334 40.3311 8.65302 41.1114 9.11372 41.8664L9.72345 41.4943ZM6.86291 34.3543C6.77298 33.936 6.69461 33.5137 6.62815 33.0878L5.9224 33.1979C5.99097 33.6373 6.07181 34.0729 6.16458 34.5044L6.86291 34.3543ZM27.316 54.2267C27.7056 54.2885 28.0715 54.0227 28.1332 53.633C28.195 53.2434 27.9291 52.8775 27.5395 52.8158L27.316 54.2267ZM6.98102 33.0327C6.92019 32.6429 6.55491 32.3763 6.16514 32.4371C5.77537 32.4979 5.5087 32.8632 5.56953 33.253L6.98102 33.0327ZM26.2865 52.5859C25.9003 52.5053 25.5219 52.7531 25.4414 53.1392C25.3608 53.5254 25.6085 53.9038 25.9947 53.9844L26.2865 52.5859ZM20.8762 52.3795C21.2391 52.5341 21.6586 52.3651 21.8132 52.0021C21.9677 51.6392 21.7988 51.2197 21.4358 51.0651L20.8762 52.3795ZM19.1482 49.9535C18.8024 49.7636 18.3682 49.8899 18.1782 50.2357C17.9883 50.5814 18.1147 51.0157 18.4604 51.2056L19.1482 49.9535ZM14.0399 48.1596C14.3403 48.4153 14.7911 48.3791 15.0468 48.0787C15.3025 47.7784 15.2663 47.3276 14.9659 47.0718L14.0399 48.1596ZM13.1191 45.3271C12.8468 45.0416 12.3947 45.0309 12.1092 45.3032C11.8238 45.5755 11.8131 46.0276 12.0853 46.313L13.1191 45.3271ZM8.80885 42.0524C9.01434 42.3891 9.45391 42.4955 9.79065 42.29C10.1274 42.0846 10.2338 41.645 10.0283 41.3082L8.80885 42.0524ZM8.82825 39.0742C8.66108 38.7168 8.23591 38.5627 7.87859 38.7299C7.52127 38.897 7.36712 39.3222 7.53428 39.6795L8.82825 39.0742ZM5.81541 34.5795C5.89832 34.9652 6.27819 35.2106 6.66386 35.1277C7.04954 35.0448 7.29498 34.6649 7.21207 34.2793L5.81541 34.5795ZM27.5395 52.8158C27.1181 52.749 26.7004 52.6723 26.2865 52.5859L25.9947 53.9844C26.4312 54.0755 26.8717 54.1563 27.316 54.2267L27.5395 52.8158ZM21.4358 51.0651C20.6508 50.7309 19.8874 50.3595 19.1482 49.9535L18.4604 51.2056C19.2412 51.6345 20.0474 52.0266 20.8762 52.3795L21.4358 51.0651ZM14.9659 47.0718C14.3186 46.5208 13.7021 45.9383 13.1191 45.3271L12.0853 46.313C12.7027 46.9603 13.3552 47.5767 14.0399 48.1596L14.9659 47.0718ZM10.0283 41.3082C9.58792 40.5866 9.187 39.841 8.82825 39.0742L7.53428 39.6795C7.91554 40.4945 8.34139 41.2863 8.80885 42.0524L10.0283 41.3082ZM7.21207 34.2793C7.12357 33.8675 7.04644 33.4519 6.98102 33.0327L5.56953 33.253C5.63914 33.6991 5.72122 34.1414 5.81541 34.5795L7.21207 34.2793Z" fill="#333333"/>
<path d="M35.9048 21H29.6411C27.6302 21 26 22.6302 26 24.6411V24.6411C26 26.652 27.6302 28.2822 29.6411 28.2822H33.2125C35.541 28.2822 37.4286 30.1698 37.4286 32.4983V32.4983C37.4286 34.8267 35.541 36.7143 33.2125 36.7143H27.5238" stroke="#333333" stroke-width="1.42857" stroke-linecap="round"/>
<path d="M31.7148 16.7141V40.9998" stroke="#333333" stroke-width="1.42857" stroke-linecap="round"/>
</svg>
