<svg viewBox="0 0 57 72" fill="none" xmlns="http://www.w3.org/2000/svg">
<path d="M1 17L9 21.5M8 8L14 15.5M17.5 3L20.5 11M28.5 1V10M39 3L36 11M48.5 8.5L43 15.5M55.5 17L47.5 21.5" stroke="black" stroke-width="1.51517" stroke-linecap="round" stroke-linejoin="round"/>
<path d="M32.5 33H25L19.5 19C18.138 17.1273 15.1804 17.9737 15.0155 20.2835L15 20.5L23 41.5L19.5 64.5C19.8535 67.151 23.2845 67.9779 24.8069 65.779L25 65.5L27 51.5H30.5L31.5 65.5L31.6501 65.8252C32.6505 67.9928 35.7979 67.7818 36.5 65.5L34.5 41.5L41.5 20.5V20.2111C41.5 18.0509 38.6983 17.2026 37.5 19L32.5 33Z" stroke="black" stroke-width="1.5" stroke-linecap="round" stroke-linejoin="round"/>
<circle cx="28.5" cy="26.5" r="3.25" stroke="black" stroke-width="1.5"/>
</svg>
