<svg viewBox="0 0 36 43" fill="none" xmlns="http://www.w3.org/2000/svg">
<mask id="path-1-inside-1" fill="white">
<path fill-rule="evenodd" clip-rule="evenodd" d="M20.4423 28.5811L20.4422 28.5811C19.441 27.5799 17.8177 27.5799 16.8165 28.5811C15.8153 29.5823 15.8153 31.2056 16.8165 32.2068L16.8273 32.2175L17.7707 33.1609L17.7707 33.1609L21.3964 36.7866L21.3964 36.7866L21.3964 36.7866L25.0221 33.1609L25.0221 33.1609L25.9695 32.2135C25.9718 32.2113 25.974 32.209 25.9762 32.2068C26.9775 31.2056 26.9775 29.5823 25.9762 28.5811C24.975 27.5799 23.3518 27.5799 22.3506 28.5811C22.3506 28.5811 22.3505 28.5811 22.3505 28.5811L22.3505 28.5811L21.3964 29.5352L20.4423 28.5811L20.4423 28.5811Z"/>
</mask>
<path d="M20.4422 28.5811L19.7351 29.2882L20.4422 28.5811ZM20.4423 28.5811L19.7352 29.2882L20.4423 29.9954L21.1494 29.2882L20.4423 28.5811ZM16.8165 32.2068L16.1094 32.9139L16.1115 32.9159L16.8165 32.2068ZM16.8273 32.2175L17.5344 31.5104L17.5323 31.5083L16.8273 32.2175ZM17.7707 33.1609L18.4778 33.868L19.1849 33.1609L18.4778 32.4538L17.7707 33.1609ZM17.7707 33.1609L17.0636 32.4538L16.3565 33.1609L17.0636 33.868L17.7707 33.1609ZM21.3964 36.7866L20.6893 37.4937L21.3964 38.2008L22.1035 37.4937L21.3964 36.7866ZM21.3964 36.7866L22.1035 36.0795L21.3964 35.3724L20.6893 36.0795L21.3964 36.7866ZM21.3964 36.7866L20.6893 37.4937L21.3964 38.2008L22.1035 37.4937L21.3964 36.7866ZM25.0221 33.1609L25.7292 33.868L26.4363 33.1609L25.7292 32.4538L25.0221 33.1609ZM25.0221 33.1609L24.315 32.4538L23.6079 33.1609L24.315 33.868L25.0221 33.1609ZM25.9695 32.2135L25.265 31.5038L25.2624 31.5064L25.9695 32.2135ZM22.3506 28.5811L21.6434 27.874L22.3506 28.5811ZM22.3505 28.5811L21.6434 29.2882L22.3505 29.9953L23.0577 29.2882L22.3505 28.5811ZM22.3505 28.5811L23.0576 27.874L22.3505 27.1669L21.6434 27.874L22.3505 28.5811ZM21.3964 29.5352L20.6893 30.2423L21.3964 30.9494L22.1035 30.2423L21.3964 29.5352ZM20.4423 28.5811L21.1494 27.874L20.4423 27.1669L19.7352 27.874L20.4423 28.5811ZM19.7351 29.2882L19.7352 29.2882L21.1494 27.874L21.1493 27.874L19.7351 29.2882ZM17.5236 29.2882C18.1343 28.6775 19.1244 28.6775 19.7351 29.2882L21.1493 27.874C19.7576 26.4822 17.5011 26.4822 16.1094 27.874L17.5236 29.2882ZM17.5236 31.4997C16.9129 30.889 16.9129 29.8989 17.5236 29.2882L16.1094 27.874C14.7177 29.2657 14.7177 31.5221 16.1094 32.9139L17.5236 31.4997ZM17.5323 31.5083L17.5216 31.4976L16.1115 32.9159L16.1222 32.9266L17.5323 31.5083ZM18.4778 32.4538L17.5344 31.5104L16.1202 32.9246L17.0636 33.868L18.4778 32.4538ZM18.4778 33.868L18.4778 33.868L17.0636 32.4538L17.0636 32.4538L18.4778 33.868ZM22.1035 36.0795L18.4778 32.4538L17.0636 33.868L20.6893 37.4937L22.1035 36.0795ZM20.6893 36.0795L20.6893 36.0795L22.1035 37.4937L22.1035 37.4937L20.6893 36.0795ZM22.1035 36.0795L22.1035 36.0795L20.6893 37.4937L20.6893 37.4937L22.1035 36.0795ZM24.315 32.4538L20.6893 36.0795L22.1035 37.4937L25.7292 33.868L24.315 32.4538ZM24.315 33.868L24.315 33.868L25.7292 32.4538L25.7292 32.4538L24.315 33.868ZM25.2624 31.5064L24.315 32.4538L25.7292 33.868L26.6766 32.9206L25.2624 31.5064ZM25.2691 31.4997C25.2678 31.5011 25.2664 31.5024 25.265 31.5038L26.6741 32.9231C26.6772 32.9201 26.6803 32.917 26.6834 32.9139L25.2691 31.4997ZM25.2691 29.2882C25.8798 29.8989 25.8798 30.889 25.2691 31.4997L26.6834 32.9139C28.0751 31.5222 28.0751 29.2657 26.6834 27.874L25.2691 29.2882ZM23.0577 29.2882C23.6683 28.6775 24.6585 28.6775 25.2691 29.2882L26.6834 27.874C25.2916 26.4823 23.0352 26.4823 21.6434 27.874L23.0577 29.2882ZM23.0577 29.2882C23.0577 29.2882 23.0577 29.2882 23.0577 29.2882C23.0577 29.2882 23.0577 29.2882 23.0577 29.2882C23.0577 29.2882 23.0577 29.2882 23.0577 29.2882L23.0577 29.2882C23.0577 29.2882 23.0577 29.2882 23.0577 29.2882C23.0577 29.2882 23.0577 29.2882 23.0577 29.2882C23.0577 29.2882 23.0577 29.2882 23.0577 29.2882C23.0577 29.2882 23.0577 29.2882 23.0577 29.2882C23.0577 29.2882 23.0577 29.2882 23.0577 29.2882C23.0577 29.2882 23.0577 29.2882 23.0577 29.2882L23.0577 29.2882L23.0577 29.2882C23.0577 29.2882 23.0577 29.2882 23.0577 29.2882C23.0577 29.2882 23.0577 29.2882 23.0577 29.2882C23.0577 29.2882 23.0577 29.2882 23.0577 29.2882C23.0577 29.2882 23.0577 29.2882 23.0577 29.2882C23.0577 29.2882 23.0577 29.2882 23.0577 29.2882C23.0577 29.2882 23.0577 29.2882 23.0577 29.2882L23.0577 29.2882C23.0577 29.2882 23.0577 29.2882 23.0577 29.2882C23.0577 29.2882 23.0577 29.2882 23.0577 29.2882C23.0577 29.2882 23.0577 29.2882 23.0577 29.2882L21.6434 27.874C21.6434 27.874 21.6434 27.874 21.6434 27.874C21.6434 27.874 21.6434 27.874 21.6434 27.874C21.6434 27.874 21.6434 27.874 21.6434 27.874L21.6434 27.874C21.6434 27.874 21.6434 27.874 21.6434 27.874C21.6434 27.874 21.6434 27.874 21.6434 27.874C21.6434 27.874 21.6434 27.874 21.6434 27.874C21.6434 27.874 21.6434 27.874 21.6434 27.874C21.6434 27.874 21.6434 27.874 21.6434 27.874C21.6434 27.874 21.6434 27.874 21.6434 27.874L21.6434 27.874L21.6434 27.874C21.6434 27.874 21.6434 27.874 21.6434 27.874C21.6434 27.874 21.6434 27.874 21.6434 27.874C21.6434 27.874 21.6434 27.874 21.6434 27.874C21.6434 27.874 21.6434 27.874 21.6434 27.874C21.6434 27.874 21.6434 27.874 21.6434 27.874C21.6434 27.874 21.6434 27.874 21.6434 27.874L21.6434 27.874C21.6434 27.874 21.6434 27.874 21.6434 27.874C21.6434 27.874 21.6434 27.874 21.6434 27.874C21.6434 27.874 21.6434 27.874 21.6434 27.874L23.0577 29.2882ZM21.6434 29.2882L21.6434 29.2882L23.0577 27.874L23.0576 27.874L21.6434 29.2882ZM22.1035 30.2423L23.0576 29.2882L21.6434 27.874L20.6893 28.8281L22.1035 30.2423ZM19.7352 29.2882L20.6893 30.2423L22.1035 28.8281L21.1494 27.874L19.7352 29.2882ZM21.1494 29.2882L21.1494 29.2882L19.7352 27.874L19.7352 27.874L21.1494 29.2882Z" fill="#333333" mask="url(#path-1-inside-1)"/>
<path d="M12.6185 24.1315C12.6185 25.9112 10.466 26.803 9.20807 25.5441L5.27114 21.6072C4.18277 20.5188 2.41884 20.5188 1.33048 21.6072C0.329706 22.6079 0.238388 24.2013 1.11896 25.3102L11.122 37.9065C13.651 40.4355 17.1453 42 21.0058 42C28.725 42 34.9831 35.7419 34.9831 28.0227V13.1136C34.9831 11.5696 33.7317 10.3182 32.1876 10.3182C30.6436 10.3182 29.3922 11.5696 29.3922 13.1136V21.5V7.52273C29.3922 5.9787 28.1408 4.72727 26.5967 4.72727C25.0527 4.72727 23.8013 5.9787 23.8013 7.52273V19.6364V17.7727V3.79545C23.8013 2.25143 22.5498 1 21.0058 1C19.4618 1 18.2104 2.25143 18.2104 3.79545V17.7727V19.6364V5.65909C18.2104 4.11507 16.9589 2.86364 15.4149 2.86364C13.8709 2.86364 12.6195 4.11507 12.6195 5.65909V19.6364L12.6185 24.1315Z" stroke="#333333" stroke-miterlimit="10" stroke-linecap="round" stroke-linejoin="round"/>
</svg>
