<svg viewBox="0 0 50 43" fill="none" xmlns="http://www.w3.org/2000/svg">
<path d="M31.2222 34.9727C31.2222 22.5282 44.5556 14.5282 49 12.7504C48.4074 14.5282 47.0444 18.6171 46.3333 20.7504C45.4444 23.4171 43.6667 32.306 36.5556 32.306M29.4444 26.9727C31.8148 23.1208 34.2444 13.8171 25 7.4171C15.7556 1.0171 5.14815 0.602286 1 1.19488C3.66667 6.52821 6.33333 15.4171 9 21.6393C11.4759 27.4165 16.1625 31.4171 24.1111 30.5282" stroke="#333333" stroke-width="1.5" stroke-linecap="round" stroke-linejoin="round"/>
<path d="M28.5553 37.6393C28.5553 23.417 11.6664 3.86149 1.88867 1.19482" stroke="#333333" stroke-width="1.5" stroke-linecap="round"/>
<path d="M9.88867 32.3059C16.1109 41.1948 28.5553 44.7504 39.222 37.6392" stroke="#333333" stroke-width="1.5" stroke-linecap="round"/>
<path d="M23.2227 2.97246C30.3338 1.19468 37.4449 4.75024 41.0004 10.0836" stroke="#333333" stroke-width="1.5" stroke-linecap="round"/>
</svg>
