<svg viewBox="0 0 56 56" fill="none" xmlns="http://www.w3.org/2000/svg">
<path d="M37.8597 24.8451C37.8264 24.7203 37.7924 24.5915 37.7578 24.4591C36.6351 20.297 33.9076 12.9741 31.1555 14.1973C28.5425 15.3586 32.1858 20.8392 34.8325 24.0622C35.0917 24.3323 35.3131 24.5953 35.4935 24.8451C35.2838 24.6039 35.0619 24.3416 34.8325 24.0622C32.1858 20.8392 28.5425 15.3586 31.1555 14.1973C33.9076 12.9741 36.6351 20.297 37.7578 24.4591C37.7934 24.5911 37.8274 24.7199 37.8597 24.8451Z" fill="#333333"/>
<path d="M21.056 26.851L20.1126 27.6057L19.1692 26.851C18.5837 26.3826 17.7396 26.4294 17.2095 26.9596C16.6348 27.5343 16.6348 28.466 17.2095 29.0406L20.1126 31.9438L23.0157 29.0406C23.5904 28.466 23.5904 27.5343 23.0157 26.9596C22.4855 26.4294 21.6415 26.3826 21.056 26.851Z" fill="#333333"/>
<path d="M31.9442 36.6761H40.6202C39.7001 36.1503 38.0174 34.862 38.6484 33.9155C39.4371 32.7324 42.9864 34.3099 44.1695 30.3662C45.116 27.2113 42.1977 25.3709 40.6202 24.8451C40.4888 22.7418 40.147 18.2197 39.8315 16.9578C39.4371 15.3803 37.8597 12.2254 36.2822 12.6197C35.0202 12.9352 36.808 20.9014 37.8597 24.8451C36.808 20.77 33.9949 12.9353 31.1555 14.1973C28.316 15.4593 32.8644 21.8216 35.4935 24.8451C33.7847 22.4789 28.3943 18.9297 22.0844 19.3241C15.2664 19.7502 11.7019 24.3359 13.0519 29.5776C11.445 30.5241 11.4363 31.9438 11.8318 32.7325C12.296 33.6584 13.4084 34.31 14.9451 33.5212C16.5633 35.9132 18.9295 36.6761 20.1137 36.6761H29.5785C29.71 36.0188 29.7363 34.5464 28.7898 33.9155C27.8433 33.2846 26.555 33.3898 26.0292 33.5212C26.6865 32.7325 28.001 30.6818 28.001 28.7888C28.001 26.8959 27.4752 25.6339 27.2123 25.2395M20.1126 27.6057L21.056 26.851C21.6415 26.3826 22.4855 26.4294 23.0157 26.9596V26.9596C23.5904 27.5343 23.5904 28.466 23.0157 29.0406L20.1126 31.9438L17.2095 29.0406C16.6348 28.466 16.6348 27.5343 17.2095 26.9596V26.9596C17.7396 26.4294 18.5837 26.3826 19.1692 26.851L20.1126 27.6057Z" stroke="#333333" stroke-width="1.5" stroke-linecap="round" stroke-linejoin="round"/>
<circle cx="40.2262" cy="28.3944" r="0.788732" fill="#333333"/>
<circle cx="28" cy="28" r="27.25" stroke="#333333" stroke-width="1.5"/>
</svg>
