<svg viewBox="0 0 61 62" fill="none" xmlns="http://www.w3.org/2000/svg">
<path d="M14.4695 36.8654L22.0716 34.2589C22.4655 34.1239 22.8957 34.1403 23.2782 34.305L37.1259 40.2672C38.4988 40.8583 39.162 42.4263 38.6299 43.8231V43.8231C38.1084 45.192 36.6172 45.9245 35.2151 45.5006L27.6123 43.2021L36.3183 46.0315C36.7538 46.1731 37.2281 46.1303 37.6312 45.9133L49.867 39.3248C51.2447 38.5829 52.9569 38.947 53.9137 40.1851V40.1851C55.1298 41.7589 54.6297 44.0491 52.8683 44.9728L37.5683 52.996C37.2024 53.1878 36.7786 53.2378 36.3781 53.1364L19.398 48.8347M19.398 48.8347L12.9707 33.542C12.7598 33.0402 12.1879 32.7973 11.6803 32.9938L6.28113 35.0838C5.75277 35.2883 5.49751 35.8886 5.71679 36.4111L12.9175 53.5656C13.1282 54.0677 13.7002 54.3109 14.208 54.1144L19.6093 52.0235C20.1367 51.8194 20.3922 51.2207 20.1747 50.6987L19.398 48.8347Z" stroke="#333333" stroke-width="1.5" stroke-linecap="round" stroke-linejoin="round"/>
<path d="M43.1251 28.085C40.867 21.192 44.9666 13.8039 52.0104 12.0725C54.1337 18.9531 50.087 26.2458 43.1251 28.085Z" stroke="#333333" stroke-width="1.5" stroke-linecap="round"/>
<path d="M38.5972 31.9879C31.3486 31.7231 25.8339 25.3216 26.645 18.1136C33.8354 18.5006 39.2789 24.8195 38.5972 31.9879Z" stroke="#333333" stroke-width="1.5" stroke-linecap="round"/>
</svg>
