<svg viewBox="0 0 87 73" fill="none" xmlns="http://www.w3.org/2000/svg">
<path d="M58.5067 26.2268C51.0861 29.0684 44.5054 33.7417 39.3773 39.8114C34.2492 45.8812 30.7406 53.15 29.1782 60.9409L75.3454 70.1994L58.5067 26.2268Z" fill="white"/>
<path fill-rule="evenodd" clip-rule="evenodd" d="M28.5896 61.3328L28.688 60.8426C30.2669 52.9689 33.8128 45.6229 38.9954 39.4887C44.1779 33.3545 50.8285 28.6316 58.3279 25.7598L58.7948 25.581L76.1369 70.868L28.5896 61.3328ZM29.7694 60.5495L74.5539 69.5307L58.2195 26.875C51.0682 29.7019 44.7253 34.2561 39.7592 40.1341C34.7932 46.012 31.3622 53.0265 29.7694 60.5495Z" fill="#333333"/>
<circle cx="12.6973" cy="59.8469" r="4.61632" fill="white" stroke="#333333"/>
<circle cx="65.1258" cy="11.6892" r="4.43779" fill="white" stroke="#333333"/>
<circle cx="40.3843" cy="5.20936" r="3.05436" fill="white" stroke="#333333"/>
<circle cx="7.09647" cy="37.0257" r="4.09214" fill="white" stroke="#333333"/>
<path d="M53.5649 3.88388C51.1104 6.48567 46.8199 13.3387 49.294 19.9364" stroke="#333333"/>
<path d="M29.707 0.202087C28.8234 6.43657 28.7939 20.555 35.7451 27.1527" stroke="#333333"/>
<path d="M3.92955 50.2775C6.57467 47.8698 13.5031 43.7021 20.0557 46.2935" stroke="#333333"/>
<path d="M0.673444 26.3578C6.92268 25.5855 21.0394 25.8077 27.5122 32.8754" stroke="#333333"/>
<path d="M12.6973 3.22879L15.3801 7.82826L19.9795 10.5111L15.3801 13.1939L12.6973 17.7933L10.0144 13.1939L5.41498 10.5111L10.0144 7.82826L12.6973 3.22879Z" fill="white" stroke="#333333"/>
</svg>
