<svg viewBox="0 0 75 69" fill="none" xmlns="http://www.w3.org/2000/svg">
<rect x="1.34692" y="22.3484" width="72.3061" height="45.3574" stroke="#333333"/>
<rect width="72.3061" height="13.625" transform="matrix(1 0 0 -1 1.34692 22.3484)" stroke="#333333"/>
<path d="M12.9088 0.881775H20.9088V13.6318C20.9088 15.8409 19.118 17.6318 16.9088 17.6318C14.6997 17.6318 12.9088 15.8409 12.9088 13.6318V0.881775Z" fill="white" stroke="#333333"/>
<path d="M54.0911 0.881775H62.0911V13.6318C62.0911 15.8409 60.3003 17.6318 58.0911 17.6318C55.882 17.6318 54.0911 15.8409 54.0911 13.6318V0.881775Z" fill="white" stroke="#333333"/>
<rect x="12.4088" y="31.2234" width="12.0259" height="10.5497" stroke="#333333"/>
<rect x="31.4871" y="31.2234" width="12.0259" height="10.5497" stroke="#333333"/>
<rect x="50.5652" y="31.2234" width="12.0259" height="10.5497" stroke="#333333"/>
<rect x="12.4088" y="47.7731" width="12.0259" height="10.5497" stroke="#333333"/>
<rect x="31.4871" y="47.7731" width="12.0259" height="10.5497" stroke="#333333"/>
<rect x="50.5652" y="47.7731" width="12.0259" height="10.5497" stroke="#333333"/>
<path d="M54.2006 52.2234L56.9506 54.9734L65.5756 44.7234" stroke="#333333"/>
</svg>
