<svg viewBox="0 0 25 25" fill="none" xmlns="http://www.w3.org/2000/svg">
<path d="M22.4999 17.295V20.295C22.5011 20.5735 22.444 20.8491 22.3324 21.1043C22.2209 21.3595 22.0572 21.5886 21.852 21.7768C21.6468 21.9651 21.4045 22.1085 21.1407 22.1977C20.8769 22.2869 20.5973 22.32 20.3199 22.295C17.2428 21.9606 14.2869 20.9091 11.6899 19.225C9.27376 17.6896 7.22527 15.6411 5.68993 13.225C3.99991 10.6162 2.94818 7.64597 2.61993 4.55497C2.59494 4.27844 2.62781 3.99974 2.71643 3.7366C2.80506 3.47346 2.9475 3.23166 3.1347 3.0266C3.32189 2.82153 3.54974 2.65768 3.80372 2.5455C4.05771 2.43331 4.33227 2.37524 4.60993 2.37497H7.60993C8.09524 2.3702 8.56572 2.54205 8.93369 2.85851C9.30166 3.17496 9.54201 3.61442 9.60993 4.09497C9.73656 5.05504 9.97138 5.9977 10.3099 6.90497C10.4445 7.2629 10.4736 7.65189 10.3938 8.02586C10.3141 8.39982 10.1288 8.74309 9.85993 9.01498L8.58993 10.285C10.0135 12.7885 12.0864 14.8614 14.5899 16.285L15.8599 15.015C16.1318 14.7461 16.4751 14.5608 16.8491 14.4811C17.223 14.4013 17.612 14.4304 17.9699 14.565C18.8772 14.9035 19.8199 15.1384 20.7799 15.265C21.2657 15.3335 21.7093 15.5782 22.0265 15.9525C22.3436 16.3268 22.5121 16.8046 22.4999 17.295Z" stroke="#333333" stroke-linecap="round" stroke-linejoin="round"/>
</svg>
