<svg viewBox="0 0 25 24" fill="none" xmlns="http://www.w3.org/2000/svg">
<path d="M12.4102 22C17.933 22 22.4102 17.5228 22.4102 12C22.4102 6.47715 17.933 2 12.4102 2C6.88731 2 2.41016 6.47715 2.41016 12C2.41016 17.5228 6.88731 22 12.4102 22Z" stroke="#333333" stroke-linecap="round" stroke-linejoin="round"/>
<path d="M9.5 9.00008C9.7351 8.33175 10.1992 7.76819 10.81 7.40921C11.4208 7.05024 12.1389 6.91902 12.8372 7.03879C13.5355 7.15857 14.1688 7.52161 14.6251 8.06361C15.0813 8.60561 15.3311 9.2916 15.33 10.0001C15.33 12.0001 12.33 13.0001 12.33 13.0001V13.9688" stroke="#333333" stroke-linecap="round" stroke-linejoin="round"/>
<path d="M12.4102 17H12.4202" stroke="#333333" stroke-linecap="round" stroke-linejoin="round"/>
</svg>
