<?xml version="1.0" encoding="utf-8"?>
<!-- Generator: Adobe Illustrator 27.1.1, SVG Export Plug-In . SVG Version: 6.00 Build 0)  -->
<svg version="1.1" id="Layer_1" xmlns="http://www.w3.org/2000/svg" xmlns:xlink="http://www.w3.org/1999/xlink" x="0px" y="0px"
	 viewBox="0 0 252 252" style="enable-background:new 0 0 252 252;" xml:space="preserve">
<style type="text/css">
	.st0{fill:#0C0D0D;}
	.st1{fill:#FFFFFF;}
	.st2{fill:#929497;}
</style>
<circle class="st0" cx="126" cy="126" r="126"/>
<g>
	<g>
		<path class="st1" d="M128.4,50.9c1.6-2.4,4.3-4.1,7.7-4.1c5.3,0,9.3,4.1,9.3,9.3c0,5.3-4.1,9.2-9.3,9.2c-3.6,0-6.6-1.9-8.1-4.7
			c-0.8,1.4-1.8,3.5-2.4,5.3l-0.9-0.7C124.7,61.3,125.4,54.9,128.4,50.9z"/>
		<path class="st1" d="M58.4,176.9c3.9-7.6,10.4-7.6,13.7-4.4c5.3,5,2.8,13.9-6.5,15.8c-4,0.8-9.9,2.4-9.8,6.2
			C54.7,187.7,56.3,181.1,58.4,176.9z"/>
		<path class="st1" d="M58.9,90.8c0-24.1,15.6-30.4,27.9-31.6c-4.8,1.3-8.6,8.3-8.6,17.3c0,2.7,0,21.6,0,25.1c0,5-0.1,16.8,3.9,20
			C70.7,118.4,58.9,111.7,58.9,90.8z"/>
		<path class="st1" d="M105.6,121.5c4-3.2,3.9-14.9,3.9-20c0-3.6,0-22.5,0-25.1c0-9-3.8-16-8.6-17.3c12.3,1.3,27.9,7.5,27.9,31.6
			C128.7,111.7,116.9,118.4,105.6,121.5z"/>
		<path class="st1" d="M125.8,183.9c-17.2-10.7-32.4-19.4-52.4-31.1c-3.4-2-4.5-4.2-2.1-8.1l12.6-18.1c-1.8,2.9,0.3,6.4,6.1,9.8
			c11.3,6.5,17.9,10.1,33.9,19c18.1,10.1,22.8,30.4,15.8,49.7C140.8,197.9,133.1,188.5,125.8,183.9z"/>
	</g>
	<g>
		<polygon class="st1" points="211.2,120.8 205.9,115.5 200.6,110.2 185.5,95.1 174.9,95.1 164.3,95.1 153.6,95.1 184.7,126.1 
			190,131.3 195.3,136.6 200.6,141.9 205.9,136.6 211.2,131.3 216.6,126.1 		"/>
		<polygon class="st2" points="195.3,136.6 190,131.3 184.7,126.1 153.7,156.9 164.4,156.9 175,156.9 185.6,156.9 200.6,141.9 		"/>
	</g>
</g>
</svg>
