<?xml version="1.0" encoding="utf-8"?>
<!-- Generator: Adobe Illustrator 27.1.1, SVG Export Plug-In . SVG Version: 6.00 Build 0)  -->
<svg version="1.1" id="Layer_1" xmlns="http://www.w3.org/2000/svg" xmlns:xlink="http://www.w3.org/1999/xlink" x="0px" y="0px"
	 viewBox="0 0 295.9 224.7" style="enable-background:new 0 0 295.9 224.7;" xml:space="preserve">
<style type="text/css">
	.st0{fill-rule:evenodd;clip-rule:evenodd;}
	.st1{fill:#0C0D0D;}
	.st2{fill:#FFFFFF;}
	.st3{fill:#929497;}
</style>
<g>
	<g>
		<path d="M50.9,219.2c0-0.4,0-0.8,0-1.1s0-0.6,0-0.9s0-0.6,0-0.9v-3c0-0.4,0-0.8,0-1.3s0-0.9,0-1.3s0-0.8,0-1.1s0-0.5,0-0.6
			l-1.3-0.2l0-0.6l2.5-0.7l0.3,0.2c0,0.5,0,1,0,1.5s0,1.1,0,1.7s0,1.4,0,2.4l0.1,0c0.3-0.4,0.6-0.7,1.1-1s0.9-0.4,1.4-0.4
			c0.6,0,1.1,0.1,1.6,0.4s0.9,0.7,1.2,1.2s0.4,1.2,0.4,2c0,0.8-0.2,1.6-0.6,2.2s-0.9,1.1-1.6,1.5s-1.4,0.5-2.2,0.5
			c-0.5,0-1-0.1-1.5-0.2S51.3,219.4,50.9,219.2z M54.1,219c0.7,0,1.3-0.3,1.7-0.8s0.7-1.3,0.7-2.2c0-0.9-0.2-1.6-0.7-2.1
			s-1-0.7-1.7-0.7c-0.4,0-0.7,0.1-1,0.2s-0.6,0.4-0.9,0.7v4.3c0.2,0.2,0.5,0.3,0.8,0.4S53.8,219,54.1,219z"/>
		<path d="M63.3,219.8l-3.1-6.7l-0.8-0.3l0.1-0.6h3.4l0,0.6l-1.1,0.3l2.4,5.3L63.3,219.8z M67.8,212.2l0.1,0.6l-0.8,0.3l-3,6.3
			l-1.4,2.9c-0.3,0.5-0.5,0.9-0.8,1.1s-0.6,0.3-1,0.3c-0.3,0-0.5-0.1-0.7-0.2s-0.3-0.3-0.3-0.5c0-0.2,0.1-0.3,0.2-0.5
			s0.4-0.3,0.7-0.4l1.6-0.5l-0.8,0.9l2-3.8l0.2-0.3l2.3-5.4l-1.1-0.3l0-0.6H67.8z"/>
		<path d="M82.8,219.9c-1.1,0-2-0.2-2.9-0.6s-1.5-1-2-1.7s-0.8-1.7-0.8-2.9c0-0.7,0.1-1.4,0.4-2.1s0.6-1.2,1.1-1.7s1.1-0.9,1.8-1.2
			s1.5-0.4,2.5-0.4c0.5,0,1,0,1.5,0.1s1,0.2,1.4,0.4l0.1,2.3l-0.8,0.1l-0.5-1.6c-0.2-0.2-0.5-0.3-0.9-0.4s-0.7-0.1-1-0.1
			c-0.9,0-1.6,0.2-2.2,0.6s-1,0.9-1.3,1.5s-0.4,1.3-0.4,2.1c0,1,0.2,1.8,0.5,2.5s0.8,1.2,1.5,1.6s1.3,0.5,2.1,0.5
			c0.3,0,0.7,0,1.1-0.1s0.8-0.3,1.1-0.5l-0.4,1v-1.8c0-0.4,0-0.7,0-1s0-0.5-0.1-0.7l-1.2-0.2l0-0.7h3.4l0,0.7l-0.8,0.2
			c0,0.1,0,0.2,0,0.4s0,0.5,0,0.8c0,0.4,0,0.7,0,1s0,0.6,0,0.9c-0.5,0.3-1,0.5-1.6,0.7S83.3,219.9,82.8,219.9z"/>
		<path d="M91,219.7l0-0.7l1.1-0.2c0-0.1,0-0.2,0-0.4s0-0.5,0-0.9s0-0.8,0-1.3v-3.3c0-0.5,0-1,0-1.3s0-0.7,0-0.9s0-0.3,0-0.4
			l-1.1-0.2l0-0.7h3.7l0,0.7l-1.1,0.2c0,0,0,0.1-0.1,0.3s0,0.5,0,0.8s0,0.8,0,1.4v3.3c0,0.6,0,1,0,1.4s0,0.6,0,0.8s0,0.3,0.1,0.4
			l1.1,0.2l0,0.7H91z"/>
		<path d="M99,219.7l0-0.7l1-0.2c0,0,0-0.2,0-0.4s0-0.5,0-0.8s0-0.8,0-1.3l0-3.7c0-0.5,0-0.9,0-1.2s0-0.6,0-0.8s0-0.3,0-0.3
			l-1.1-0.2l0.1-0.7h5.6c0.2,0,0.4,0,0.5,0s0.4,0,0.6,0s0.4,0,0.6,0l0.4,2.3l-0.8,0.1l-0.6-1.5c-0.1,0-0.2,0-0.3,0s-0.2,0-0.4,0h-2
			c-0.2,0-0.4,0-0.6,0s-0.4,0-0.5,0c0,0,0,0.1,0,0.3s0,0.3,0,0.5s0,0.4,0,0.7s0,0.5,0,0.8l0,3.8c0,0.6,0,1,0,1.4s0,0.6,0,0.8
			s0,0.3,0,0.3l1.4,0.2l0,0.7H99z M104.6,216.3l-0.2-1.3c-0.1,0-0.2,0-0.3-0.1s-0.3,0-0.5,0h-1.5c-0.1,0-0.2,0-0.4,0s-0.3,0-0.5,0
			v-1c0.1,0,0.3,0,0.4,0s0.3,0,0.5,0h1.5c0.2,0,0.4,0,0.6,0s0.2,0,0.3,0l0.2-1.2h0.8v3.5H104.6z"/>
		<path d="M118.7,209.3l0.4,2.8l-0.8,0.1l-0.7-2c-0.1,0-0.2,0-0.3,0s-0.2,0-0.3,0h-0.6c-0.1,0-0.3,0-0.5,0s-0.4,0-0.5,0
			c0,0.1,0,0.3,0,0.7s0,0.7,0,1.2s0,0.9,0,1.3v2.4c0,0.8,0,1.4,0,1.9s0,0.9,0,1.1l1.5,0.2l-0.1,0.7h-4.5l0-0.7l1.5-0.2
			c0-0.2,0-0.5,0-1.1s0-1.2,0-1.9v-2.4c0-0.4,0-0.9,0-1.3s0-0.9,0-1.2s0-0.6,0-0.7c-0.2,0-0.3,0-0.5,0s-0.4,0-0.5,0H112
			c-0.1,0-0.2,0-0.3,0s-0.2,0-0.3,0l-0.7,2l-0.8-0.1l0.4-2.8c0.1,0,0.3,0,0.4,0s0.3,0,0.4,0s0.3,0,0.4,0s0.3,0,0.4,0h5
			c0.1,0,0.3,0,0.4,0s0.3,0,0.4,0s0.3,0,0.4,0S118.5,209.3,118.7,209.3z"/>
		<path d="M125.8,219.9c-0.5,0-1-0.1-1.6-0.2s-1-0.3-1.3-0.5l-0.1-2.3l0.8-0.1l0.5,1.6c0.3,0.2,0.6,0.3,0.9,0.4s0.7,0.1,1.1,0.1
			c0.6,0,1.1-0.1,1.4-0.4s0.5-0.7,0.5-1.1c0-0.4-0.1-0.8-0.4-1s-0.6-0.5-1-0.7s-0.8-0.4-1.2-0.6s-0.9-0.4-1.2-0.7s-0.7-0.6-1-0.9
			s-0.4-0.8-0.4-1.4c0-0.6,0.2-1.1,0.5-1.5s0.8-0.8,1.3-1s1.2-0.4,1.9-0.4c0.3,0,0.6,0,0.9,0s0.6,0.1,0.8,0.1s0.5,0.1,0.7,0.2
			l0.1,2.2l-0.8,0.1l-0.5-1.5c-0.4-0.2-0.8-0.4-1.4-0.4s-1.1,0.1-1.4,0.4s-0.5,0.7-0.5,1.2c0,0.4,0.1,0.8,0.4,1.1s0.6,0.5,1,0.7
			s0.8,0.4,1.2,0.6s0.9,0.4,1.2,0.7s0.7,0.5,1,0.9s0.4,0.8,0.4,1.3c0,0.6-0.2,1.1-0.5,1.5s-0.8,0.8-1.3,1S126.6,219.9,125.8,219.9z"
			/>
		<path d="M139.7,219.7l0-0.7l1-0.2c0,0,0-0.2,0-0.4s0-0.5,0-0.8s0-0.8,0-1.3l0-3.7c0-0.5,0-0.9,0-1.2s0-0.6,0-0.8s0-0.3,0-0.3
			l-1.1-0.2l0.1-0.7h5.6c0.2,0,0.4,0,0.5,0s0.4,0,0.6,0s0.4,0,0.6,0l0.4,2.3l-0.8,0.1l-0.6-1.5c-0.1,0-0.2,0-0.3,0s-0.2,0-0.4,0h-2
			c-0.2,0-0.4,0-0.6,0s-0.4,0-0.5,0c0,0,0,0.1,0,0.3s0,0.3,0,0.5s0,0.4,0,0.7s0,0.5,0,0.8l0,3.8c0,0.6,0,1,0,1.4s0,0.6,0,0.8
			s0,0.3,0,0.3l1.4,0.2l0,0.7H139.7z M145.3,216.3L145,215c-0.1,0-0.2,0-0.3-0.1s-0.3,0-0.5,0h-1.5c-0.1,0-0.2,0-0.4,0s-0.3,0-0.5,0
			v-1c0.1,0,0.3,0,0.4,0s0.3,0,0.5,0h1.5c0.2,0,0.4,0,0.6,0s0.2,0,0.3,0l0.2-1.2h0.8v3.5H145.3z"/>
		<path d="M156.2,219.9c-1,0-1.9-0.2-2.7-0.7s-1.4-1.1-1.9-1.9s-0.7-1.7-0.7-2.7s0.2-1.9,0.7-2.8s1.1-1.4,1.9-1.9s1.7-0.7,2.7-0.7
			c1,0,1.9,0.2,2.6,0.7s1.3,1.1,1.8,1.8s0.6,1.7,0.6,2.7c0,0.8-0.1,1.5-0.4,2.2s-0.6,1.2-1.1,1.7s-1,0.9-1.6,1.1
			S156.9,219.9,156.2,219.9z M156.3,218.9c0.6,0,1.2-0.2,1.6-0.5s0.8-0.8,1.1-1.4s0.4-1.3,0.4-2.1c0-0.9-0.1-1.8-0.4-2.5
			s-0.7-1.3-1.2-1.7s-1.1-0.6-1.8-0.6c-1,0-1.8,0.4-2.4,1.1s-0.9,1.8-0.9,3c0,0.9,0.2,1.7,0.5,2.4s0.7,1.2,1.3,1.6
			S155.7,218.9,156.3,218.9z"/>
		<path d="M165.5,219.7l0-0.7l1.1-0.3c0-0.1,0-0.2,0-0.4s0-0.4,0-0.6s0-0.5,0-0.8s0-0.5,0-0.8v-3.3c0-0.5,0-1,0-1.4s0-0.7,0-0.9
			s0-0.3,0-0.4l-1.1-0.2l0.1-0.7h3.8c1.1,0,1.9,0.2,2.5,0.6s0.9,1.1,0.9,1.9c0,0.6-0.2,1.1-0.5,1.5s-0.8,0.8-1.3,1.1s-1.2,0.4-2,0.4
			h-1.1v-0.8h1c0.7,0,1.3-0.2,1.7-0.5s0.6-0.9,0.6-1.5c0-0.6-0.2-1.1-0.5-1.4s-0.9-0.5-1.5-0.5h-1c0,0,0,0.1,0,0.1s0,0.2,0,0.3
			s0,0.4,0,0.7s0,0.7,0,1.3v3.6c0,0.5,0,0.9,0,1.3s0,0.6,0,0.8s0,0.4,0,0.5l1,0.3l-0.1,0.7H165.5z M173.9,219.9
			c-0.5,0-1-0.1-1.4-0.3s-0.8-0.5-1.2-1s-0.8-1.1-1.2-1.8l-1.2-2.2l1.3-0.3l1.9,2.8c0.3,0.5,0.6,0.9,0.9,1.2s0.5,0.5,0.8,0.6
			s0.5,0.2,0.8,0.3l0,0.6c-0.1,0-0.2,0-0.4,0.1S174,219.9,173.9,219.9z"/>
		<path d="M189.6,219.9c-1.1,0-2-0.2-2.9-0.6s-1.5-1-2-1.7s-0.8-1.7-0.8-2.9c0-0.7,0.1-1.4,0.4-2.1s0.6-1.2,1.1-1.7s1.1-0.9,1.8-1.2
			s1.5-0.4,2.5-0.4c0.5,0,1,0,1.5,0.1s1,0.2,1.4,0.4l0.1,2.3l-0.8,0.1l-0.5-1.6c-0.2-0.2-0.5-0.3-0.9-0.4s-0.7-0.1-1-0.1
			c-0.9,0-1.6,0.2-2.2,0.6s-1,0.9-1.3,1.5s-0.4,1.3-0.4,2.1c0,1,0.2,1.8,0.5,2.5s0.8,1.2,1.4,1.6s1.3,0.5,2.1,0.5
			c0.3,0,0.7,0,1.1-0.1s0.8-0.3,1.1-0.5l-0.4,1v-1.8c0-0.4,0-0.7,0-1s0-0.5-0.1-0.7l-1.2-0.2l0-0.7h3.4l0,0.7l-0.8,0.2
			c0,0.1,0,0.2,0,0.4s0,0.5,0,0.8c0,0.4,0,0.7,0,1s0,0.6,0,0.9c-0.5,0.3-1,0.5-1.6,0.7S190.2,219.9,189.6,219.9z"/>
		<path d="M203.1,219.9c-1,0-1.9-0.2-2.7-0.7s-1.4-1.1-1.9-1.9s-0.7-1.7-0.7-2.7s0.2-1.9,0.7-2.8s1.1-1.4,1.9-1.9s1.7-0.7,2.7-0.7
			c1,0,1.9,0.2,2.6,0.7s1.3,1.1,1.8,1.8s0.6,1.7,0.6,2.7c0,0.8-0.1,1.5-0.4,2.2s-0.6,1.2-1.1,1.7s-1,0.9-1.6,1.1
			S203.7,219.9,203.1,219.9z M203.2,218.9c0.6,0,1.2-0.2,1.6-0.5s0.8-0.8,1.1-1.4s0.4-1.3,0.4-2.1c0-0.9-0.1-1.8-0.4-2.5
			s-0.7-1.3-1.2-1.7s-1.1-0.6-1.8-0.6c-1,0-1.8,0.4-2.4,1.1s-0.9,1.8-0.9,3c0,0.9,0.2,1.7,0.5,2.4s0.7,1.2,1.3,1.6
			S202.5,218.9,203.2,218.9z"/>
		<path d="M217.6,219.9c-1,0-1.9-0.2-2.7-0.7s-1.4-1.1-1.9-1.9s-0.7-1.7-0.7-2.7s0.2-1.9,0.7-2.8s1.1-1.4,1.9-1.9s1.7-0.7,2.7-0.7
			c1,0,1.9,0.2,2.6,0.7s1.3,1.1,1.8,1.8s0.6,1.7,0.6,2.7c0,0.8-0.1,1.5-0.4,2.2s-0.6,1.2-1.1,1.7s-1,0.9-1.6,1.1
			S218.3,219.9,217.6,219.9z M217.8,218.9c0.6,0,1.2-0.2,1.6-0.5s0.8-0.8,1.1-1.4s0.4-1.3,0.4-2.1c0-0.9-0.1-1.8-0.4-2.5
			s-0.7-1.3-1.2-1.7s-1.1-0.6-1.8-0.6c-1,0-1.8,0.4-2.4,1.1s-0.9,1.8-0.9,3c0,0.9,0.2,1.7,0.5,2.4s0.7,1.2,1.3,1.6
			S217.1,218.9,217.8,218.9z"/>
		<path d="M226.9,209.4h4.3c1.9,0,3.3,0.4,4.3,1.3s1.6,2.1,1.6,3.7c0,1-0.2,1.9-0.7,2.7s-1.1,1.4-2,1.9s-1.8,0.7-3,0.7h-4.5l0-0.7
			l1.1-0.2c0-0.1,0-0.4,0.1-0.9s0-1.1,0-1.7v-3.3c0-0.7,0-1.3,0-1.8s0-0.8-0.1-0.8l-1.1-0.2L226.9,209.4z M229.6,210.4
			c0,0.1,0,0.2,0,0.4s0,0.4,0,0.8s0,0.8,0,1.4v3.3c0,0.4,0,0.7,0,1s0,0.6,0,0.8s0,0.5,0,0.6c0.4,0,0.7,0.1,1,0.1s0.6,0,0.9,0
			c1.2,0,2.2-0.3,2.8-1s1-1.6,1-2.9c0-0.8-0.1-1.4-0.3-2s-0.5-1.1-0.8-1.5s-0.8-0.7-1.4-0.9s-1.2-0.3-1.9-0.3c-0.2,0-0.4,0-0.7,0
			S229.9,210.3,229.6,210.4z"/>
	</g>
	<g>
		<path d="M238.8,209.3h2.9v0.6h-1.1v2.9h-0.8v-2.9h-1.1V209.3z M246.3,209.3v3.6h-0.7v-2.2l0-0.4l-1.1,2c0,0.1-0.1,0.2-0.3,0.2
			h-0.1c-0.1,0-0.2-0.1-0.3-0.2l-1.1-2l0.1,0.4v2.2h-0.7v-3.6h0.6c0.1,0,0.1,0,0.1,0c0,0,0.1,0,0.1,0.1l1,1.8
			c0.1,0.1,0.1,0.2,0.1,0.3c0-0.1,0.1-0.2,0.1-0.3l1-1.8c0-0.1,0.1-0.1,0.1-0.1c0,0,0.1,0,0.1,0H246.3z"/>
	</g>
</g>
<g>
	<g id="GIFTforward_00000005265913359484372880000010737457095675167635_">
		<g>
			<path class="st0" d="M21,173.9c-1.5,0-3-0.1-4.6-0.2c-0.2,0.2-0.2,0.9,0,1.1c0.5,0,2.6,0.2,2.7,0.6c0.2,0.6,0.2,1.7,0.2,2.9v4
				c0,0.3,0,0.5-0.3,0.6c-1.2,0.6-2.7,1.3-4.8,1.3c-6.9,0-10.3-6.3-10.3-12.5c0-5.5,3.8-11.5,9.7-11.5c6.6,0,7.5,4.5,7.8,5.8
				c0.1,0.1,0.2,0.1,0.5,0.1c0.4,0,0.9-0.3,0.9-0.5c0-0.4-0.9-5.9-0.9-5.9c-2.9-0.6-5.8-0.8-8.4-0.8C5.6,159,0,165.3,0,172.6
				c0,7,5.4,13,13.2,13c5.2,0,7.4-1.1,9.1-2.1c0.7-0.4,0.8-0.5,0.8-0.7c0-0.4-0.4-0.8-0.4-1.6v-2.8c0-1.2,0-2.3,0.2-2.9
				c0.1-0.4,2.1-0.6,2.6-0.6c0.2-0.2,0.2-0.9,0-1.1C23.8,173.8,22.6,173.9,21,173.9z M43.8,161c0.1-0.4,2.3-0.6,2.7-0.6
				c0.2-0.2,0.2-0.9,0-1.1c-1.6,0.1-3.1,0.2-4.6,0.2s-3-0.1-4.7-0.2c-0.2,0.2-0.2,0.9,0,1.1c0.5,0,2.6,0.2,2.7,0.6
				c0.2,0.6,0.2,1.7,0.2,2.9v16.9c0,1.2,0,2.3-0.2,2.9c-0.1,0.4-2.3,0.6-2.7,0.6c-0.2,0.2-0.2,0.9,0,1.1c1.6-0.1,3.1-0.2,4.7-0.2
				s3,0.1,4.6,0.2c0.2-0.2,0.2-0.9,0-1.1c-0.5,0-2.6-0.2-2.7-0.6c-0.2-0.6-0.2-1.7-0.2-2.9v-16.9C43.6,162.7,43.6,161.6,43.8,161z
				 M63.7,159.4c-1.5,0-3-0.1-4.7-0.2c-0.2,0.2-0.2,0.9,0,1.1c0.5,0,2.6,0.2,2.7,0.6c0.2,0.6,0.2,1.7,0.2,2.9v16.9
				c0,1.2,0,2.3-0.2,2.9c-0.1,0.4-2.3,0.6-2.7,0.6c-0.2,0.2-0.2,0.9,0,1.1c1.5,0,2.8-0.2,4.7-0.2c1.5,0,3.4,0.1,5,0.2
				c0.2-0.2,0.2-0.9,0-1.1c-0.5,0-3-0.2-3.1-0.6c-0.2-0.6-0.2-1.7-0.2-2.9v-7.4c0-0.4,1.7-0.4,2.8-0.4c1.5,0,3.8,0,4.2,0.3
				c0.4,0.2,0.5,0.4,1.1,2.6c0.1,0.2,0.4,0.3,0.6,0.3c0.3,0,0.6-0.1,0.6-0.2v-7.5c-0.1-0.1-0.4-0.2-0.7-0.2c-0.3,0-0.6,0.1-0.6,0.3
				c-0.7,2.6-0.6,2.8-4.4,2.8h-2.1c-0.9,0-1.7,0-1.7-0.2v-7.4c0-1.1,0-2.2,0.2-2.8c0.1-0.4,2.3-0.4,2.7-0.4h3.4
				c2.1,0,3.7,0.6,4.6,3.7c0,0.2,0.3,0.3,0.6,0.3s0.6-0.1,0.7-0.2c-0.4-1.8-0.9-3.4-1.1-5.4C72.1,159.1,67.4,159.4,63.7,159.4z
				 M109.8,158.6c-0.5,0.2-1.7,0.6-2.4,0.6H91.9c-0.6,0-1.7-0.3-2.2-0.6c-0.2-0.1-0.7-0.2-0.9-0.1c-0.3,2.4-0.6,4.7-1,6.8
				c0.1,0.1,0.4,0.3,0.8,0.3c0.2,0,0.5-0.1,0.6-0.2c0.6-2.8,1.8-4.8,3.8-4.8H98v20.2c0,1.2,0,2.3-0.2,2.9c-0.1,0.4-2.3,0.6-2.7,0.6
				c-0.2,0.2-0.2,0.9,0,1.1c1.6-0.1,3.1-0.2,4.7-0.2c1.5,0,3,0.1,4.6,0.2c0.2-0.2,0.2-0.9,0-1.1c-0.5,0-2.6-0.2-2.7-0.6
				c-0.2-0.6-0.2-1.7-0.2-2.9v-20.2h5c2,0,3.2,2.1,3.8,4.8c0.1,0.1,0.4,0.2,0.6,0.2c0.4,0,0.6-0.2,0.8-0.3c-0.4-2.1-0.8-4.4-1-6.8
				C110.3,158.4,110.1,158.4,109.8,158.6z M133.9,158.9c-3.1,0-6.8,4.2-8,10.5h-1.8c-0.9,0-1.8,0.9-1.8,1.3c0,0.1,0,0.1,0.1,0.1h3.3
				l-2.3,13c-1.2,6.1-2,8.8-3.5,8.8c-0.5,0-0.9-0.3-1.1-0.6c-0.4-0.5-0.8-0.9-1.5-0.9s-1,0.7-1.1,1.5c0,0.2,0,0.4,0,0.6
				c0.3,0.5,1,1,2.1,1c3.1,0,6.8-4.3,8-10.7c0.9-4.9,2.3-12.9,2.3-12.9h4c0.2-0.3,0.3-0.6,0.3-1c0-0.2,0-0.5-0.2-0.5h-3.9
				c1.2-6.1,2-8.8,3.5-8.8c0.5,0,0.9,0.3,1.1,0.6c0.4,0.5,0.8,0.9,1.5,0.9c0.7,0,1.1-0.9,1.2-1.8v-0.3
				C135.7,159.4,135.1,158.9,133.9,158.9z M151,168.6c-4.4,0-8.8,6.1-8.8,11.5c0,3.3,1.4,5.5,4.5,5.5c4.4,0,8.8-5.9,8.8-11.3
				C155.5,170.9,154.1,168.6,151,168.6z M147.4,184.3c-1.4,0-2.2-2-2.2-5.1c0-3.9,2-9.5,5.2-9.5c1.4,0,2,1.9,2,5
				C152.5,178.7,150.6,184.3,147.4,184.3z M178,168.6c-1.8,0-4.6,4.7-5.6,7.3c0.3-1.3,0.4-2,0.7-3.2c0.2-0.8,0.3-1.7,0.3-2
				c0-1.2-0.7-2-1.5-2c-1.8,0-4.4,2.9-4.9,3.6c0,0.2,0.3,0.7,0.4,0.7c0.1-0.1,1.9-2.2,2.7-2.2c0.4,0,0.4,0.6,0.4,1
				c0,0.2-0.1,1-0.2,1.2l-2.3,12.5c0.5,0.1,0.9,0.1,1.4,0.1c0.4,0,0.9,0,1.3-0.1l0.9-4.7c0.7-4,4-9.4,5.4-9.4c0.3,0,0.6,0.1,0.8,0.3
				c0.3,0.3,0.8,0.6,1.2,0.6c0.9,0,1.4-0.7,1.4-1.7c0-0.4-0.2-0.9-0.3-1.1C179.6,169,178.9,168.6,178,168.6z M210,168.6
				c-0.9,0-1.6,0.9-1.8,1.5c0.7,0.7,1,1.6,1,2.4c0,0.9,0,2.6-0.5,4c-0.9,2.5-2.1,4.1-4.1,5.9c-0.4-0.6-0.5-2.5-0.6-4.1
				c-0.1-2.4-0.2-5.8-0.2-7.4c-0.5,0.1-1.4,0.7-1.7,1.1c-0.3,0.8-0.7,1.9-1.7,3.6c-0.7,1.2-2.6,4.5-4.4,6.4
				c-0.1-0.8-0.2-1.7-0.2-3.3v-5.9v-2c0-1.2-0.7-2.1-1.5-2.1c-1.8,0-4.4,2.9-4.9,3.6c0,0.2,0.3,0.7,0.4,0.7c0.1-0.1,1.9-2.2,2.7-2.2
				c0.4,0,0.4,0.6,0.4,1v8c0,1.2,0,5.6,0.3,6c1.6,0,5.2-4.8,7.8-8.5c0,0,0,1.5,0.1,2.5c0,1.2,0.5,5.7,0.8,6
				c2.7,0,10.2-9.1,10.2-13.9C212.1,169.9,211.5,168.6,210,168.6z M237.4,181.2c-0.1,0.1-1.9,2.2-2.7,2.2c-0.7,0-0.3-1.7-0.2-2.2
				l2.4-12.2c-0.7-0.3-1.7-0.5-3-0.5c-4.7,0-11,5.7-11,12.4c0,2.7,1.4,4.6,3.4,4.6c2.2,0,4.9-3.8,5.7-5.2c0,0.3-0.1,0.5-0.2,1.2
				c-0.2,0.8-0.3,1.7-0.3,2c0,1.2,0.5,2,1.3,2c1.8,0,4.6-2.9,5.1-3.6C237.8,181.8,237.5,181.2,237.4,181.2z M233,174.8
				c-0.7,3.7-3.5,8.5-5.4,8.5c-1.4,0-2-1.4-2-3.8c0-4.4,3.4-9.4,6.4-9.4c0.5,0,1.4,0.2,1.8,0.6L233,174.8z M260.2,168.6
				c-1.8,0-4.6,4.7-5.6,7.3c0.3-1.3,0.4-2,0.7-3.2c0.2-0.8,0.3-1.7,0.3-2c0-1.2-0.7-2-1.5-2c-1.8,0-4.4,2.9-4.9,3.6
				c0,0.2,0.3,0.7,0.4,0.7c0.1-0.1,1.9-2.2,2.7-2.2c0.4,0,0.4,0.6,0.4,1c0,0.2-0.1,1-0.2,1.2l-2.3,12.5c0.5,0.1,0.9,0.1,1.4,0.1
				c0.4,0,0.9,0,1.3-0.1l0.9-4.7c0.7-4,4-9.4,5.4-9.4c0.3,0,0.6,0.1,0.8,0.3c0.3,0.3,0.8,0.6,1.2,0.6c0.9,0,1.4-0.7,1.4-1.7
				c0-0.4-0.2-0.9-0.3-1.1C261.7,169,261,168.6,260.2,168.6z M287,162.5c0.2-1,0.5-2.6,0.5-2.9c0-0.2,0-0.6-0.2-0.7
				c-0.9,0.3-3,1.1-5.1,1.3c-0.2,0.2-0.3,0.7-0.2,0.8c0.6,0,2.4,0,2.4,0.7c0,0.4-0.2,1.4-0.3,2l-0.9,4.8c0,0-0.1,0,0,0
				c-0.1,0-0.2,0-0.5,0c-5,0-11,6.3-11,12.3c0,2.2,1,4.7,3.4,4.7c2.3,0,5.1-4.1,5.7-5.2c0,0.3,0,0.5-0.2,1.2c-0.2,0.8-0.3,1.7-0.3,2
				c0,1.2,0.5,2,1.3,2c1.8,0,4.6-2.9,5.1-3.6c0-0.2-0.3-0.7-0.4-0.7c-0.1,0.1-1.9,2.2-2.7,2.2c-0.4,0-0.4-0.6-0.4-0.9
				c0-0.2,0.1-1.1,0.2-1.3L287,162.5z M282.4,172.2l-0.5,2.5c-0.7,3.7-3.4,8.6-5.4,8.6c-1.4,0-2-1.6-2-3.7c0-4.4,3.4-9.5,6.5-9.5
				C282.1,170.1,282.5,171.3,282.4,172.2z"/>
		</g>
	</g>
	<g>
		<path d="M293.2,158.9c0.2,0,0.5,0,0.7,0.1s0.4,0.2,0.6,0.3s0.4,0.3,0.5,0.4c0.2,0.2,0.3,0.3,0.4,0.5c0.1,0.2,0.2,0.4,0.3,0.6
			c0.1,0.2,0.1,0.5,0.1,0.7c0,0.2,0,0.5-0.1,0.7c-0.1,0.2-0.2,0.4-0.3,0.6c-0.1,0.2-0.3,0.4-0.4,0.5s-0.3,0.3-0.5,0.4
			c-0.2,0.1-0.4,0.2-0.6,0.3s-0.5,0.1-0.7,0.1c-0.2,0-0.5,0-0.7-0.1s-0.4-0.2-0.6-0.3c-0.2-0.1-0.4-0.3-0.5-0.4
			c-0.2-0.2-0.3-0.3-0.4-0.5c-0.1-0.2-0.2-0.4-0.3-0.6c-0.1-0.2-0.1-0.5-0.1-0.7c0-0.2,0-0.5,0.1-0.7c0.1-0.2,0.2-0.4,0.3-0.6
			c0.1-0.2,0.3-0.4,0.4-0.5c0.2-0.2,0.3-0.3,0.5-0.4s0.4-0.2,0.6-0.3S293,158.9,293.2,158.9z M293.2,163.9c0.2,0,0.4,0,0.6-0.1
			c0.2-0.1,0.4-0.1,0.5-0.2c0.2-0.1,0.3-0.2,0.5-0.4c0.1-0.1,0.3-0.3,0.4-0.5s0.2-0.4,0.2-0.6c0.1-0.2,0.1-0.4,0.1-0.6
			c0-0.3-0.1-0.6-0.2-0.9c-0.1-0.3-0.3-0.5-0.5-0.7c-0.2-0.2-0.4-0.4-0.7-0.5c-0.3-0.1-0.6-0.2-0.9-0.2c-0.2,0-0.4,0-0.6,0.1
			c-0.2,0.1-0.4,0.1-0.5,0.2s-0.3,0.2-0.5,0.4c-0.1,0.1-0.3,0.3-0.4,0.5c-0.1,0.2-0.2,0.4-0.2,0.6c-0.1,0.2-0.1,0.4-0.1,0.6
			s0,0.4,0.1,0.6c0.1,0.2,0.1,0.4,0.2,0.6c0.1,0.2,0.2,0.3,0.4,0.5c0.1,0.1,0.3,0.3,0.5,0.4s0.3,0.2,0.5,0.2
			C292.8,163.8,293,163.9,293.2,163.9z M293.2,159.9c0.4,0,0.7,0.1,0.9,0.2c0.2,0.2,0.3,0.4,0.3,0.7c0,0.2-0.1,0.4-0.2,0.6
			c-0.1,0.2-0.3,0.3-0.6,0.3c0,0,0.1,0.1,0.1,0.1s0.1,0.1,0.1,0.1l0.8,1.2h-0.5c-0.1,0-0.1,0-0.2-0.1l-0.7-1.1c0,0,0-0.1-0.1-0.1
			c0,0-0.1,0-0.1,0h-0.3v1.3h-0.6v-3.2H293.2z M293.1,161.5c0.3,0,0.5,0,0.6-0.1c0.1-0.1,0.2-0.2,0.2-0.4c0-0.1,0-0.2,0-0.2
			c0-0.1-0.1-0.1-0.1-0.2c-0.1,0-0.1-0.1-0.2-0.1c-0.1,0-0.2,0-0.3,0h-0.5v1.1H293.1z"/>
	</g>
</g>
<g>
	<circle class="st1" cx="147.9" cy="63" r="63"/>
	<g>
		<g>
			<path class="st2" d="M149.1,25.4c0.8-1.2,2.2-2,3.9-2c2.6,0,4.7,2,4.7,4.7c0,2.6-2,4.6-4.7,4.6c-1.8,0-3.3-0.9-4.1-2.4
				c-0.4,0.7-0.9,1.8-1.2,2.6l-0.5-0.3C147.3,30.6,147.6,27.5,149.1,25.4z"/>
			<path class="st2" d="M114.1,88.5c1.9-3.8,5.2-3.8,6.9-2.2c2.7,2.5,1.4,7-3.3,7.9c-2,0.4-4.9,1.2-4.9,3.1
				C112.3,93.8,113.1,90.5,114.1,88.5z"/>
			<path class="st2" d="M114.4,45.4c0-12.1,7.8-15.2,13.9-15.8c-2.4,0.6-4.3,4.2-4.3,8.7c0,1.3,0,10.8,0,12.6c0,2.5-0.1,8.4,1.9,10
				C120.3,59.2,114.4,55.9,114.4,45.4z"/>
			<path class="st2" d="M137.7,60.8c2-1.6,1.9-7.5,1.9-10c0-1.8,0-11.2,0-12.6c0-4.5-1.9-8-4.3-8.7c6.1,0.6,13.9,3.8,13.9,15.8
				C149.3,55.9,143.4,59.2,137.7,60.8z"/>
			<path class="st2" d="M147.8,92c-8.6-5.3-16.2-9.7-26.2-15.5c-1.7-1-2.3-2.1-1-4.1l6.3-9c-0.9,1.4,0.1,3.2,3.1,4.9
				c5.6,3.3,8.9,5,17,9.5c9,5,11.4,15.2,7.9,24.9C155.4,98.9,151.5,94.2,147.8,92z"/>
		</g>
		<g>
			<polygon class="st2" points="190.6,60.4 187.9,57.7 185.2,55.1 177.7,47.6 172.4,47.6 167.1,47.6 161.7,47.6 177.3,63 
				179.9,65.7 182.6,68.3 185.2,71 187.9,68.3 190.6,65.7 193.2,63 			"/>
			<polygon class="st3" points="182.6,68.3 179.9,65.7 177.3,63 161.8,78.4 167.1,78.4 172.4,78.4 177.7,78.4 185.2,71 			"/>
		</g>
	</g>
</g>
</svg>
