<svg viewBox="0 0 30 27" fill="none" xmlns="http://www.w3.org/2000/svg">
<path d="M1.44934 26.5H10.4324M29.2968 26.5H15.8222M10.4324 26.5C12.6782 22.4576 14.9239 17.5169 9.53409 13.4746C5.8661 10.7236 7.46355 3.87726 10.7873 1.06444C11.4 0.545939 12.0291 1.2226 11.6968 1.9532C9.82302 6.0721 9.56715 9.63831 12.6782 12.1271C17.1697 15.7203 17.6188 17.9661 17.6188 19.7627C17.6188 21.2 16.4211 24.8531 15.8222 26.5M10.4324 26.5H15.8222" stroke="#333333"/>
<circle cx="6.83916" cy="15.7204" r="0.847458" stroke="#333333"/>
<circle cx="26.6019" cy="4.0424" r="0.847458" stroke="#333333"/>
<circle cx="21.6611" cy="5.38987" r="1.29661" stroke="#333333"/>
<circle cx="3.69505" cy="9.88133" r="1.29661" stroke="#333333"/>
<circle cx="3.24576" cy="2.24576" r="1.74576" stroke="#333333"/>
<path d="M2.34762 26.5C3.69507 25.1526 4.14423 22.4577 2.79677 21.1102C1.0387 19.3521 0.952533 17.1759 2.19827 14.9713C2.56527 14.3217 3.4646 14.5353 3.58003 15.2723C4.03143 18.1547 3.97556 19.7561 6.38879 20.6611C9.26336 21.739 8.1854 25.0029 7.28709 26.5" stroke="#333333"/>
<path d="M13.5764 13.0254C16.2713 11.6779 17.6188 10.3305 14.9239 7.18639C13.2244 5.20363 15.5998 2.62546 17.5618 1.25599C18.1408 0.851848 18.7142 1.33866 18.3211 1.92526C17.0859 3.76875 14.9188 5.20604 18.5171 8.08469C21.4059 10.3957 18.6668 14.5225 16.7205 16.6186M23.4578 26.4999C20.7629 23.3559 18.9662 21.1101 22.5595 16.6186C26.1527 12.1271 26.1527 11.2288 26.1527 8.983C26.1527 7.18639 28.3984 12.5762 27.051 15.2711C25.7035 17.966 23.9069 17.966 24.3561 21.1101C24.7154 23.6254 27.2007 25.7514 28.3984 26.4999" stroke="#333333"/>
</svg>
