<svg viewBox="0 0 36 31" fill="none" xmlns="http://www.w3.org/2000/svg">
<path d="M25.5321 11.9429C25.8024 11.9991 26.0672 11.8255 26.1234 11.5551L27.0391 7.14928C27.0953 6.87892 26.9216 6.61419 26.6513 6.558C26.3809 6.50181 26.1162 6.67543 26.06 6.9458L25.246 10.8621L21.3297 10.0482C21.0594 9.99196 20.7946 10.1656 20.7384 10.4359C20.6822 10.7063 20.8559 10.971 21.1262 11.0272L25.5321 11.9429ZM22.1255 6.10413L21.7074 6.37834L22.1255 6.10413ZM13.0417 8.91476L14.6248 6.42704L13.7811 5.89016L12.198 8.37789L13.0417 8.91476ZM21.7074 6.37834L25.2157 11.7276L26.0519 11.1792L22.5436 5.82992L21.7074 6.37834ZM14.6248 6.42704C16.2681 3.84473 20.0288 3.81887 21.7074 6.37834L22.5436 5.82992C20.4668 2.66339 15.8142 2.69538 13.7811 5.89016L14.6248 6.42704Z" fill="#333333"/>
<path d="M18.19 23.7959C17.9948 23.9912 17.9948 24.3078 18.19 24.503L21.372 27.685C21.5673 27.8803 21.8838 27.8803 22.0791 27.685C22.2744 27.4898 22.2744 27.1732 22.0791 26.9779L19.2507 24.1495L22.0791 21.3211C22.2744 21.1258 22.2744 20.8092 22.0791 20.614C21.8839 20.4187 21.5673 20.4187 21.372 20.614L18.19 23.7959ZM25.5282 24.1495L25.5282 23.6495L25.5282 24.1495ZM25.5282 23.6495L18.5436 23.6495L18.5436 24.6495L25.5282 24.6495L25.5282 23.6495ZM27.3866 14.9831L29.0228 17.7101L29.8803 17.1956L28.2441 14.4686L27.3866 14.9831ZM25.5282 24.6495C29.3472 24.6495 31.755 20.5397 29.8877 17.2084L29.0154 17.6973C30.509 20.3621 28.583 23.6495 25.5282 23.6495L25.5282 24.6495Z" fill="#333333"/>
<path d="M10.8617 13.06C10.8454 12.7843 10.6086 12.5741 10.333 12.5905L5.84087 12.857C5.56522 12.8734 5.35501 13.1101 5.37137 13.3858C5.38773 13.6614 5.62445 13.8716 5.90011 13.8553L9.89308 13.6183L10.13 17.6113C10.1464 17.887 10.3831 18.0972 10.6588 18.0808C10.9344 18.0645 11.1446 17.8277 11.1283 17.5521L10.8617 13.06ZM13.0896 24.2596H10.495V25.2596H13.0896V24.2596ZM7.34231 17.244L10.7365 13.4216L9.98871 12.7576L6.59456 16.58L7.34231 17.244ZM10.495 24.2596C6.85806 24.2596 4.92749 19.9635 7.34231 17.244L6.59456 16.58C3.60699 19.9445 5.99545 25.2596 10.495 25.2596V24.2596Z" fill="#333333"/>
</svg>
