<svg viewBox="0 0 32 34" fill="none" xmlns="http://www.w3.org/2000/svg">
<path d="M21.3536 14.4984C25.3219 14.7959 28.604 15.4703 28.604 16.5685C28.604 19.7558 19.1697 19.2458 15.855 19.2458C12.5402 19.2458 3.10596 18.7359 3.10596 16.5685C3.10596 14.978 11.8152 14.1664 18.9147 14.343" stroke="#333333" stroke-linecap="round" stroke-linejoin="round"/>
<path d="M3.23352 16.9509C3.23352 21.923 6.54826 26.5127 11.1379 28.8075C14.7601 30.6186 19.3417 29.6008 21.2599 28.8386C21.3125 28.8177 21.3589 28.7927 21.4054 28.7604C23.8492 27.0627 28.604 22.4072 28.604 16.9509" stroke="#333333" stroke-linecap="round" stroke-linejoin="round"/>
<path d="M8.07867 0.887085C9.60862 3.81936 7.82307 5.60422 6.54842 7.1341C5.38856 8.52621 5.1464 11.5963 8.46114 12.4887" stroke="#333333" stroke-linecap="round" stroke-linejoin="round"/>
<path d="M12.289 2.927C13.4588 5.48241 11.902 6.6497 10.9892 7.61191C9.80462 8.86068 10.1173 11.7238 12.6789 12.6162" stroke="#333333" stroke-linecap="round" stroke-linejoin="round"/>
<path d="M6.5479 25.2375C1.57594 25.2375 -6.55243 32.887 15.0897 32.887C36.6354 32.887 31.4084 26.0025 25.289 25.2375" stroke="#333333" stroke-linecap="round" stroke-linejoin="round"/>
<path d="M13.8147 19.1182C14.9621 16.4409 16.492 15.2935 18.4043 14.7835C20.3167 14.2736 22.739 2.162 26.3087 3.81937C29.7258 5.40585 21.4611 13.1836 20.7478 15.4116C20.6935 15.5813 20.7633 15.7496 20.8505 15.905C21.3879 16.8621 21.2384 18.4129 21.0816 19.1182" stroke="#333333" stroke-linecap="round" stroke-linejoin="round"/>
</svg>
