<svg viewBox="0 0 30 25" fill="none" xmlns="http://www.w3.org/2000/svg">
<path d="M4.59985 2.96167H25.2999" stroke="#333333"/>
<path d="M14.9498 2.96167V20.2117" stroke="#333333"/>
<path d="M24.7249 20.2117H4.59985V23.6617H24.7249V20.2117Z" stroke="#333333"/>
<circle cx="14.9498" cy="2.96162" r="2.3" fill="#333333"/>
<path d="M1.15002 12.1617L5.17502 4.11169L9.20002 12.1617" stroke="#333333"/>
<path d="M5.17498 14.7273C1.13305 14.7273 -2.45171e-05 11.5427 -2.45171e-05 11.5427L10.35 11.5427C10.35 11.5427 9.2169 14.7273 5.17498 14.7273Z" fill="#333333"/>
<path d="M20.7002 12.1617L24.7252 4.11169L28.7502 12.1617" stroke="#333333"/>
<path d="M24.7251 14.7273C20.6832 14.7273 19.5501 11.5427 19.5501 11.5427L29.9001 11.5427C29.9001 11.5427 28.7671 14.7273 24.7251 14.7273Z" fill="#333333"/>
</svg>
