<svg viewBox="0 0 32 27" fill="none" xmlns="http://www.w3.org/2000/svg">
<path d="M15.4177 26.1127H15.6322C16.4737 26.1127 17.1559 25.4306 17.1559 24.589V23.2562C17.1559 23.0178 17.3491 22.8246 17.5875 22.8246V22.8246C17.8693 22.8246 18.0755 22.559 18.0056 22.286L17.3057 19.5502C17.2094 19.174 17.2604 18.7753 17.4482 18.4355L18.8125 15.9669C18.9914 15.6431 18.8871 15.236 18.5746 15.0381V15.0381C18.2557 14.8361 17.834 14.9238 17.622 15.2362L16.9038 16.2949C16.6202 16.7128 16.148 16.9631 15.6429 16.9631H15.1297C14.6313 16.9631 14.1644 16.7193 13.8795 16.3103L12.9717 15.0072C12.7822 14.7351 12.4212 14.6442 12.1254 14.794V14.794C11.7902 14.9639 11.6622 15.3775 11.8429 15.707L13.3357 18.43C13.5239 18.7732 13.5728 19.1755 13.4723 19.5538L12.7846 22.1421C12.7122 22.4145 12.9176 22.6816 13.1995 22.6816V22.6816C13.4366 22.6816 13.6288 22.8738 13.6288 23.1109V24.589C13.6288 25.4306 14.311 26.1127 15.1525 26.1127H15.4177ZM15.4177 26.1127V22.8246" stroke="#333333"/>
<circle cx="6.17921" cy="2.28553" r="1.78553" stroke="#333333"/>
<path d="M6.09573 26.265H7.71244C8.55394 26.265 9.23612 25.5828 9.23612 24.7413V8.89496V14.3843C9.23612 14.9711 9.71181 15.4468 10.2986 15.4468V15.4468C10.8854 15.4468 11.3611 14.9711 11.3611 14.3843V8.59022C11.3611 6.9072 9.99671 5.54285 8.31369 5.54285H4.04737C2.36436 5.54285 1 6.9072 1 8.59022V14.3591C1 14.9598 1.487 15.4468 2.08774 15.4468V15.4468C2.68848 15.4468 3.17548 14.9598 3.17548 14.3591V8.89496V24.7413C3.17548 25.5828 3.85766 26.265 4.69917 26.265H6.09573ZM6.09573 26.265V15.4468" stroke="#333333"/>
<circle cx="24.6121" cy="3.4701" r="1.78553" stroke="#333333"/>
<path d="M24.6373 26.1102H25.5255C26.367 26.1102 27.0492 25.4281 27.0492 24.5865V20.3202C27.0492 19.4787 27.7314 18.7965 28.5729 18.7965H28.6972C29.0966 18.7965 29.388 18.4188 29.2867 18.0324L27.0492 9.50206L28.3514 14.4665C28.5289 15.1434 29.2649 15.5061 29.9099 15.2345V15.2345C30.4499 15.007 30.7325 14.4099 30.566 13.8481L28.9377 8.35237C28.6309 7.3172 27.6799 6.60706 26.6002 6.60706H22.9272C21.8475 6.60706 20.8964 7.31719 20.5897 8.35237L18.9603 13.8516C18.7943 14.4118 19.0753 15.0072 19.6132 15.2353V15.2353C20.2542 15.507 20.9877 15.1505 21.1699 14.4785L22.4782 9.65443L20.2457 17.8868C20.1422 18.2684 20.4296 18.6442 20.825 18.6442V18.6442C21.6539 18.6442 22.3258 19.3161 22.3258 20.1449V24.5865C22.3258 25.4281 23.008 26.1102 23.8495 26.1102H24.6373ZM24.6373 26.1102V19.406" stroke="#333333"/>
<circle cx="15.4153" cy="14.5326" r="0.963726" stroke="#333333"/>
</svg>
