<svg viewBox="0 0 29 27" fill="none" xmlns="http://www.w3.org/2000/svg">
<rect x="0.5" y="21.5" width="4" height="5" stroke="#333333"/>
<rect x="8.5" y="15.5" width="4" height="11" stroke="#333333"/>
<rect x="16.5" y="18.5" width="4" height="8" stroke="#333333"/>
<rect x="24.5" y="10.5" width="4" height="16" stroke="#333333"/>
<path d="M10.5 8.5L10.7114 8.04691L10.4301 7.91561L10.1877 8.10957L10.5 8.5ZM18 12L17.7886 12.4531L18.1223 12.6088L18.37 12.3363L18 12ZM28.4994 0.976217C28.4863 0.700388 28.252 0.487431 27.9762 0.500566L23.4813 0.714609C23.2055 0.727744 22.9925 0.961996 23.0057 1.23783C23.0188 1.51366 23.253 1.72661 23.5289 1.71348L27.5243 1.52322L27.7146 5.51869C27.7277 5.79452 27.962 6.00748 28.2378 5.99434C28.5137 5.98121 28.7266 5.74695 28.7135 5.47112L28.4994 0.976217ZM3.31235 14.8904L10.8123 8.89043L10.1877 8.10957L2.68765 14.1096L3.31235 14.8904ZM10.2886 8.95309L17.7886 12.4531L18.2114 11.5469L10.7114 8.04691L10.2886 8.95309ZM18.37 12.3363L28.37 1.33634L27.63 0.663664L17.63 11.6637L18.37 12.3363Z" fill="#333333"/>
</svg>
